<?xml version="1.0" encoding="UTF-8"?>
<svg width="249px" height="68px" viewBox="0 0 249 68" version="1.1" xmlns="http://www.w3.org/2000/svg" xmlns:xlink="http://www.w3.org/1999/xlink">
    <title>full-white</title>
    <defs>
        <polygon id="path-1" points="-1.73472348e-15 0 61.9995283 0 61.9995283 68 -1.73472348e-15 68"></polygon>
        <path d="M30.4808432,1.986 C30.4158432,3.198 32.2418432,4.277 34.5548432,4.396 L34.5548432,4.396 C36.3008432,4.486 37.8248432,4.005 38.4988432,3.244 L38.4988432,3.244 C38.5338432,3.204 38.5878432,3.184 38.6408432,3.193 L38.6408432,3.193 L44.2878432,4.182 C44.3688432,4.196 44.4228432,4.273 44.4098432,4.353 L44.4098432,4.353 C44.2298432,5.33 44.5648432,6.495 45.3448432,7.508 L45.3448432,7.508 C45.3688432,7.54 45.3788432,7.58 45.3728432,7.619 L45.3728432,7.619 C45.3668432,7.659 45.3458432,7.694 45.3128432,7.717 L45.3128432,7.717 L41.3998432,10.534 C41.3418432,10.576 41.2628432,10.571 41.2108432,10.523 L41.2108432,10.523 L41.1768432,10.493 C39.7248432,9.199 37.5018432,9.294 36.2168432,10.715 L36.2168432,10.715 C34.9318432,12.137 35.0648432,14.333 36.5168432,15.627 L36.5168432,15.627 C37.9678432,16.921 40.1888432,16.822 41.4768432,15.404 L41.4768432,15.404 C42.4128432,14.366 42.6288432,12.873 42.0238432,11.617 L42.0238432,11.617 C41.9908432,11.552 42.0108432,11.474 42.0698432,11.431 L42.0698432,11.431 L46.1458432,8.497 C46.2008432,8.458 46.2748432,8.46 46.3268432,8.503 L46.3268432,8.503 C46.8758432,8.945 47.5068432,9.276 48.1828432,9.476 L48.1828432,9.476 C48.2478432,9.494 48.2928432,9.552 48.2928432,9.619 L48.2928432,9.619 L48.2928432,14.201 C48.2928432,14.268 48.2458432,14.327 48.1808432,14.344 L48.1808432,14.344 C47.9588432,14.402 47.7418432,14.479 47.5338432,14.572 L47.5338432,14.572 C45.3738432,15.525 44.3908432,18.006 45.3378432,20.115 L45.3378432,20.115 C45.4698432,20.408 45.6358432,20.685 45.8328432,20.941 L45.8328432,20.941 C45.8578432,20.973 45.8678432,21.015 45.8608432,21.054 L45.8608432,21.054 C45.8538432,21.095 45.8308432,21.13 45.7968432,21.152 L45.7968432,21.152 L41.4718432,24.042 C41.4128432,24.082 41.3358432,24.075 41.2848432,24.026 L41.2848432,24.026 C40.1448432,22.975 38.4068432,22.875 37.2308432,23.851 L37.2308432,23.851 C37.1998432,23.878 37.1668432,23.906 37.1368432,23.934 L37.1368432,23.934 C37.0858432,23.982 37.0098432,23.989 36.9508432,23.951 L36.9508432,23.951 L35.3768432,22.939 C35.3228432,22.903 35.2988432,22.836 35.3178432,22.774 L35.3178432,22.774 C35.6538432,21.622 35.3068432,20.379 34.4188432,19.564 L34.4188432,19.564 C33.1278432,18.371 31.1208432,18.425 29.9358432,19.686 L29.9358432,19.686 C28.7498432,20.946 28.8348432,22.934 30.1248432,24.127 L30.1248432,24.127 C31.4148432,25.318 33.4218432,25.266 34.6078432,24.004 L34.6078432,24.004 C34.6248432,23.986 34.6408432,23.968 34.6568432,23.95 L34.6568432,23.95 C34.7058432,23.897 34.7858432,23.886 34.8458432,23.926 L34.8458432,23.926 L36.3178432,24.873 C36.3758432,24.912 36.3998432,24.984 36.3748432,25.048 L36.3748432,25.048 C35.9838432,26.112 36.2008432,27.301 36.9408432,28.161 L36.9408432,28.161 C38.0588432,29.482 40.0008432,29.691 41.2748432,28.63 L41.2748432,28.63 C42.3068432,27.772 42.5888432,26.347 42.0688432,25.135 L42.0688432,25.135 C42.0388432,25.069 42.0618432,24.991 42.1218432,24.951 L42.1218432,24.951 L46.7018432,21.893 C46.7518432,21.86 46.8178432,21.86 46.8678432,21.893 L46.8678432,21.893 C48.0918432,22.681 49.6368432,22.801 50.9688432,22.208 L50.9688432,22.208 C53.1278432,21.255 54.1118432,18.774 53.1638432,16.665 L53.1638432,16.665 C52.5078432,15.217 51.0798432,14.263 49.4788432,14.203 L49.4788432,14.203 C49.3958432,14.203 49.3298432,14.137 49.3298432,14.055 L49.3298432,14.055 L49.3298432,9.787 C49.3288432,9.709 49.3908432,9.643 49.4698432,9.639 L49.4698432,9.639 C50.2148432,9.607 50.8778432,9.34 51.3438432,8.827 L51.3438432,8.827 L51.3768432,8.789 C51.6288432,8.496 51.8068432,8.148 51.8918432,7.773 L51.8918432,7.773 C51.9028432,7.727 51.9358432,7.688 51.9798432,7.669 L51.9798432,7.669 C52.0248432,7.651 52.0758432,7.655 52.1168432,7.68 L52.1168432,7.68 L55.3568432,9.752 L55.3508432,9.758 C54.5908432,10.532 55.1718432,12.383 56.6698432,13.916 L56.6698432,13.916 C58.1798432,15.466 60.0478432,16.107 60.8428432,15.346 L60.8428432,15.346 C61.6368432,14.586 61.0558432,12.714 59.5458432,11.164 L59.5458432,11.164 C58.5448432,10.136 57.3858432,9.509 56.4858432,9.424 L56.4858432,9.424 C56.4388432,9.421 56.3928432,9.406 56.3538432,9.38 L56.3538432,9.38 L52.0228432,6.609 C51.9558432,6.567 51.9088432,6.5 51.8918432,6.424 L51.8918432,6.424 C51.7048432,5.482 51.1408432,4.496 50.2488432,3.7 L50.2488432,3.7 C48.4968432,2.136 46.1408432,1.897 44.9878432,3.165 L44.9878432,3.165 C44.9148432,3.246 44.8458432,3.333 44.7848432,3.424 L44.7848432,3.424 C44.7528432,3.474 44.6928432,3.5 44.6348432,3.49 L44.6348432,3.49 L38.8578432,2.478 C38.8618432,2.46 38.8618432,2.44 38.8618432,2.421 L38.8618432,2.421 C38.9268432,1.21 37.1028432,0.131 34.7878432,0.011 L34.7878432,0.011 C34.6458432,0.004 34.5058432,0 34.3668432,0 L34.3668432,0 C32.2438432,0 30.5408432,0.85 30.4808432,1.986 M20.5888432,3.272 L20.5878432,3.272 C17.7668432,4.861 17.2618432,5.673 17.5218432,6.483 L17.5218432,6.483 C17.5698432,6.623 17.5298432,6.777 17.4198432,6.876 L17.4198432,6.876 L14.0998432,9.847 C14.0398432,9.901 13.9468432,9.897 13.8908432,9.838 L13.8908432,9.838 C13.8118432,9.754 13.7248432,9.678 13.6308432,9.611 L13.6308432,9.611 C12.3128432,8.662 9.96384318,9.643 8.38384318,11.802 L8.38384318,11.802 C6.80584318,13.96 6.59984318,16.473 7.91684318,17.421 L7.91684318,17.421 C9.23484318,18.369 11.5838432,17.388 13.1628432,15.229 L13.1628432,15.229 C13.2298432,15.139 13.3518432,15.104 13.4568432,15.148 L13.4568432,15.148 L17.4388432,16.825 C17.5498432,16.871 17.6148432,16.984 17.5978432,17.1 L17.5978432,17.1 C17.2578432,19.482 18.8378432,21.716 21.2118432,22.211 L21.2118432,22.211 C23.5858432,22.706 25.9418432,21.292 26.5978432,18.977 L26.5978432,18.977 C27.2538432,16.662 25.9868432,14.239 23.6988432,13.437 L23.6988432,13.437 L24.1028432,11.546 C24.1158432,11.485 24.1648432,11.439 24.2268432,11.43 L24.2268432,11.43 C24.3428432,11.412 24.4608432,11.389 24.5798432,11.361 L24.5798432,11.361 C25.9808432,11.038 27.0138432,10.186 27.1128432,9.34 L27.1128432,9.34 C27.1208432,9.282 27.1628432,9.234 27.2198432,9.216 L27.2198432,9.216 L31.8738432,7.89 C31.9178432,7.877 31.9648432,7.885 32.0018432,7.911 L32.0018432,7.911 C32.4568432,8.227 33.0788432,8.46 33.7798432,8.544 L33.7798432,8.544 C35.3008432,8.731 36.6228432,8.146 36.7338432,7.246 L36.7338432,7.246 C36.8428432,6.345 35.6998432,5.471 34.1808432,5.283 L34.1808432,5.283 C32.6608432,5.096 31.3388432,5.68 31.2278432,6.581 L31.2278432,6.581 C31.2078432,6.761 31.2328432,6.944 31.3028432,7.111 L31.3028432,7.111 C31.3178432,7.15 31.3158432,7.193 31.2978432,7.23 L31.2978432,7.23 C31.2788432,7.268 31.2458432,7.296 31.2058432,7.308 L31.2058432,7.308 L26.9888432,8.51 C26.9348432,8.524 26.8768432,8.508 26.8388432,8.467 L26.8388432,8.467 C26.3028432,7.851 25.0778432,7.6 23.7708432,7.897 L23.7708432,7.897 C22.1538432,8.269 21.0298432,9.343 21.2548432,10.299 L21.2548432,10.299 C21.3998432,10.915 22.0718432,11.331 22.9638432,11.449 L22.9638432,11.449 C23.0038432,11.455 23.0408432,11.477 23.0648432,11.511 L23.0648432,11.511 C23.0888432,11.545 23.0978432,11.586 23.0898432,11.627 L23.0898432,11.627 L22.7808432,13.076 C22.7638432,13.15 22.6928432,13.201 22.6168432,13.192 L22.6168432,13.192 C20.7198432,13.006 18.9028432,13.998 18.0458432,15.687 L18.0458432,15.687 C18.0118432,15.758 17.9268432,15.791 17.8528432,15.76 L17.8528432,15.76 L17.7828432,15.732 L14.1108432,14.215 C14.0438432,14.187 13.9898432,14.133 13.9638432,14.066 L13.9638432,14.066 C13.9368432,13.998 13.9388432,13.923 13.9688432,13.857 L13.9688432,13.857 C14.5008432,12.678 14.6378432,11.511 14.3578432,10.642 L14.3578432,10.642 C14.3378432,10.586 14.3538432,10.524 14.3978432,10.485 L14.3978432,10.485 L18.0248432,7.242 C18.0678432,7.205 18.1268432,7.194 18.1788432,7.214 L18.1788432,7.214 C19.0288432,7.562 20.6108432,7.335 22.2118432,6.559 L22.2118432,6.559 C24.2938432,5.551 25.6178432,3.997 25.1698432,3.089 L25.1698432,3.089 C24.9268432,2.596 24.5148432,2.174 23.6888432,2.174 L23.6888432,2.174 C22.9958432,2.174 22.0108432,2.471 20.5888432,3.272 M3.78784318,21.942 C3.01284318,24.172 3.17484318,26.249 4.14984318,26.585 L4.14984318,26.585 C4.98484318,26.866 6.14484318,25.777 6.94784318,24.059 L6.94784318,24.059 C6.98184318,23.986 7.06884318,23.954 7.14284318,23.986 L7.14284318,23.986 L11.4878432,25.993 C11.5508432,26.025 11.5838432,26.095 11.5658432,26.163 L11.5658432,26.163 C11.2788432,27.286 11.4618432,28.477 12.0768432,29.461 L12.0768432,29.461 C12.6908432,30.447 13.6828432,31.143 14.8238432,31.391 L14.8238432,31.391 C14.8978432,31.407 14.9478432,31.475 14.9398432,31.55 L14.9398432,31.55 L14.6488432,33.898 C14.6388432,33.972 14.5748432,34.026 14.4998432,34.025 L14.4998432,34.025 C13.1358432,34.026 11.8438432,34.624 10.9678432,35.659 L10.9678432,35.659 C9.31584318,37.606 9.59784318,40.533 11.5948432,42.193 L11.5948432,42.193 C11.6558432,42.247 11.6638432,42.339 11.6108432,42.401 L11.6108432,42.401 L8.36484318,45.973 C8.33684318,46.002 8.29884318,46.019 8.25784318,46.02 L8.25784318,46.02 C8.21884318,46.021 8.17984318,46.006 8.15084318,45.978 L8.15084318,45.978 C6.70484318,44.549 4.96384318,43.897 3.74684318,44.35 L3.74684318,44.35 C3.70684318,44.364 3.66184318,44.361 3.62384318,44.342 L3.62384318,44.342 C3.58684318,44.322 3.55884318,44.287 3.54884318,44.245 L3.54884318,44.245 L2.84884318,40.681 L2.85884318,40.681 C3.99184318,40.497 4.62384318,38.095 4.27484318,35.272 L4.27484318,35.272 C3.92184318,32.419 2.69684318,30.223 1.54684318,30.364 L1.54684318,30.364 C0.39584318,30.505 -0.25715682,32.928 0.0958431801,35.777 L0.0958431801,35.777 C0.36484318,37.946 1.13484318,39.728 1.99484318,40.403 L1.99484318,40.403 C2.02284318,40.425 2.04284318,40.456 2.04884318,40.49 L2.04884318,40.49 L2.90184318,44.859 C2.90884318,44.901 2.89884318,44.944 2.87184318,44.977 L2.87184318,44.977 C1.91284318,46.197 2.29184318,48.598 3.86184318,50.662 L3.86184318,50.662 C5.60784318,52.955 8.15684318,53.966 9.55784318,52.921 L9.55784318,52.921 C10.9248432,51.899 10.6918432,49.295 9.05784318,47.039 L9.05784318,47.039 C9.01884318,46.983 9.02284318,46.908 9.06784318,46.857 L9.06784318,46.857 L12.6198432,42.953 C12.6618432,42.908 12.7288432,42.895 12.7858432,42.919 L12.7858432,42.919 C14.6398432,43.705 16.8518432,43.255 18.1998432,41.667 L18.1998432,41.667 C19.8508432,39.719 19.5698432,36.792 17.5728432,35.132 L17.5728432,35.132 C17.0718432,34.714 16.4898432,34.403 15.8628432,34.218 L15.8628432,34.218 C15.7938432,34.198 15.7508432,34.131 15.7578432,34.061 L15.7578432,34.061 L16.0638432,31.587 C16.0738432,31.521 16.1278432,31.469 16.1948432,31.461 L16.1948432,31.461 C17.1878432,31.356 18.1098432,30.898 18.7908432,30.174 L18.7908432,30.174 C20.3758432,28.489 20.2598432,25.831 18.5358432,24.238 L18.5358432,24.238 C16.8128432,22.643 14.1258432,22.716 12.5418432,24.4 L12.5418432,24.4 C12.3888432,24.562 12.2478432,24.736 12.1228432,24.921 L12.1228432,24.921 C12.0828432,24.98 12.0048432,25.002 11.9388432,24.973 L11.9388432,24.973 L7.51784318,22.931 C7.45484318,22.898 7.42284318,22.826 7.44284318,22.758 L7.44284318,22.758 C8.06984318,20.68 7.87284318,18.82 6.95584318,18.506 L6.95584318,18.506 C6.86684318,18.476 6.77484318,18.461 6.67884318,18.461 L6.67884318,18.461 C5.72684318,18.462 4.49184318,19.917 3.78784318,21.942 M26.1388432,29.516 C24.3548432,30.997 24.1438432,33.649 25.6628432,35.437 L25.6628432,35.437 C26.1568432,36.023 26.8008432,36.467 27.5268432,36.721 L27.5268432,36.721 C27.6878432,36.779 27.7808432,36.944 27.7478432,37.109 L27.7478432,37.109 L25.9498432,46.264 C25.9138432,46.443 25.7418432,46.564 25.5588432,46.538 L25.5588432,46.538 C23.8088432,46.298 22.0478432,46.883 20.7978432,48.12 L20.7978432,48.12 C19.1298432,49.776 18.7338432,52.216 19.5918432,54.277 L19.5918432,54.277 C19.6618432,54.443 19.5918432,54.635 19.4308432,54.718 L19.4308432,54.718 L17.1318432,55.878 C16.9968432,55.945 16.8348432,55.92 16.7288432,55.815 L16.7288432,55.815 C14.6788432,53.785 11.8848432,53.268 10.4818432,54.655 L10.4818432,54.655 C9.07984318,56.041 9.60484318,58.813 11.6528432,60.843 L11.6528432,60.843 C12.7758432,61.956 14.1228432,62.614 15.3418432,62.754 L15.3418432,62.754 C15.3888432,62.759 15.4338432,62.774 15.4748432,62.797 L15.4748432,62.797 L20.6978432,65.785 C20.7578432,65.819 20.8058432,65.872 20.8358432,65.934 L20.8358432,65.934 C20.9938432,66.267 21.3138432,66.602 21.7498432,66.899 L21.7498432,66.899 L21.8118432,66.941 C22.3608432,67.293 22.9628432,67.558 23.5938432,67.728 L23.5938432,67.728 L23.6848432,67.753 L23.7758432,67.777 L23.8218432,67.788 C24.3988432,67.931 24.9598432,67.999 25.4688432,68 L25.4688432,68 L25.4978432,68 C26.6748432,67.996 27.5678432,67.631 27.7288432,66.997 L27.7288432,66.997 C27.9598432,66.083 26.5828432,64.956 24.6558432,64.48 L24.6558432,64.48 C24.5458432,64.452 24.4368432,64.428 24.3288432,64.406 L24.3288432,64.406 L24.2358432,64.387 L24.1888432,64.379 L24.0978432,64.363 L24.0518432,64.356 L23.9598432,64.342 C23.8688432,64.328 23.7788432,64.316 23.6888432,64.306 L23.6888432,64.306 L23.5998432,64.297 C22.6418432,64.206 21.8038432,64.331 21.2828432,64.634 L21.2828432,64.634 C21.1758432,64.696 21.0438432,64.696 20.9358432,64.634 L20.9358432,64.634 L17.7048432,62.785 C17.6038432,62.728 17.5378432,62.625 17.5288432,62.511 L17.5288432,62.511 C17.5198432,62.397 17.5698432,62.285 17.6608432,62.213 L17.6608432,62.213 C17.7448432,62.148 17.8258432,62.078 17.9018432,62.003 L17.9018432,62.003 C19.0058432,60.91 18.9148432,58.96 17.8268432,57.188 L17.8268432,57.188 C17.7768432,57.107 17.7618432,57.01 17.7878432,56.919 L17.7878432,56.919 C17.8138432,56.827 17.8758432,56.751 17.9608432,56.708 L17.9608432,56.708 L20.0588432,55.649 C20.2038432,55.576 20.3808432,55.613 20.4838432,55.738 L20.4838432,55.738 C20.5998432,55.879 20.7248432,56.016 20.8588432,56.149 L20.8588432,56.149 C23.1128432,58.382 26.7378432,58.408 28.9578432,56.208 L28.9578432,56.208 C31.1788432,54.009 31.1518432,50.415 28.8978432,48.182 L28.8978432,48.182 C28.3778432,47.665 27.7618432,47.25 27.0848432,46.959 L27.0848432,46.959 C26.9348432,46.896 26.8498432,46.738 26.8808432,46.579 L26.8808432,46.579 L28.7138432,37.242 C28.7448432,37.083 28.8848432,36.968 29.0488432,36.965 L29.0488432,36.965 C29.5028432,36.955 29.9518432,36.872 30.3798432,36.719 L30.3798432,36.719 C30.5028432,36.674 30.6408432,36.702 30.7368432,36.792 L30.7368432,36.792 L34.2358432,40.142 C34.3558432,40.258 34.3738432,40.442 34.2798432,40.579 L34.2798432,40.579 C33.3578432,41.979 33.4728432,43.813 34.5628432,45.089 L34.5628432,45.089 C35.9198432,46.692 38.3118432,46.916 39.9038432,45.592 L39.9038432,45.592 C41.4968432,44.268 41.6888432,41.895 40.3318432,40.293 L40.3318432,40.293 C39.1108432,38.851 37.0518432,38.524 35.4918432,39.438 L35.4918432,39.438 C35.3568432,39.519 35.1858432,39.5 35.0708432,39.393 L35.0708432,39.393 L31.5738432,36.046 L31.6298432,36.001 C33.4108432,34.521 33.6248432,31.869 32.1078432,30.078 L32.1078432,30.078 C31.2558432,29.072 30.0378432,28.552 28.8188432,28.552 L28.8188432,28.552 C27.8698432,28.552 26.9178432,28.868 26.1388432,29.516 M46.5818432,47.544 C45.5488432,48.954 46.3798432,51.3 48.4388432,52.784 L48.4388432,52.784 C50.1798432,54.038 52.2448432,54.273 53.4648432,53.461 L53.4648432,53.461 C53.6478432,53.337 53.8908432,53.346 54.0638432,53.484 L54.0638432,53.484 L55.9298432,54.982 C56.1418432,55.151 56.1778432,55.458 56.0108432,55.671 L56.0108432,55.671 C55.3278432,56.531 54.9948432,57.496 55.0858432,58.313 L55.0858432,58.313 C55.1108432,58.515 55.0098432,58.711 54.8298432,58.808 L54.8298432,58.808 L50.0048432,61.351 C49.7708432,61.474 49.4798432,61.396 49.3418432,61.172 L49.3418432,61.172 C48.2848432,59.456 45.8408432,58.67 43.4298432,59.4 L43.4298432,59.4 L43.3408432,59.427 C43.0968432,59.505 42.8338432,59.388 42.7288432,59.156 L42.7288432,59.156 L41.3808432,56.159 C41.2818432,55.942 41.3538432,55.685 41.5518432,55.549 L41.5518432,55.549 C41.8008432,55.381 42.0278432,55.181 42.2258432,54.955 L42.2258432,54.955 C43.5098432,53.491 43.3358432,51.258 41.8368432,49.967 L41.8368432,49.967 C40.3368432,48.674 38.0818432,48.813 36.7968432,50.277 L36.7968432,50.277 C35.5118432,51.742 35.6878432,53.975 37.1858432,55.266 L37.1858432,55.266 C37.9038432,55.887 38.8378432,56.203 39.7868432,56.144 L39.7868432,56.144 C39.9978432,56.13 40.1948432,56.247 40.2798432,56.438 L40.2798432,56.438 L41.7478432,59.705 C41.8448432,59.917 41.7778432,60.168 41.5878432,60.306 L41.5878432,60.306 C40.3338432,61.216 39.5618432,62.535 39.5278432,63.882 L39.5278432,63.882 C39.5198432,64.137 39.3178432,64.344 39.0618432,64.361 L39.0618432,64.361 L37.8578432,64.445 C37.6058432,64.461 37.3818432,64.289 37.3338432,64.044 L37.3338432,64.044 C37.0658432,62.64 35.8958432,61.207 34.1518432,60.364 L34.1518432,60.364 C31.6238432,59.141 28.8508432,59.625 27.9518432,61.443 L27.9518432,61.443 C27.0518432,63.262 28.3778432,65.725 30.9058432,66.948 L30.9058432,66.948 C33.4338432,68.171 36.2118432,67.688 37.1058432,65.869 L37.1058432,65.869 C37.1838432,65.708 37.3418432,65.599 37.5218432,65.585 L37.5218432,65.585 L39.4888432,65.449 C39.6838432,65.435 39.8688432,65.535 39.9628432,65.705 L39.9628432,65.705 C40.9618432,67.533 43.4838432,68.393 45.9688432,67.64 L45.9688432,67.64 L46.0518432,67.614 C48.4938432,66.839 50.0628432,64.748 49.8558432,62.7 L49.8558432,62.7 C49.8358432,62.499 49.9398432,62.307 50.1188432,62.213 L50.1188432,62.213 L55.5228432,59.366 L55.5498432,59.396 C56.5068432,60.473 58.5948432,60.247 60.2438432,58.876 L60.2438432,58.876 C61.9078432,57.492 62.4918432,55.465 61.5478432,54.351 L61.5478432,54.351 C60.6688432,53.313 58.7778432,53.429 57.1778432,54.565 L57.1778432,54.565 C56.9958432,54.691 56.7508432,54.683 56.5788432,54.544 L56.5788432,54.544 L54.5038432,52.88 C54.3398432,52.749 54.2758432,52.53 54.3448432,52.332 L54.3448432,52.332 C54.8418432,50.919 53.9818432,48.969 52.1828432,47.675 L52.1828432,47.675 C51.1188432,46.91 49.9358432,46.524 48.8978432,46.524 L48.8978432,46.524 C47.9268432,46.524 47.0818432,46.862 46.5818432,47.544" id="path-3"></path>
        <radialGradient cx="50.0001994%" cy="50%" fx="50.0001994%" fy="50%" r="54.8392242%" gradientTransform="translate(0.500002,0.500000),scale(1.000000,0.911756),rotate(90.000000),scale(1.000000,1.000000),translate(-0.500002,-0.500000)" id="radialGradient-5">
            <stop stop-color="#FFFFFF" offset="0%"></stop>
            <stop stop-color="#FFFFFF" offset="100%"></stop>
        </radialGradient>
    </defs>
    <g id="Design-system" stroke="none" stroke-width="1" fill="none" fill-rule="evenodd">
        <g id="Logo" transform="translate(-128.000000, -429.000000)">
            <g id="full-white" transform="translate(128.000000, 429.000000)">
                <g id="Group-8" transform="translate(0.000111, 0.000000)">
                    <path d="M213.521832,26.0999 L213.435832,26.0999 C212.463832,26.0999 211.674832,26.8859 211.674832,27.8549 L211.674832,33.9369 C211.674832,35.1869 211.207832,36.4089 210.314832,37.2869 C209.558832,38.0319 208.668832,38.4579 207.646832,38.5649 C206.040832,38.7349 204.429832,38.0379 203.452832,36.7539 C202.859832,35.9749 202.562832,35.0729 202.562832,34.0489 L202.562832,27.7619 C202.562832,26.8439 201.816832,26.0999 200.895832,26.0999 C199.928832,26.0999 199.145832,26.8809 199.145832,27.8449 L199.145832,34.0489 C199.145832,36.2499 199.922832,38.1259 201.476832,39.6749 C203.031832,41.2249 204.912832,41.9999 207.118832,41.9999 C209.325832,41.9999 211.206832,41.2249 212.760832,39.6749 C214.314832,38.1259 215.091832,36.2499 215.091832,34.0489 L215.091832,27.6659 C215.091832,26.8009 214.388832,26.0999 213.521832,26.0999 L213.521832,26.0999 Z M151.476832,26.0149 L151.476832,26.0149 C150.780832,26.0149 150.144832,26.4029 149.835832,27.0159 L146.570832,34.9669 C146.497832,35.2009 146.257832,35.2499 146.138832,34.9879 L142.846832,27.0249 C142.539832,26.4069 141.901832,26.0149 141.202832,26.0149 L141.154832,26.0149 C139.794832,26.0149 138.909832,27.4239 139.517832,28.6219 L144.678832,41.0049 C145.353832,42.3319 147.277832,42.3319 147.952832,41.0049 L153.113832,28.6219 C153.721832,27.4239 152.836832,26.0149 151.476832,26.0149 L151.476832,26.0149 Z M229.888832,28.3569 L229.871832,28.3389 C228.354832,26.7799 226.521832,25.9999 224.369832,25.9999 C222.216832,25.9999 220.381832,26.7799 218.865832,28.3389 C217.349832,29.8989 216.591832,31.7859 216.591832,33.9989 L216.591832,40.3469 C216.591832,41.2589 217.310832,41.9999 218.197832,41.9999 C219.151832,41.9999 219.924832,41.2049 219.924832,40.2239 L219.924832,34.0269 C219.924832,32.8829 220.324832,31.7659 221.079832,30.9249 C222.084832,29.8059 223.342832,29.3149 224.852832,29.4509 C225.860832,29.5419 226.795832,30.0319 227.510832,30.7679 L227.528832,30.7859 C227.528832,30.7859 228.843832,32.0499 230.011832,30.8989 C231.304832,29.6259 229.888832,28.3569 229.888832,28.3569 L229.888832,28.3569 Z M180.261832,25.9999 C178.048832,25.9999 176.163832,26.7769 174.603832,28.3309 C173.045832,29.8849 172.266832,31.7649 172.266832,33.9709 L172.266832,40.2909 C172.266832,41.2039 173.008832,41.9439 173.924832,41.9439 C174.900832,41.9439 175.693832,41.1539 175.693832,40.1789 L175.693832,33.9709 C175.693832,32.5929 176.229832,31.4339 177.303832,30.4979 C178.006832,29.8839 178.897832,29.5049 179.828832,29.4329 C181.472832,29.3069 182.822832,29.8889 183.879832,31.1789 C184.516832,31.9579 184.831832,32.9499 184.831832,33.9539 L184.831832,39.9979 C184.831832,41.0729 185.704832,41.9439 186.782832,41.9439 C187.597832,41.9439 188.257832,41.2849 188.257832,40.4719 L188.257832,33.9709 C188.257832,31.7649 187.478832,29.8849 185.920832,28.3309 C184.361832,26.7769 182.475832,25.9999 180.261832,25.9999 L180.261832,25.9999 Z M193.276832,29.6769 L195.871832,29.6769 C196.851832,29.6769 197.645832,28.8759 197.645832,27.8889 C197.645832,26.9949 196.926832,26.2699 196.038832,26.2699 L193.276832,26.2699 C193.200832,26.2699 193.138832,26.2079 193.138832,26.1299 L193.138832,18.8559 C193.138832,17.8309 192.313832,16.9999 191.296832,16.9999 C190.446832,16.9999 189.757832,17.6939 189.757832,18.5509 L189.757832,34.2179 C189.757832,36.4189 190.526832,38.2939 192.064832,39.8429 C193.114832,40.9029 194.316832,41.5989 195.668832,41.9339 C196.673832,42.1829 197.645832,41.4199 197.645832,40.3779 C197.645832,39.5509 197.115832,38.8109 196.328832,38.5749 C195.681832,38.3819 195.095832,38.0369 194.572832,37.5409 C193.626832,36.6439 193.138832,35.3609 193.138832,34.0519 L193.138832,29.8159 C193.138832,29.7389 193.200832,29.6769 193.276832,29.6769 L193.276832,29.6769 Z M98.4758324,29.6769 L101.070832,29.6769 C102.050832,29.6769 102.844832,28.8759 102.844832,27.8889 C102.844832,26.9949 102.125832,26.2699 101.237832,26.2699 L98.4758324,26.2699 C98.3998324,26.2699 98.3378324,26.2079 98.3378324,26.1299 L98.3378324,18.8559 C98.3378324,17.8309 97.5128324,16.9999 96.4958324,16.9999 C95.6458324,16.9999 94.9568324,17.6939 94.9568324,18.5509 L94.9568324,34.2179 C94.9568324,36.4189 95.7258324,38.2939 97.2638324,39.8429 C98.3138324,40.9029 99.5158324,41.5989 100.867832,41.9339 C101.872832,42.1829 102.844832,41.4199 102.844832,40.3779 C102.844832,39.5509 102.314832,38.8109 101.527832,38.5749 C100.880832,38.3819 100.294832,38.0369 99.7718324,37.5409 C98.8258324,36.6439 98.3378324,35.3609 98.3378324,34.0519 L98.3378324,29.8159 C98.3378324,29.7389 98.3998324,29.6769 98.4758324,29.6769 L98.4758324,29.6769 Z M68.1598324,25.9999 C65.9898324,25.9999 64.1408324,26.7789 62.6118324,28.3359 C62.3898324,28.5619 62.1858324,28.7929 61.9988324,29.0309 C61.8128324,28.7929 61.6088324,28.5619 61.3868324,28.3359 C59.8588324,26.7789 58.0098324,25.9999 55.8398324,25.9999 C53.6698324,25.9999 51.8198324,26.7789 50.2928324,28.3359 C48.7638324,29.8929 47.9998324,31.7769 47.9998324,33.9879 L47.9998324,40.2519 C47.9998324,41.2049 48.7568324,41.9749 49.6908324,41.9749 C50.6128324,41.9749 51.3598324,41.2139 51.3598324,40.2749 L51.3598324,34.0629 C51.3598324,32.9179 51.7418324,31.7899 52.4998324,30.9439 C53.3638324,29.9799 54.4118324,29.4749 55.6468324,29.4269 C56.9978324,29.3749 58.3198324,29.9559 59.2178324,30.9879 C59.9528324,31.8339 60.3188324,32.8329 60.3188324,33.9879 L60.3188324,40.2519 C60.3188324,41.2039 61.0768324,41.9749 62.0118324,41.9749 C62.9328324,41.9749 63.6798324,41.2139 63.6798324,40.2769 L63.6798324,33.9879 C63.6798324,32.8329 64.0468324,31.8329 64.7818324,30.9879 C65.6798324,29.9559 67.0008324,29.3749 68.3528324,29.4269 C69.5888324,29.4749 70.6368324,29.9809 71.4998324,30.9459 C72.2568324,31.7919 72.6398324,32.9199 72.6398324,34.0649 L72.6398324,40.1959 C72.6398324,41.1789 73.4218324,41.9749 74.3868324,41.9749 C75.2778324,41.9749 75.9998324,41.2389 75.9998324,40.3319 L75.9998324,33.9879 C75.9998324,31.7769 75.2348324,29.8929 73.7068324,28.3359 C72.1788324,26.7789 70.3298324,25.9999 68.1598324,25.9999 L68.1598324,25.9999 Z M117.305832,41.4749 C117.089832,41.2569 116.901832,40.8439 116.901832,40.6019 C115.581832,41.5339 114.059832,41.9999 112.335832,41.9999 C110.123832,41.9999 108.238832,41.2279 106.681832,39.6829 C105.123832,38.1389 104.344832,36.2699 104.344832,34.0779 C104.344832,31.8849 105.123832,30.0159 106.681832,28.4709 C108.238832,26.9269 110.123832,26.1549 112.335832,26.1549 C114.546832,26.1549 116.431832,26.9269 117.988832,28.4709 C119.546832,30.0159 120.325832,31.8849 120.325832,34.0779 L120.325832,40.6019 C120.325832,40.8339 120.174832,41.2579 119.962832,41.4509 C119.222832,42.1219 117.852832,42.0249 117.305832,41.4749 L117.305832,41.4749 Z M115.342832,30.6709 C114.598832,30.0079 113.635832,29.6129 112.636832,29.5589 C111.144832,29.4779 109.899832,29.9889 108.900832,31.0929 C108.232832,31.8309 107.832832,32.7859 107.777832,33.7779 C107.695832,35.2579 108.211832,36.4939 109.326832,37.4849 C110.071832,38.1469 111.033832,38.5419 112.032832,38.5959 C113.525832,38.6769 114.771832,38.1659 115.770832,37.0609 C116.438832,36.3229 116.838832,35.3679 116.893832,34.3769 C116.974832,32.8969 116.458832,31.6599 115.342832,30.6709 L115.342832,30.6709 Z M136.108832,17.0309 C135.161832,17.0309 134.394832,17.7879 134.394832,18.7209 L134.394832,27.1069 C134.394832,27.3219 134.156832,27.4549 133.971832,27.3419 C132.751832,26.5999 131.368832,26.2279 129.823832,26.2279 C127.610832,26.2279 125.723832,26.9969 124.164832,28.5339 C122.604832,30.0709 121.825832,31.9309 121.825832,34.1139 C121.825832,36.2969 122.604832,38.1559 124.164832,39.6939 C125.723832,41.2319 127.610832,41.9999 129.823832,41.9999 C132.037832,41.9999 133.923832,41.2319 135.483832,39.6939 C137.043832,38.1559 137.822832,36.2969 137.822832,34.1139 L137.822832,18.7209 C137.822832,17.7879 137.055832,17.0309 136.108832,17.0309 L136.108832,17.0309 Z M134.374832,34.5619 C134.291832,35.4689 133.954832,36.2719 133.362832,36.9699 C132.390832,38.1159 130.878832,38.7339 129.369832,38.6009 C128.451832,38.5199 127.638832,38.1869 126.930832,37.6049 C125.765832,36.6469 125.137832,35.1549 125.273832,33.6649 C125.355832,32.7599 125.692832,31.9579 126.284832,31.2589 C127.256832,30.1119 128.769832,29.4939 130.278832,29.6269 C131.197832,29.7089 132.010832,30.0409 132.719832,30.6249 C133.882832,31.5819 134.509832,33.0739 134.374832,34.5619 L134.374832,34.5619 Z M237.256832,26.5949 C235.145832,27.4109 233.641832,28.8289 232.747832,30.8479 C231.853832,32.8669 231.826832,34.9009 232.668832,36.9509 C233.509832,39.0009 234.968832,40.4609 237.049832,41.3289 C239.128832,42.1979 241.223832,42.2229 243.334832,41.4059 C245.446832,40.5889 246.949832,39.1719 247.843832,37.1529 L247.853832,37.1289 C247.853832,37.1289 248.479832,35.3799 246.879832,34.8689 C245.339832,34.3769 244.622832,35.7639 244.615832,35.7769 L244.615832,35.7779 L244.610832,35.7879 C244.188832,36.7419 243.461832,37.5549 242.506832,38.0239 C241.143832,38.6939 239.788832,38.7469 238.442832,38.1849 C237.645832,37.8509 237.008832,37.3649 236.530832,36.7229 L236.544832,36.6769 L247.268832,32.5289 C247.856832,32.3009 248.167832,31.6549 247.937832,31.0829 L247.923832,31.0489 C247.082832,28.9989 245.622832,27.5409 243.542832,26.6719 C241.462832,25.8029 239.367832,25.7769 237.256832,26.5949 L237.256832,26.5949 Z M243.157832,30.4419 L235.697832,33.3269 L235.655832,33.2949 C235.699832,33.0199 235.772832,32.7449 235.876832,32.4669 C236.376832,31.1349 237.506832,30.0839 238.896832,29.6499 C239.985832,29.3099 241.070832,29.3649 242.149832,29.8159 C242.527832,29.9739 242.866832,30.1649 243.165832,30.3899 L243.157832,30.4419 Z M82.6998324,26.5949 C80.5888324,27.4109 79.0858324,28.8289 78.1918324,30.8479 C77.2968324,32.8669 77.2698324,34.9009 78.1118324,36.9509 C78.9528324,39.0009 80.4128324,40.4609 82.4928324,41.3289 C84.5718324,42.1979 86.6668324,42.2229 88.7788324,41.4059 C90.8898324,40.5889 92.3928324,39.1719 93.2878324,37.1529 L93.2968324,37.1289 C93.2968324,37.1289 93.9238324,35.3799 92.3238324,34.8689 C90.7828324,34.3769 90.0658324,35.7639 90.0588324,35.7769 L90.0588324,35.7779 L90.0538324,35.7879 C89.6318324,36.7419 88.9048324,37.5549 87.9508324,38.0239 C86.5878324,38.6939 85.2328324,38.7469 83.8858324,38.1849 C83.0888324,37.8509 82.4518324,37.3649 81.9738324,36.7229 L81.9878324,36.6769 L92.7118324,32.5289 C93.2998324,32.3009 93.6118324,31.6549 93.3808324,31.0829 L93.3668324,31.0489 C92.5258324,28.9989 91.0658324,27.5409 88.9858324,26.6719 C86.9058324,25.8029 84.8108324,25.7769 82.6998324,26.5949 L82.6998324,26.5949 Z M88.6008324,30.4419 L81.1418324,33.3269 L81.0988324,33.2949 C81.1428324,33.0199 81.2158324,32.7449 81.3208324,32.4669 C81.8198324,31.1349 82.9498324,30.0839 84.3398324,29.6499 C85.4298324,29.3099 86.5138324,29.3649 87.5928324,29.8159 C87.9718324,29.9739 88.3098324,30.1649 88.6088324,30.3899 L88.6008324,30.4419 Z M160.008832,26.5949 C157.897832,27.4109 156.394832,28.8289 155.500832,30.8479 C154.605832,32.8669 154.578832,34.9009 155.420832,36.9509 C156.261832,39.0009 157.721832,40.4609 159.801832,41.3289 C161.880832,42.1979 163.976832,42.2229 166.087832,41.4059 C168.198832,40.5889 169.701832,39.1719 170.596832,37.1529 L170.606832,37.1289 C170.606832,37.1289 171.232832,35.3799 169.632832,34.8689 C168.091832,34.3769 167.374832,35.7639 167.368832,35.7769 L167.367832,35.7779 L167.362832,35.7879 C166.941832,36.7419 166.213832,37.5549 165.259832,38.0239 C163.896832,38.6939 162.541832,38.7469 161.194832,38.1849 C160.397832,37.8509 159.761832,37.3649 159.282832,36.7229 L159.296832,36.6769 L170.021832,32.5289 C170.608832,32.3009 170.920832,31.6549 170.689832,31.0829 L170.676832,31.0489 C169.834832,28.9989 168.374832,27.5409 166.294832,26.6719 C164.215832,25.8029 162.119832,25.7769 160.008832,26.5949 L160.008832,26.5949 Z M165.909832,30.4419 L158.450832,33.3269 L158.407832,33.2949 C158.451832,33.0199 158.524832,32.7449 158.629832,32.4669 C159.128832,31.1349 160.258832,30.0839 161.649832,29.6499 C162.738832,29.3099 163.822832,29.3649 164.902832,29.8159 C165.280832,29.9739 165.619832,30.1649 165.917832,30.3899 L165.909832,30.4419 Z" id="Fill-1" fill="#FFFFFF"></path>
                    <path d="M213.521832,26.0999 L213.435832,26.0999 C212.463832,26.0999 211.674832,26.8859 211.674832,27.8549 L211.674832,33.9369 C211.674832,35.1869 211.207832,36.4089 210.314832,37.2869 C209.558832,38.0319 208.668832,38.4579 207.646832,38.5649 C206.040832,38.7349 204.429832,38.0379 203.452832,36.7539 C202.859832,35.9749 202.562832,35.0729 202.562832,34.0489 L202.562832,27.7619 C202.562832,26.8439 201.816832,26.0999 200.895832,26.0999 C199.928832,26.0999 199.145832,26.8809 199.145832,27.8449 L199.145832,34.0489 C199.145832,36.2499 199.922832,38.1259 201.476832,39.6749 C203.031832,41.2249 204.912832,41.9999 207.118832,41.9999 C209.325832,41.9999 211.206832,41.2249 212.760832,39.6749 C214.314832,38.1259 215.091832,36.2499 215.091832,34.0489 L215.091832,27.6659 C215.091832,26.8009 214.388832,26.0999 213.521832,26.0999 L213.521832,26.0999 Z M151.476832,26.0149 L151.476832,26.0149 C150.780832,26.0149 150.144832,26.4029 149.835832,27.0159 L146.570832,34.9669 C146.497832,35.2009 146.257832,35.2499 146.138832,34.9879 L142.846832,27.0249 C142.539832,26.4069 141.901832,26.0149 141.202832,26.0149 L141.154832,26.0149 C139.794832,26.0149 138.909832,27.4239 139.517832,28.6219 L144.678832,41.0049 C145.353832,42.3319 147.277832,42.3319 147.952832,41.0049 L153.113832,28.6219 C153.721832,27.4239 152.836832,26.0149 151.476832,26.0149 L151.476832,26.0149 Z M229.888832,28.3569 L229.871832,28.3389 C228.354832,26.7799 226.521832,25.9999 224.369832,25.9999 C222.216832,25.9999 220.381832,26.7799 218.865832,28.3389 C217.349832,29.8989 216.591832,31.7859 216.591832,33.9989 L216.591832,40.3469 C216.591832,41.2589 217.310832,41.9999 218.197832,41.9999 C219.151832,41.9999 219.924832,41.2049 219.924832,40.2239 L219.924832,34.0269 C219.924832,32.8829 220.324832,31.7659 221.079832,30.9249 C222.084832,29.8059 223.342832,29.3149 224.852832,29.4509 C225.860832,29.5419 226.795832,30.0319 227.510832,30.7679 L227.528832,30.7859 C227.528832,30.7859 228.843832,32.0499 230.011832,30.8989 C231.304832,29.6259 229.888832,28.3569 229.888832,28.3569 L229.888832,28.3569 Z M180.261832,25.9999 C178.048832,25.9999 176.163832,26.7769 174.603832,28.3309 C173.045832,29.8849 172.266832,31.7649 172.266832,33.9709 L172.266832,40.2909 C172.266832,41.2039 173.008832,41.9439 173.924832,41.9439 C174.900832,41.9439 175.693832,41.1539 175.693832,40.1789 L175.693832,33.9709 C175.693832,32.5929 176.229832,31.4339 177.303832,30.4979 C178.006832,29.8839 178.897832,29.5049 179.828832,29.4329 C181.472832,29.3069 182.822832,29.8889 183.879832,31.1789 C184.516832,31.9579 184.831832,32.9499 184.831832,33.9539 L184.831832,39.9979 C184.831832,41.0729 185.704832,41.9439 186.782832,41.9439 C187.597832,41.9439 188.257832,41.2849 188.257832,40.4719 L188.257832,33.9709 C188.257832,31.7649 187.478832,29.8849 185.920832,28.3309 C184.361832,26.7769 182.475832,25.9999 180.261832,25.9999 L180.261832,25.9999 Z M193.276832,29.6769 L195.871832,29.6769 C196.851832,29.6769 197.645832,28.8759 197.645832,27.8889 C197.645832,26.9949 196.926832,26.2699 196.038832,26.2699 L193.276832,26.2699 C193.200832,26.2699 193.138832,26.2079 193.138832,26.1299 L193.138832,18.8559 C193.138832,17.8309 192.313832,16.9999 191.296832,16.9999 C190.446832,16.9999 189.757832,17.6939 189.757832,18.5509 L189.757832,34.2179 C189.757832,36.4189 190.526832,38.2939 192.064832,39.8429 C193.114832,40.9029 194.316832,41.5989 195.668832,41.9339 C196.673832,42.1829 197.645832,41.4199 197.645832,40.3779 C197.645832,39.5509 197.115832,38.8109 196.328832,38.5749 C195.681832,38.3819 195.095832,38.0369 194.572832,37.5409 C193.626832,36.6439 193.138832,35.3609 193.138832,34.0519 L193.138832,29.8159 C193.138832,29.7389 193.200832,29.6769 193.276832,29.6769 L193.276832,29.6769 Z M98.4758324,29.6769 L101.070832,29.6769 C102.050832,29.6769 102.844832,28.8759 102.844832,27.8889 C102.844832,26.9949 102.125832,26.2699 101.237832,26.2699 L98.4758324,26.2699 C98.3998324,26.2699 98.3378324,26.2079 98.3378324,26.1299 L98.3378324,18.8559 C98.3378324,17.8309 97.5128324,16.9999 96.4958324,16.9999 C95.6458324,16.9999 94.9568324,17.6939 94.9568324,18.5509 L94.9568324,34.2179 C94.9568324,36.4189 95.7258324,38.2939 97.2638324,39.8429 C98.3138324,40.9029 99.5158324,41.5989 100.867832,41.9339 C101.872832,42.1829 102.844832,41.4199 102.844832,40.3779 C102.844832,39.5509 102.314832,38.8109 101.527832,38.5749 C100.880832,38.3819 100.294832,38.0369 99.7718324,37.5409 C98.8258324,36.6439 98.3378324,35.3609 98.3378324,34.0519 L98.3378324,29.8159 C98.3378324,29.7389 98.3998324,29.6769 98.4758324,29.6769 L98.4758324,29.6769 Z M68.1598324,25.9999 C65.9898324,25.9999 64.1408324,26.7789 62.6118324,28.3359 C62.3898324,28.5619 62.1858324,28.7929 61.9988324,29.0309 C61.8128324,28.7929 61.6088324,28.5619 61.3868324,28.3359 C59.8588324,26.7789 58.0098324,25.9999 55.8398324,25.9999 C53.6698324,25.9999 51.8198324,26.7789 50.2928324,28.3359 C48.7638324,29.8929 47.9998324,31.7769 47.9998324,33.9879 L47.9998324,40.2519 C47.9998324,41.2049 48.7568324,41.9749 49.6908324,41.9749 C50.6128324,41.9749 51.3598324,41.2139 51.3598324,40.2749 L51.3598324,34.0629 C51.3598324,32.9179 51.7418324,31.7899 52.4998324,30.9439 C53.3638324,29.9799 54.4118324,29.4749 55.6468324,29.4269 C56.9978324,29.3749 58.3198324,29.9559 59.2178324,30.9879 C59.9528324,31.8339 60.3188324,32.8329 60.3188324,33.9879 L60.3188324,40.2519 C60.3188324,41.2039 61.0768324,41.9749 62.0118324,41.9749 C62.9328324,41.9749 63.6798324,41.2139 63.6798324,40.2769 L63.6798324,33.9879 C63.6798324,32.8329 64.0468324,31.8329 64.7818324,30.9879 C65.6798324,29.9559 67.0008324,29.3749 68.3528324,29.4269 C69.5888324,29.4749 70.6368324,29.9809 71.4998324,30.9459 C72.2568324,31.7919 72.6398324,32.9199 72.6398324,34.0649 L72.6398324,40.1959 C72.6398324,41.1789 73.4218324,41.9749 74.3868324,41.9749 C75.2778324,41.9749 75.9998324,41.2389 75.9998324,40.3319 L75.9998324,33.9879 C75.9998324,31.7769 75.2348324,29.8929 73.7068324,28.3359 C72.1788324,26.7789 70.3298324,25.9999 68.1598324,25.9999 L68.1598324,25.9999 Z M117.305832,41.4749 C117.089832,41.2569 116.901832,40.8439 116.901832,40.6019 C115.581832,41.5339 114.059832,41.9999 112.335832,41.9999 C110.123832,41.9999 108.238832,41.2279 106.681832,39.6829 C105.123832,38.1389 104.344832,36.2699 104.344832,34.0779 C104.344832,31.8849 105.123832,30.0159 106.681832,28.4709 C108.238832,26.9269 110.123832,26.1549 112.335832,26.1549 C114.546832,26.1549 116.431832,26.9269 117.988832,28.4709 C119.546832,30.0159 120.325832,31.8849 120.325832,34.0779 L120.325832,40.6019 C120.325832,40.8339 120.174832,41.2579 119.962832,41.4509 C119.222832,42.1219 117.852832,42.0249 117.305832,41.4749 L117.305832,41.4749 Z M115.342832,30.6709 C114.598832,30.0079 113.635832,29.6129 112.636832,29.5589 C111.144832,29.4779 109.899832,29.9889 108.900832,31.0929 C108.232832,31.8309 107.832832,32.7859 107.777832,33.7779 C107.695832,35.2579 108.211832,36.4939 109.326832,37.4849 C110.071832,38.1469 111.033832,38.5419 112.032832,38.5959 C113.525832,38.6769 114.771832,38.1659 115.770832,37.0609 C116.438832,36.3229 116.838832,35.3679 116.893832,34.3769 C116.974832,32.8969 116.458832,31.6599 115.342832,30.6709 L115.342832,30.6709 Z M136.108832,17.0309 C135.161832,17.0309 134.394832,17.7879 134.394832,18.7209 L134.394832,27.1069 C134.394832,27.3219 134.156832,27.4549 133.971832,27.3419 C132.751832,26.5999 131.368832,26.2279 129.823832,26.2279 C127.610832,26.2279 125.723832,26.9969 124.164832,28.5339 C122.604832,30.0709 121.825832,31.9309 121.825832,34.1139 C121.825832,36.2969 122.604832,38.1559 124.164832,39.6939 C125.723832,41.2319 127.610832,41.9999 129.823832,41.9999 C132.037832,41.9999 133.923832,41.2319 135.483832,39.6939 C137.043832,38.1559 137.822832,36.2969 137.822832,34.1139 L137.822832,18.7209 C137.822832,17.7879 137.055832,17.0309 136.108832,17.0309 L136.108832,17.0309 Z M134.374832,34.5619 C134.291832,35.4689 133.954832,36.2719 133.362832,36.9699 C132.390832,38.1159 130.878832,38.7339 129.369832,38.6009 C128.451832,38.5199 127.638832,38.1869 126.930832,37.6049 C125.765832,36.6469 125.137832,35.1549 125.273832,33.6649 C125.355832,32.7599 125.692832,31.9579 126.284832,31.2589 C127.256832,30.1119 128.769832,29.4939 130.278832,29.6269 C131.197832,29.7089 132.010832,30.0409 132.719832,30.6249 C133.882832,31.5819 134.509832,33.0739 134.374832,34.5619 L134.374832,34.5619 Z M237.256832,26.5949 C235.145832,27.4109 233.641832,28.8289 232.747832,30.8479 C231.853832,32.8669 231.826832,34.9009 232.668832,36.9509 C233.509832,39.0009 234.968832,40.4609 237.049832,41.3289 C239.128832,42.1979 241.223832,42.2229 243.334832,41.4059 C245.446832,40.5889 246.949832,39.1719 247.843832,37.1529 L247.853832,37.1289 C247.853832,37.1289 248.479832,35.3799 246.879832,34.8689 C245.339832,34.3769 244.622832,35.7639 244.615832,35.7769 L244.615832,35.7779 L244.610832,35.7879 C244.188832,36.7419 243.461832,37.5549 242.506832,38.0239 C241.143832,38.6939 239.788832,38.7469 238.442832,38.1849 C237.645832,37.8509 237.008832,37.3649 236.530832,36.7229 L236.544832,36.6769 L247.268832,32.5289 C247.856832,32.3009 248.167832,31.6549 247.937832,31.0829 L247.923832,31.0489 C247.082832,28.9989 245.622832,27.5409 243.542832,26.6719 C241.462832,25.8029 239.367832,25.7769 237.256832,26.5949 L237.256832,26.5949 Z M243.157832,30.4419 L235.697832,33.3269 L235.655832,33.2949 C235.699832,33.0199 235.772832,32.7449 235.876832,32.4669 C236.376832,31.1349 237.506832,30.0839 238.896832,29.6499 C239.985832,29.3099 241.070832,29.3649 242.149832,29.8159 C242.527832,29.9739 242.866832,30.1649 243.165832,30.3899 L243.157832,30.4419 Z M82.6998324,26.5949 C80.5888324,27.4109 79.0858324,28.8289 78.1918324,30.8479 C77.2968324,32.8669 77.2698324,34.9009 78.1118324,36.9509 C78.9528324,39.0009 80.4128324,40.4609 82.4928324,41.3289 C84.5718324,42.1979 86.6668324,42.2229 88.7788324,41.4059 C90.8898324,40.5889 92.3928324,39.1719 93.2878324,37.1529 L93.2968324,37.1289 C93.2968324,37.1289 93.9238324,35.3799 92.3238324,34.8689 C90.7828324,34.3769 90.0658324,35.7639 90.0588324,35.7769 L90.0588324,35.7779 L90.0538324,35.7879 C89.6318324,36.7419 88.9048324,37.5549 87.9508324,38.0239 C86.5878324,38.6939 85.2328324,38.7469 83.8858324,38.1849 C83.0888324,37.8509 82.4518324,37.3649 81.9738324,36.7229 L81.9878324,36.6769 L92.7118324,32.5289 C93.2998324,32.3009 93.6118324,31.6549 93.3808324,31.0829 L93.3668324,31.0489 C92.5258324,28.9989 91.0658324,27.5409 88.9858324,26.6719 C86.9058324,25.8029 84.8108324,25.7769 82.6998324,26.5949 L82.6998324,26.5949 Z M88.6008324,30.4419 L81.1418324,33.3269 L81.0988324,33.2949 C81.1428324,33.0199 81.2158324,32.7449 81.3208324,32.4669 C81.8198324,31.1349 82.9498324,30.0839 84.3398324,29.6499 C85.4298324,29.3099 86.5138324,29.3649 87.5928324,29.8159 C87.9718324,29.9739 88.3098324,30.1649 88.6088324,30.3899 L88.6008324,30.4419 Z M160.008832,26.5949 C157.897832,27.4109 156.394832,28.8289 155.500832,30.8479 C154.605832,32.8669 154.578832,34.9009 155.420832,36.9509 C156.261832,39.0009 157.721832,40.4609 159.801832,41.3289 C161.880832,42.1979 163.976832,42.2229 166.087832,41.4059 C168.198832,40.5889 169.701832,39.1719 170.596832,37.1529 L170.606832,37.1289 C170.606832,37.1289 171.232832,35.3799 169.632832,34.8689 C168.091832,34.3769 167.374832,35.7639 167.368832,35.7769 L167.367832,35.7779 L167.362832,35.7879 C166.941832,36.7419 166.213832,37.5549 165.259832,38.0239 C163.896832,38.6939 162.541832,38.7469 161.194832,38.1849 C160.397832,37.8509 159.761832,37.3649 159.282832,36.7229 L159.296832,36.6769 L170.021832,32.5289 C170.608832,32.3009 170.920832,31.6549 170.689832,31.0829 L170.676832,31.0489 C169.834832,28.9989 168.374832,27.5409 166.294832,26.6719 C164.215832,25.8029 162.119832,25.7769 160.008832,26.5949 L160.008832,26.5949 Z M165.909832,30.4419 L158.450832,33.3269 L158.407832,33.2949 C158.451832,33.0199 158.524832,32.7449 158.629832,32.4669 C159.128832,31.1349 160.258832,30.0839 161.649832,29.6499 C162.738832,29.3099 163.822832,29.3649 164.902832,29.8159 C165.280832,29.9739 165.619832,30.1649 165.917832,30.3899 L165.909832,30.4419 Z" id="Fill-3" fill="#FFFFFF"></path>
                    <g id="Group-7">
                        <mask id="mask-2" fill="white">
                            <use xlink:href="#path-1"></use>
                        </mask>
                        <g id="Clip-6"></g>
                        <path d="M20.5889324,3.2717 C23.7049324,1.5167 24.7229324,2.1807 25.1699324,3.0887 C25.6169324,3.9977 24.2929324,5.5507 22.2109324,6.5587 C20.6109324,7.3347 19.0289324,7.5627 18.1789324,7.2137 C18.1259324,7.1947 18.0669324,7.2047 18.0249324,7.2427 L14.3979324,10.4847 C14.3539324,10.5237 14.3379324,10.5857 14.3569324,10.6417 C14.6369324,11.5107 14.4999324,12.6777 13.9689324,13.8577 C13.9389324,13.9237 13.9369324,13.9987 13.9629324,14.0657 C13.9899324,14.1337 14.0429324,14.1867 14.1109324,14.2157 L17.7829324,15.7317 L17.8529324,15.7607 C17.9269324,15.7907 18.0119324,15.7577 18.0459324,15.6867 C18.9019324,13.9987 20.7189324,13.0067 22.6169324,13.1917 C22.6929324,13.2007 22.7639324,13.1507 22.7799324,13.0757 L23.0889324,11.6267 C23.0969324,11.5867 23.0889324,11.5447 23.0649324,11.5107 C23.0409324,11.4767 23.0039324,11.4547 22.9629324,11.4487 C22.0709324,11.3307 21.3999324,10.9147 21.2549324,10.2987 C21.0299324,9.3427 22.1539324,8.2687 23.7709324,7.8977 C25.0769324,7.6007 26.3019324,7.8517 26.8389324,8.4667 C26.8769324,8.5077 26.9349324,8.5247 26.9889324,8.5097 L31.2059324,7.3077 C31.2459324,7.2957 31.2789324,7.2677 31.2979324,7.2307 C31.3159324,7.1927 31.3179324,7.1497 31.3029324,7.1107 C31.2329324,6.9437 31.2069324,6.7617 31.2279324,6.5817 C31.3389324,5.6807 32.6609324,5.0967 34.1809324,5.2837 C35.6999324,5.4707 36.8429324,6.3457 36.7329324,7.2457 C36.6229324,8.1467 35.2999324,8.7317 33.7799324,8.5437 C33.0779324,8.4597 32.4559324,8.2267 32.0019324,7.9117 C31.9649324,7.8857 31.9179324,7.8777 31.8739324,7.8897 L27.2199324,9.2167 C27.1629324,9.2337 27.1209324,9.2817 27.1129324,9.3397 C27.0139324,10.1857 25.9809324,11.0377 24.5789324,11.3617 C24.4609324,11.3887 24.3429324,11.4117 24.2259324,11.4297 C24.1649324,11.4397 24.1159324,11.4857 24.1029324,11.5457 L23.6989324,13.4367 C25.9859324,14.2397 27.2539324,16.6617 26.5979324,18.9767 C25.9409324,21.2917 23.5859324,22.7057 21.2119324,22.2107 C18.8369324,21.7157 17.2569324,19.4817 17.5969324,17.1007 C17.6139324,16.9837 17.5489324,16.8707 17.4389324,16.8257 L13.4559324,15.1487 C13.3509324,15.1047 13.2299324,15.1387 13.1629324,15.2297 C11.5839324,17.3877 9.23393236,18.3687 7.91693236,17.4207 C6.59993236,16.4737 6.80593236,13.9607 8.38493236,11.8017 C9.96293236,9.6427 12.3129324,8.6617 13.6299324,9.6107 C13.7239324,9.6777 13.8119324,9.7537 13.8909324,9.8387 C13.9469324,9.8967 14.0399324,9.9007 14.0999324,9.8477 L17.4199324,6.8767 C17.5299324,6.7777 17.5699324,6.6227 17.5219324,6.4837 C17.2619324,5.6737 17.7669324,4.8607 20.5879324,3.2717 L20.5889324,3.2717 Z M30.4809324,1.9867 C30.5449324,0.7747 32.4729324,-0.1093 34.7879324,0.0107 C37.1019324,0.1317 38.9259324,1.2107 38.8619324,2.4217 C38.8619324,2.4407 38.8619324,2.4597 38.8579324,2.4787 L44.6339324,3.4897 C44.6929324,3.4997 44.7519324,3.4737 44.7839324,3.4237 C44.8459324,3.3327 44.9139324,3.2467 44.9879324,3.1647 C46.1409324,1.8967 48.4959324,2.1367 50.2489324,3.6997 C51.1409324,4.4967 51.7049324,5.4827 51.8919324,6.4237 C51.9089324,6.5007 51.9559324,6.5667 52.0229324,6.6087 L56.3529324,9.3807 C56.3929324,9.4057 56.4389324,9.4207 56.4859324,9.4247 C57.3849324,9.5087 58.5439324,10.1357 59.5459324,11.1637 C61.0559324,12.7137 61.6359324,14.5857 60.8419324,15.3467 C60.0479324,16.1067 58.1799324,15.4657 56.6699324,13.9167 C55.1709324,12.3827 54.5909324,10.5317 55.3509324,9.7587 L55.3569324,9.7527 L52.1169324,7.6807 C52.0759324,7.6557 52.0249324,7.6517 51.9809324,7.6697 C51.9359324,7.6877 51.9029324,7.7267 51.8919324,7.7737 C51.8059324,8.1477 51.6289324,8.4967 51.3769324,8.7887 L51.3439324,8.8267 C50.8779324,9.3397 50.2139324,9.6067 49.4699324,9.6387 C49.3909324,9.6437 49.3289324,9.7087 49.3289324,9.7867 L49.3289324,14.0547 C49.3289324,14.1367 49.3959324,14.2037 49.4789324,14.2037 C51.0799324,14.2627 52.5079324,15.2167 53.1639324,16.6647 C54.1109324,18.7737 53.1279324,21.2547 50.9679324,22.2087 C49.6359324,22.8007 48.0919324,22.6817 46.8679324,21.8927 C46.8179324,21.8597 46.7519324,21.8597 46.7019324,21.8927 L42.1219324,24.9507 C42.0609324,24.9907 42.0389324,25.0687 42.0689324,25.1347 C42.5889324,26.3467 42.3069324,27.7717 41.2749324,28.6297 C40.0009324,29.6907 38.0589324,29.4817 36.9409324,28.1617 C36.1999324,27.3007 35.9839324,26.1117 36.3749324,25.0487 C36.3989324,24.9847 36.3759324,24.9117 36.3179324,24.8727 L34.8459324,23.9257 C34.7859324,23.8867 34.7049324,23.8967 34.6569324,23.9507 C34.6409324,23.9687 34.6249324,23.9867 34.6079324,24.0037 C33.4219324,25.2667 31.4149324,25.3187 30.1249324,24.1267 C28.8339324,22.9347 28.7499324,20.9457 29.9349324,19.6857 C31.1209324,18.4257 33.1279324,18.3717 34.4179324,19.5637 C35.3069324,20.3797 35.6549324,21.6217 35.3169324,22.7747 C35.2989324,22.8367 35.3229324,22.9027 35.3769324,22.9387 L36.9509324,23.9517 C37.0089324,23.9887 37.0859324,23.9817 37.1359324,23.9347 C37.1669324,23.9057 37.1989324,23.8787 37.2309324,23.8517 C38.4059324,22.8747 40.1439324,22.9747 41.2849324,24.0267 C41.3349324,24.0747 41.4129324,24.0817 41.4719324,24.0427 L45.7969324,21.1527 C45.8309324,21.1297 45.8539324,21.0947 45.8609324,21.0547 C45.8679324,21.0147 45.8579324,20.9737 45.8329324,20.9407 C45.6359324,20.6857 45.4699324,20.4087 45.3369324,20.1147 C44.3899324,18.0057 45.3729324,15.5247 47.5329324,14.5717 C47.7419324,14.4787 47.9589324,14.4027 48.1809324,14.3437 C48.2469324,14.3267 48.2929324,14.2677 48.2929324,14.2007 L48.2929324,9.6187 C48.2929324,9.5517 48.2479324,9.4937 48.1829324,9.4757 C47.5059324,9.2757 46.8749324,8.9447 46.3269324,8.5027 C46.2749324,8.4607 46.1999324,8.4577 46.1449324,8.4977 L42.0699324,11.4317 C42.0109324,11.4737 41.9909324,11.5517 42.0239324,11.6167 C42.6289324,12.8727 42.4129324,14.3667 41.4769324,15.4037 C40.1889324,16.8217 37.9679324,16.9207 36.5159324,15.6267 C35.0649324,14.3337 34.9309324,12.1367 36.2169324,10.7157 C37.5019324,9.2937 39.7249324,9.1987 41.1769324,10.4927 L41.2109324,10.5227 C41.2629324,10.5707 41.3419324,10.5757 41.3999324,10.5347 L45.3129324,7.7167 C45.3449324,7.6937 45.3669324,7.6587 45.3729324,7.6187 C45.3789324,7.5797 45.3689324,7.5397 45.3449324,7.5077 C44.5649324,6.4957 44.2299324,5.3297 44.4099324,4.3527 C44.4229324,4.2727 44.3689324,4.1967 44.2879324,4.1817 L38.6399324,3.1927 C38.5869324,3.1837 38.5339324,3.2037 38.4989324,3.2447 C37.8249324,4.0057 36.3009324,4.4867 34.5549324,4.3957 C32.2409324,4.2767 30.4159324,3.1977 30.4809324,1.9867 L30.4809324,1.9867 Z M3.78793236,21.9417 C4.56293236,19.7137 5.98093236,18.1747 6.95493236,18.5067 C7.87293236,18.8197 8.06993236,20.6807 7.44293236,22.7577 C7.42293236,22.8257 7.45393236,22.8987 7.51793236,22.9307 L11.9389324,24.9727 C12.0049324,25.0017 12.0829324,24.9797 12.1229324,24.9207 C12.2479324,24.7357 12.3879324,24.5627 12.5409324,24.4007 C14.1259324,22.7167 16.8129324,22.6427 18.5359324,24.2377 C20.2599324,25.8317 20.3749324,28.4897 18.7899324,30.1737 C18.1099324,30.8987 17.1879324,31.3557 16.1949324,31.4607 C16.1269324,31.4687 16.0739324,31.5207 16.0639324,31.5877 L15.7579324,34.0607 C15.7499324,34.1317 15.7939324,34.1977 15.8629324,34.2187 C16.4899324,34.4027 17.0719324,34.7137 17.5729324,35.1317 C19.5709324,36.7917 19.8509324,39.7197 18.1999324,41.6667 C16.8509324,43.2557 14.6399324,43.7057 12.7859324,42.9187 C12.7289324,42.8947 12.6619324,42.9087 12.6189324,42.9537 L9.06693236,46.8577 C9.02193236,46.9087 9.01793236,46.9837 9.05693236,47.0387 C10.6919324,49.2947 10.9249324,51.8997 9.55693236,52.9207 C8.15693236,53.9657 5.60793236,52.9547 3.86193236,50.6627 C2.29193236,48.5977 1.91393236,46.1977 2.87193236,44.9767 C2.89793236,44.9437 2.90893236,44.9007 2.90093236,44.8587 L2.04893236,40.4897 C2.04193236,40.4557 2.02293236,40.4247 1.99493236,40.4037 C1.13393236,39.7287 0.363932359,37.9457 0.0959323587,35.7767 C-0.257067641,32.9277 0.394932359,30.5047 1.54593236,30.3637 C2.69693236,30.2227 3.92193236,32.4187 4.27493236,35.2727 C4.62393236,38.0947 3.99193236,40.4967 2.85893236,40.6807 L2.84993236,40.6807 L3.54893236,44.2457 C3.55893236,44.2867 3.58593236,44.3217 3.62393236,44.3417 C3.66193236,44.3617 3.70693236,44.3647 3.74693236,44.3497 C4.96393236,43.8977 6.70493236,44.5487 8.15093236,45.9777 C8.17993236,46.0057 8.21793236,46.0207 8.25793236,46.0197 C8.29893236,46.0197 8.33693236,46.0027 8.36393236,45.9737 L11.6109324,42.4017 C11.6629324,42.3397 11.6559324,42.2467 11.5939324,42.1937 C9.59693236,40.5327 9.31593236,37.6057 10.9679324,35.6587 C11.8439324,34.6237 13.1359324,34.0257 14.4999324,34.0257 C14.5739324,34.0257 14.6389324,33.9717 14.6489324,33.8987 L14.9399324,31.5507 C14.9479324,31.4757 14.8979324,31.4067 14.8239324,31.3907 C13.6819324,31.1427 12.6909324,30.4467 12.0769324,29.4617 C11.4629324,28.4757 11.2779324,27.2857 11.5659324,26.1637 C11.5829324,26.0957 11.5499324,26.0247 11.4869324,25.9937 L7.14293236,23.9857 C7.06793236,23.9537 6.98193236,23.9867 6.94793236,24.0597 C6.14493236,25.7777 4.98493236,26.8657 4.14993236,26.5847 C3.17493236,26.2487 3.01293236,24.1717 3.78793236,21.9417 L3.78793236,21.9417 Z M46.5819324,47.5437 C47.6159324,46.1337 50.1239324,46.1937 52.1829324,47.6757 C53.9809324,48.9687 54.8419324,50.9197 54.3449324,52.3327 C54.2759324,52.5297 54.3399324,52.7487 54.5039324,52.8797 L56.5779324,54.5437 C56.7509324,54.6827 56.9949324,54.6907 57.1779324,54.5647 C58.7779324,53.4287 60.6689324,53.3127 61.5479324,54.3507 C62.4919324,55.4647 61.9079324,57.4917 60.2439324,58.8757 C58.5949324,60.2457 56.5069324,60.4737 55.5489324,59.3957 L55.5229324,59.3657 L50.1189324,62.2137 C49.9399324,62.3077 49.8359324,62.4997 49.8559324,62.6997 C50.0619324,64.7487 48.4939324,66.8387 46.0519324,67.6137 L45.9689324,67.6397 C43.4829324,68.3927 40.9619324,67.5327 39.9629324,65.7047 C39.8689324,65.5347 39.6839324,65.4357 39.4889324,65.4497 L37.5219324,65.5857 C37.3419324,65.5997 37.1829324,65.7077 37.1059324,65.8687 C36.2109324,67.6877 33.4339324,68.1707 30.9059324,66.9477 C28.3769324,65.7247 27.0519324,63.2617 27.9519324,61.4427 C28.8509324,59.6247 31.6239324,59.1407 34.1519324,60.3647 C35.8949324,61.2067 37.0659324,62.6397 37.3329324,64.0437 C37.3809324,64.2897 37.6059324,64.4617 37.8579324,64.4457 L39.0609324,64.3617 C39.3179324,64.3447 39.5199324,64.1367 39.5269324,63.8817 C39.5619324,62.5357 40.3339324,61.2157 41.5879324,60.3067 C41.7779324,60.1677 41.8439324,59.9177 41.7479324,59.7047 L40.2809324,56.4377 C40.1939324,56.2467 39.9979324,56.1297 39.7869324,56.1437 C38.8379324,56.2027 37.9029324,55.8867 37.1859324,55.2667 C35.6879324,53.9747 35.5119324,51.7417 36.7969324,50.2777 C38.0809324,48.8137 40.3369324,48.6747 41.8359324,49.9667 C43.3359324,51.2587 43.5099324,53.4917 42.2259324,54.9547 C42.0279324,55.1817 41.8009324,55.3807 41.5509324,55.5497 C41.3539324,55.6847 41.2819324,55.9417 41.3809324,56.1587 L42.7299324,59.1557 C42.8329324,59.3877 43.0969324,59.5047 43.3409324,59.4267 L43.4289324,59.3997 C45.8399324,58.6697 48.2849324,59.4557 49.3409324,61.1717 C49.4799324,61.3957 49.7699324,61.4747 50.0039324,61.3507 L54.8299324,58.8087 C55.0099324,58.7117 55.1109324,58.5147 55.0859324,58.3127 C54.9949324,57.4967 55.3279324,56.5307 56.0099324,55.6707 C56.1779324,55.4577 56.1419324,55.1507 55.9289324,54.9807 L54.0639324,53.4837 C53.8909324,53.3467 53.6479324,53.3367 53.4639324,53.4607 C52.2449324,54.2737 50.1809324,54.0377 48.4379324,52.7837 C46.3799324,51.2997 45.5489324,48.9547 46.5819324,47.5437 L46.5819324,47.5437 Z M26.1379324,29.5167 C27.9189324,28.0367 30.5909324,28.2877 32.1079324,30.0787 C33.6249324,31.8697 33.4099324,34.5207 31.6299324,36.0017 L31.5729324,36.0467 L35.0709324,39.3927 C35.1849324,39.4997 35.3569324,39.5187 35.4919324,39.4377 C37.0519324,38.5237 39.1109324,38.8507 40.3309324,40.2927 C41.6889324,41.8957 41.4969324,44.2677 39.9039324,45.5917 C38.3119324,46.9157 35.9199324,46.6917 34.5629324,45.0887 C33.4729324,43.8127 33.3569324,41.9787 34.2789324,40.5787 C34.3729324,40.4417 34.3549324,40.2577 34.2359324,40.1417 L30.7359324,36.7927 C30.6419324,36.7017 30.5029324,36.6737 30.3789324,36.7187 C29.9519324,36.8717 29.5029324,36.9547 29.0489324,36.9657 C28.8849324,36.9677 28.7449324,37.0837 28.7129324,37.2427 L26.8809324,46.5787 C26.8499324,46.7377 26.9349324,46.8957 27.0849324,46.9587 C27.7619324,47.2497 28.3769324,47.6647 28.8979324,48.1817 C31.1519324,50.4147 31.1789324,54.0087 28.9579324,56.2077 C26.7379324,58.4077 23.1129324,58.3817 20.8589324,56.1487 C20.7249324,56.0167 20.5989324,55.8787 20.4839324,55.7377 C20.3809324,55.6127 20.2039324,55.5767 20.0589324,55.6497 L17.9609324,56.7077 C17.8759324,56.7507 17.8129324,56.8277 17.7879324,56.9187 C17.7619324,57.0097 17.7759324,57.1077 17.8269324,57.1877 C18.9149324,58.9597 19.0059324,60.9097 17.9019324,62.0027 C17.8259324,62.0787 17.7449324,62.1487 17.6599324,62.2137 C17.5699324,62.2847 17.5199324,62.3957 17.5289324,62.5107 C17.5379324,62.6257 17.6039324,62.7277 17.7049324,62.7847 L20.9359324,64.6337 C21.0429324,64.6957 21.1759324,64.6957 21.2829324,64.6337 C21.8039324,64.3307 22.6419324,64.2057 23.5999324,64.2977 L23.6879324,64.3067 C23.7779324,64.3167 23.8679324,64.3277 23.9599324,64.3417 L24.0509324,64.3557 L24.0969324,64.3627 L24.1889324,64.3797 L24.2349324,64.3877 L24.3279324,64.4057 C24.4359324,64.4277 24.5459324,64.4517 24.6559324,64.4807 C26.5829324,64.9567 27.9599324,66.0827 27.7279324,66.9967 C27.4969324,67.9097 25.7499324,68.2647 23.8219324,67.7887 L23.7759324,67.7767 L23.6849324,67.7527 L23.5939324,67.7287 C22.9629324,67.5587 22.3619324,67.2927 21.8119324,66.9407 L21.7509324,66.8987 C21.3139324,66.6017 20.9939324,66.2667 20.8359324,65.9337 C20.8059324,65.8717 20.7579324,65.8197 20.6979324,65.7847 L15.4739324,62.7967 C15.4339324,62.7737 15.3879324,62.7597 15.3419324,62.7537 C14.1229324,62.6147 12.7759324,61.9557 11.6529324,60.8427 C9.60493236,58.8127 9.07993236,56.0407 10.4819324,54.6547 C11.8839324,53.2677 14.6789324,53.7847 16.7289324,55.8147 C16.8349324,55.9197 16.9979324,55.9457 17.1309324,55.8787 L19.4299324,54.7177 C19.5919324,54.6347 19.6619324,54.4427 19.5919324,54.2777 C18.7339324,52.2157 19.1289324,49.7757 20.7979324,48.1197 C22.0479324,46.8837 23.8099324,46.2987 25.5589324,46.5377 C25.7419324,46.5637 25.9129324,46.4437 25.9489324,46.2637 L27.7479324,37.1097 C27.7809324,36.9437 27.6879324,36.7787 27.5279324,36.7217 C26.8009324,36.4667 26.1569324,36.0227 25.6619324,35.4367 C24.1439324,33.6487 24.3549324,30.9967 26.1379324,29.5167 L26.1379324,29.5167 Z" id="Fill-5" fill="#0EA4D4" mask="url(#mask-2)"></path>
                    </g>
                </g>
                <g id="Group-11">
                    <mask id="mask-4" fill="white">
                        <use xlink:href="#path-3"></use>
                    </mask>
                    <g id="Clip-10"></g>
                    <path d="M30.4808432,1.986 C30.4158432,3.198 32.2418432,4.277 34.5548432,4.396 L34.5548432,4.396 C36.3008432,4.486 37.8248432,4.005 38.4988432,3.244 L38.4988432,3.244 C38.5338432,3.204 38.5878432,3.184 38.6408432,3.193 L38.6408432,3.193 L44.2878432,4.182 C44.3688432,4.196 44.4228432,4.273 44.4098432,4.353 L44.4098432,4.353 C44.2298432,5.33 44.5648432,6.495 45.3448432,7.508 L45.3448432,7.508 C45.3688432,7.54 45.3788432,7.58 45.3728432,7.619 L45.3728432,7.619 C45.3668432,7.659 45.3458432,7.694 45.3128432,7.717 L45.3128432,7.717 L41.3998432,10.534 C41.3418432,10.576 41.2628432,10.571 41.2108432,10.523 L41.2108432,10.523 L41.1768432,10.493 C39.7248432,9.199 37.5018432,9.294 36.2168432,10.715 L36.2168432,10.715 C34.9318432,12.137 35.0648432,14.333 36.5168432,15.627 L36.5168432,15.627 C37.9678432,16.921 40.1888432,16.822 41.4768432,15.404 L41.4768432,15.404 C42.4128432,14.366 42.6288432,12.873 42.0238432,11.617 L42.0238432,11.617 C41.9908432,11.552 42.0108432,11.474 42.0698432,11.431 L42.0698432,11.431 L46.1458432,8.497 C46.2008432,8.458 46.2748432,8.46 46.3268432,8.503 L46.3268432,8.503 C46.8758432,8.945 47.5068432,9.276 48.1828432,9.476 L48.1828432,9.476 C48.2478432,9.494 48.2928432,9.552 48.2928432,9.619 L48.2928432,9.619 L48.2928432,14.201 C48.2928432,14.268 48.2458432,14.327 48.1808432,14.344 L48.1808432,14.344 C47.9588432,14.402 47.7418432,14.479 47.5338432,14.572 L47.5338432,14.572 C45.3738432,15.525 44.3908432,18.006 45.3378432,20.115 L45.3378432,20.115 C45.4698432,20.408 45.6358432,20.685 45.8328432,20.941 L45.8328432,20.941 C45.8578432,20.973 45.8678432,21.015 45.8608432,21.054 L45.8608432,21.054 C45.8538432,21.095 45.8308432,21.13 45.7968432,21.152 L45.7968432,21.152 L41.4718432,24.042 C41.4128432,24.082 41.3358432,24.075 41.2848432,24.026 L41.2848432,24.026 C40.1448432,22.975 38.4068432,22.875 37.2308432,23.851 L37.2308432,23.851 C37.1998432,23.878 37.1668432,23.906 37.1368432,23.934 L37.1368432,23.934 C37.0858432,23.982 37.0098432,23.989 36.9508432,23.951 L36.9508432,23.951 L35.3768432,22.939 C35.3228432,22.903 35.2988432,22.836 35.3178432,22.774 L35.3178432,22.774 C35.6538432,21.622 35.3068432,20.379 34.4188432,19.564 L34.4188432,19.564 C33.1278432,18.371 31.1208432,18.425 29.9358432,19.686 L29.9358432,19.686 C28.7498432,20.946 28.8348432,22.934 30.1248432,24.127 L30.1248432,24.127 C31.4148432,25.318 33.4218432,25.266 34.6078432,24.004 L34.6078432,24.004 C34.6248432,23.986 34.6408432,23.968 34.6568432,23.95 L34.6568432,23.95 C34.7058432,23.897 34.7858432,23.886 34.8458432,23.926 L34.8458432,23.926 L36.3178432,24.873 C36.3758432,24.912 36.3998432,24.984 36.3748432,25.048 L36.3748432,25.048 C35.9838432,26.112 36.2008432,27.301 36.9408432,28.161 L36.9408432,28.161 C38.0588432,29.482 40.0008432,29.691 41.2748432,28.63 L41.2748432,28.63 C42.3068432,27.772 42.5888432,26.347 42.0688432,25.135 L42.0688432,25.135 C42.0388432,25.069 42.0618432,24.991 42.1218432,24.951 L42.1218432,24.951 L46.7018432,21.893 C46.7518432,21.86 46.8178432,21.86 46.8678432,21.893 L46.8678432,21.893 C48.0918432,22.681 49.6368432,22.801 50.9688432,22.208 L50.9688432,22.208 C53.1278432,21.255 54.1118432,18.774 53.1638432,16.665 L53.1638432,16.665 C52.5078432,15.217 51.0798432,14.263 49.4788432,14.203 L49.4788432,14.203 C49.3958432,14.203 49.3298432,14.137 49.3298432,14.055 L49.3298432,14.055 L49.3298432,9.787 C49.3288432,9.709 49.3908432,9.643 49.4698432,9.639 L49.4698432,9.639 C50.2148432,9.607 50.8778432,9.34 51.3438432,8.827 L51.3438432,8.827 L51.3768432,8.789 C51.6288432,8.496 51.8068432,8.148 51.8918432,7.773 L51.8918432,7.773 C51.9028432,7.727 51.9358432,7.688 51.9798432,7.669 L51.9798432,7.669 C52.0248432,7.651 52.0758432,7.655 52.1168432,7.68 L52.1168432,7.68 L55.3568432,9.752 L55.3508432,9.758 C54.5908432,10.532 55.1718432,12.383 56.6698432,13.916 L56.6698432,13.916 C58.1798432,15.466 60.0478432,16.107 60.8428432,15.346 L60.8428432,15.346 C61.6368432,14.586 61.0558432,12.714 59.5458432,11.164 L59.5458432,11.164 C58.5448432,10.136 57.3858432,9.509 56.4858432,9.424 L56.4858432,9.424 C56.4388432,9.421 56.3928432,9.406 56.3538432,9.38 L56.3538432,9.38 L52.0228432,6.609 C51.9558432,6.567 51.9088432,6.5 51.8918432,6.424 L51.8918432,6.424 C51.7048432,5.482 51.1408432,4.496 50.2488432,3.7 L50.2488432,3.7 C48.4968432,2.136 46.1408432,1.897 44.9878432,3.165 L44.9878432,3.165 C44.9148432,3.246 44.8458432,3.333 44.7848432,3.424 L44.7848432,3.424 C44.7528432,3.474 44.6928432,3.5 44.6348432,3.49 L44.6348432,3.49 L38.8578432,2.478 C38.8618432,2.46 38.8618432,2.44 38.8618432,2.421 L38.8618432,2.421 C38.9268432,1.21 37.1028432,0.131 34.7878432,0.011 L34.7878432,0.011 C34.6458432,0.004 34.5058432,0 34.3668432,0 L34.3668432,0 C32.2438432,0 30.5408432,0.85 30.4808432,1.986 M20.5888432,3.272 L20.5878432,3.272 C17.7668432,4.861 17.2618432,5.673 17.5218432,6.483 L17.5218432,6.483 C17.5698432,6.623 17.5298432,6.777 17.4198432,6.876 L17.4198432,6.876 L14.0998432,9.847 C14.0398432,9.901 13.9468432,9.897 13.8908432,9.838 L13.8908432,9.838 C13.8118432,9.754 13.7248432,9.678 13.6308432,9.611 L13.6308432,9.611 C12.3128432,8.662 9.96384318,9.643 8.38384318,11.802 L8.38384318,11.802 C6.80584318,13.96 6.59984318,16.473 7.91684318,17.421 L7.91684318,17.421 C9.23484318,18.369 11.5838432,17.388 13.1628432,15.229 L13.1628432,15.229 C13.2298432,15.139 13.3518432,15.104 13.4568432,15.148 L13.4568432,15.148 L17.4388432,16.825 C17.5498432,16.871 17.6148432,16.984 17.5978432,17.1 L17.5978432,17.1 C17.2578432,19.482 18.8378432,21.716 21.2118432,22.211 L21.2118432,22.211 C23.5858432,22.706 25.9418432,21.292 26.5978432,18.977 L26.5978432,18.977 C27.2538432,16.662 25.9868432,14.239 23.6988432,13.437 L23.6988432,13.437 L24.1028432,11.546 C24.1158432,11.485 24.1648432,11.439 24.2268432,11.43 L24.2268432,11.43 C24.3428432,11.412 24.4608432,11.389 24.5798432,11.361 L24.5798432,11.361 C25.9808432,11.038 27.0138432,10.186 27.1128432,9.34 L27.1128432,9.34 C27.1208432,9.282 27.1628432,9.234 27.2198432,9.216 L27.2198432,9.216 L31.8738432,7.89 C31.9178432,7.877 31.9648432,7.885 32.0018432,7.911 L32.0018432,7.911 C32.4568432,8.227 33.0788432,8.46 33.7798432,8.544 L33.7798432,8.544 C35.3008432,8.731 36.6228432,8.146 36.7338432,7.246 L36.7338432,7.246 C36.8428432,6.345 35.6998432,5.471 34.1808432,5.283 L34.1808432,5.283 C32.6608432,5.096 31.3388432,5.68 31.2278432,6.581 L31.2278432,6.581 C31.2078432,6.761 31.2328432,6.944 31.3028432,7.111 L31.3028432,7.111 C31.3178432,7.15 31.3158432,7.193 31.2978432,7.23 L31.2978432,7.23 C31.2788432,7.268 31.2458432,7.296 31.2058432,7.308 L31.2058432,7.308 L26.9888432,8.51 C26.9348432,8.524 26.8768432,8.508 26.8388432,8.467 L26.8388432,8.467 C26.3028432,7.851 25.0778432,7.6 23.7708432,7.897 L23.7708432,7.897 C22.1538432,8.269 21.0298432,9.343 21.2548432,10.299 L21.2548432,10.299 C21.3998432,10.915 22.0718432,11.331 22.9638432,11.449 L22.9638432,11.449 C23.0038432,11.455 23.0408432,11.477 23.0648432,11.511 L23.0648432,11.511 C23.0888432,11.545 23.0978432,11.586 23.0898432,11.627 L23.0898432,11.627 L22.7808432,13.076 C22.7638432,13.15 22.6928432,13.201 22.6168432,13.192 L22.6168432,13.192 C20.7198432,13.006 18.9028432,13.998 18.0458432,15.687 L18.0458432,15.687 C18.0118432,15.758 17.9268432,15.791 17.8528432,15.76 L17.8528432,15.76 L17.7828432,15.732 L14.1108432,14.215 C14.0438432,14.187 13.9898432,14.133 13.9638432,14.066 L13.9638432,14.066 C13.9368432,13.998 13.9388432,13.923 13.9688432,13.857 L13.9688432,13.857 C14.5008432,12.678 14.6378432,11.511 14.3578432,10.642 L14.3578432,10.642 C14.3378432,10.586 14.3538432,10.524 14.3978432,10.485 L14.3978432,10.485 L18.0248432,7.242 C18.0678432,7.205 18.1268432,7.194 18.1788432,7.214 L18.1788432,7.214 C19.0288432,7.562 20.6108432,7.335 22.2118432,6.559 L22.2118432,6.559 C24.2938432,5.551 25.6178432,3.997 25.1698432,3.089 L25.1698432,3.089 C24.9268432,2.596 24.5148432,2.174 23.6888432,2.174 L23.6888432,2.174 C22.9958432,2.174 22.0108432,2.471 20.5888432,3.272 M3.78784318,21.942 C3.01284318,24.172 3.17484318,26.249 4.14984318,26.585 L4.14984318,26.585 C4.98484318,26.866 6.14484318,25.777 6.94784318,24.059 L6.94784318,24.059 C6.98184318,23.986 7.06884318,23.954 7.14284318,23.986 L7.14284318,23.986 L11.4878432,25.993 C11.5508432,26.025 11.5838432,26.095 11.5658432,26.163 L11.5658432,26.163 C11.2788432,27.286 11.4618432,28.477 12.0768432,29.461 L12.0768432,29.461 C12.6908432,30.447 13.6828432,31.143 14.8238432,31.391 L14.8238432,31.391 C14.8978432,31.407 14.9478432,31.475 14.9398432,31.55 L14.9398432,31.55 L14.6488432,33.898 C14.6388432,33.972 14.5748432,34.026 14.4998432,34.025 L14.4998432,34.025 C13.1358432,34.026 11.8438432,34.624 10.9678432,35.659 L10.9678432,35.659 C9.31584318,37.606 9.59784318,40.533 11.5948432,42.193 L11.5948432,42.193 C11.6558432,42.247 11.6638432,42.339 11.6108432,42.401 L11.6108432,42.401 L8.36484318,45.973 C8.33684318,46.002 8.29884318,46.019 8.25784318,46.02 L8.25784318,46.02 C8.21884318,46.021 8.17984318,46.006 8.15084318,45.978 L8.15084318,45.978 C6.70484318,44.549 4.96384318,43.897 3.74684318,44.35 L3.74684318,44.35 C3.70684318,44.364 3.66184318,44.361 3.62384318,44.342 L3.62384318,44.342 C3.58684318,44.322 3.55884318,44.287 3.54884318,44.245 L3.54884318,44.245 L2.84884318,40.681 L2.85884318,40.681 C3.99184318,40.497 4.62384318,38.095 4.27484318,35.272 L4.27484318,35.272 C3.92184318,32.419 2.69684318,30.223 1.54684318,30.364 L1.54684318,30.364 C0.39584318,30.505 -0.25715682,32.928 0.0958431801,35.777 L0.0958431801,35.777 C0.36484318,37.946 1.13484318,39.728 1.99484318,40.403 L1.99484318,40.403 C2.02284318,40.425 2.04284318,40.456 2.04884318,40.49 L2.04884318,40.49 L2.90184318,44.859 C2.90884318,44.901 2.89884318,44.944 2.87184318,44.977 L2.87184318,44.977 C1.91284318,46.197 2.29184318,48.598 3.86184318,50.662 L3.86184318,50.662 C5.60784318,52.955 8.15684318,53.966 9.55784318,52.921 L9.55784318,52.921 C10.9248432,51.899 10.6918432,49.295 9.05784318,47.039 L9.05784318,47.039 C9.01884318,46.983 9.02284318,46.908 9.06784318,46.857 L9.06784318,46.857 L12.6198432,42.953 C12.6618432,42.908 12.7288432,42.895 12.7858432,42.919 L12.7858432,42.919 C14.6398432,43.705 16.8518432,43.255 18.1998432,41.667 L18.1998432,41.667 C19.8508432,39.719 19.5698432,36.792 17.5728432,35.132 L17.5728432,35.132 C17.0718432,34.714 16.4898432,34.403 15.8628432,34.218 L15.8628432,34.218 C15.7938432,34.198 15.7508432,34.131 15.7578432,34.061 L15.7578432,34.061 L16.0638432,31.587 C16.0738432,31.521 16.1278432,31.469 16.1948432,31.461 L16.1948432,31.461 C17.1878432,31.356 18.1098432,30.898 18.7908432,30.174 L18.7908432,30.174 C20.3758432,28.489 20.2598432,25.831 18.5358432,24.238 L18.5358432,24.238 C16.8128432,22.643 14.1258432,22.716 12.5418432,24.4 L12.5418432,24.4 C12.3888432,24.562 12.2478432,24.736 12.1228432,24.921 L12.1228432,24.921 C12.0828432,24.98 12.0048432,25.002 11.9388432,24.973 L11.9388432,24.973 L7.51784318,22.931 C7.45484318,22.898 7.42284318,22.826 7.44284318,22.758 L7.44284318,22.758 C8.06984318,20.68 7.87284318,18.82 6.95584318,18.506 L6.95584318,18.506 C6.86684318,18.476 6.77484318,18.461 6.67884318,18.461 L6.67884318,18.461 C5.72684318,18.462 4.49184318,19.917 3.78784318,21.942 M26.1388432,29.516 C24.3548432,30.997 24.1438432,33.649 25.6628432,35.437 L25.6628432,35.437 C26.1568432,36.023 26.8008432,36.467 27.5268432,36.721 L27.5268432,36.721 C27.6878432,36.779 27.7808432,36.944 27.7478432,37.109 L27.7478432,37.109 L25.9498432,46.264 C25.9138432,46.443 25.7418432,46.564 25.5588432,46.538 L25.5588432,46.538 C23.8088432,46.298 22.0478432,46.883 20.7978432,48.12 L20.7978432,48.12 C19.1298432,49.776 18.7338432,52.216 19.5918432,54.277 L19.5918432,54.277 C19.6618432,54.443 19.5918432,54.635 19.4308432,54.718 L19.4308432,54.718 L17.1318432,55.878 C16.9968432,55.945 16.8348432,55.92 16.7288432,55.815 L16.7288432,55.815 C14.6788432,53.785 11.8848432,53.268 10.4818432,54.655 L10.4818432,54.655 C9.07984318,56.041 9.60484318,58.813 11.6528432,60.843 L11.6528432,60.843 C12.7758432,61.956 14.1228432,62.614 15.3418432,62.754 L15.3418432,62.754 C15.3888432,62.759 15.4338432,62.774 15.4748432,62.797 L15.4748432,62.797 L20.6978432,65.785 C20.7578432,65.819 20.8058432,65.872 20.8358432,65.934 L20.8358432,65.934 C20.9938432,66.267 21.3138432,66.602 21.7498432,66.899 L21.7498432,66.899 L21.8118432,66.941 C22.3608432,67.293 22.9628432,67.558 23.5938432,67.728 L23.5938432,67.728 L23.6848432,67.753 L23.7758432,67.777 L23.8218432,67.788 C24.3988432,67.931 24.9598432,67.999 25.4688432,68 L25.4688432,68 L25.4978432,68 C26.6748432,67.996 27.5678432,67.631 27.7288432,66.997 L27.7288432,66.997 C27.9598432,66.083 26.5828432,64.956 24.6558432,64.48 L24.6558432,64.48 C24.5458432,64.452 24.4368432,64.428 24.3288432,64.406 L24.3288432,64.406 L24.2358432,64.387 L24.1888432,64.379 L24.0978432,64.363 L24.0518432,64.356 L23.9598432,64.342 C23.8688432,64.328 23.7788432,64.316 23.6888432,64.306 L23.6888432,64.306 L23.5998432,64.297 C22.6418432,64.206 21.8038432,64.331 21.2828432,64.634 L21.2828432,64.634 C21.1758432,64.696 21.0438432,64.696 20.9358432,64.634 L20.9358432,64.634 L17.7048432,62.785 C17.6038432,62.728 17.5378432,62.625 17.5288432,62.511 L17.5288432,62.511 C17.5198432,62.397 17.5698432,62.285 17.6608432,62.213 L17.6608432,62.213 C17.7448432,62.148 17.8258432,62.078 17.9018432,62.003 L17.9018432,62.003 C19.0058432,60.91 18.9148432,58.96 17.8268432,57.188 L17.8268432,57.188 C17.7768432,57.107 17.7618432,57.01 17.7878432,56.919 L17.7878432,56.919 C17.8138432,56.827 17.8758432,56.751 17.9608432,56.708 L17.9608432,56.708 L20.0588432,55.649 C20.2038432,55.576 20.3808432,55.613 20.4838432,55.738 L20.4838432,55.738 C20.5998432,55.879 20.7248432,56.016 20.8588432,56.149 L20.8588432,56.149 C23.1128432,58.382 26.7378432,58.408 28.9578432,56.208 L28.9578432,56.208 C31.1788432,54.009 31.1518432,50.415 28.8978432,48.182 L28.8978432,48.182 C28.3778432,47.665 27.7618432,47.25 27.0848432,46.959 L27.0848432,46.959 C26.9348432,46.896 26.8498432,46.738 26.8808432,46.579 L26.8808432,46.579 L28.7138432,37.242 C28.7448432,37.083 28.8848432,36.968 29.0488432,36.965 L29.0488432,36.965 C29.5028432,36.955 29.9518432,36.872 30.3798432,36.719 L30.3798432,36.719 C30.5028432,36.674 30.6408432,36.702 30.7368432,36.792 L30.7368432,36.792 L34.2358432,40.142 C34.3558432,40.258 34.3738432,40.442 34.2798432,40.579 L34.2798432,40.579 C33.3578432,41.979 33.4728432,43.813 34.5628432,45.089 L34.5628432,45.089 C35.9198432,46.692 38.3118432,46.916 39.9038432,45.592 L39.9038432,45.592 C41.4968432,44.268 41.6888432,41.895 40.3318432,40.293 L40.3318432,40.293 C39.1108432,38.851 37.0518432,38.524 35.4918432,39.438 L35.4918432,39.438 C35.3568432,39.519 35.1858432,39.5 35.0708432,39.393 L35.0708432,39.393 L31.5738432,36.046 L31.6298432,36.001 C33.4108432,34.521 33.6248432,31.869 32.1078432,30.078 L32.1078432,30.078 C31.2558432,29.072 30.0378432,28.552 28.8188432,28.552 L28.8188432,28.552 C27.8698432,28.552 26.9178432,28.868 26.1388432,29.516 M46.5818432,47.544 C45.5488432,48.954 46.3798432,51.3 48.4388432,52.784 L48.4388432,52.784 C50.1798432,54.038 52.2448432,54.273 53.4648432,53.461 L53.4648432,53.461 C53.6478432,53.337 53.8908432,53.346 54.0638432,53.484 L54.0638432,53.484 L55.9298432,54.982 C56.1418432,55.151 56.1778432,55.458 56.0108432,55.671 L56.0108432,55.671 C55.3278432,56.531 54.9948432,57.496 55.0858432,58.313 L55.0858432,58.313 C55.1108432,58.515 55.0098432,58.711 54.8298432,58.808 L54.8298432,58.808 L50.0048432,61.351 C49.7708432,61.474 49.4798432,61.396 49.3418432,61.172 L49.3418432,61.172 C48.2848432,59.456 45.8408432,58.67 43.4298432,59.4 L43.4298432,59.4 L43.3408432,59.427 C43.0968432,59.505 42.8338432,59.388 42.7288432,59.156 L42.7288432,59.156 L41.3808432,56.159 C41.2818432,55.942 41.3538432,55.685 41.5518432,55.549 L41.5518432,55.549 C41.8008432,55.381 42.0278432,55.181 42.2258432,54.955 L42.2258432,54.955 C43.5098432,53.491 43.3358432,51.258 41.8368432,49.967 L41.8368432,49.967 C40.3368432,48.674 38.0818432,48.813 36.7968432,50.277 L36.7968432,50.277 C35.5118432,51.742 35.6878432,53.975 37.1858432,55.266 L37.1858432,55.266 C37.9038432,55.887 38.8378432,56.203 39.7868432,56.144 L39.7868432,56.144 C39.9978432,56.13 40.1948432,56.247 40.2798432,56.438 L40.2798432,56.438 L41.7478432,59.705 C41.8448432,59.917 41.7778432,60.168 41.5878432,60.306 L41.5878432,60.306 C40.3338432,61.216 39.5618432,62.535 39.5278432,63.882 L39.5278432,63.882 C39.5198432,64.137 39.3178432,64.344 39.0618432,64.361 L39.0618432,64.361 L37.8578432,64.445 C37.6058432,64.461 37.3818432,64.289 37.3338432,64.044 L37.3338432,64.044 C37.0658432,62.64 35.8958432,61.207 34.1518432,60.364 L34.1518432,60.364 C31.6238432,59.141 28.8508432,59.625 27.9518432,61.443 L27.9518432,61.443 C27.0518432,63.262 28.3778432,65.725 30.9058432,66.948 L30.9058432,66.948 C33.4338432,68.171 36.2118432,67.688 37.1058432,65.869 L37.1058432,65.869 C37.1838432,65.708 37.3418432,65.599 37.5218432,65.585 L37.5218432,65.585 L39.4888432,65.449 C39.6838432,65.435 39.8688432,65.535 39.9628432,65.705 L39.9628432,65.705 C40.9618432,67.533 43.4838432,68.393 45.9688432,67.64 L45.9688432,67.64 L46.0518432,67.614 C48.4938432,66.839 50.0628432,64.748 49.8558432,62.7 L49.8558432,62.7 C49.8358432,62.499 49.9398432,62.307 50.1188432,62.213 L50.1188432,62.213 L55.5228432,59.366 L55.5498432,59.396 C56.5068432,60.473 58.5948432,60.247 60.2438432,58.876 L60.2438432,58.876 C61.9078432,57.492 62.4918432,55.465 61.5478432,54.351 L61.5478432,54.351 C60.6688432,53.313 58.7778432,53.429 57.1778432,54.565 L57.1778432,54.565 C56.9958432,54.691 56.7508432,54.683 56.5788432,54.544 L56.5788432,54.544 L54.5038432,52.88 C54.3398432,52.749 54.2758432,52.53 54.3448432,52.332 L54.3448432,52.332 C54.8418432,50.919 53.9818432,48.969 52.1828432,47.675 L52.1828432,47.675 C51.1188432,46.91 49.9358432,46.524 48.8978432,46.524 L48.8978432,46.524 C47.9268432,46.524 47.0818432,46.862 46.5818432,47.544" id="Fill-9" fill="url(#radialGradient-5)" mask="url(#mask-4)"></path>
                </g>
            </g>
        </g>
    </g>
</svg>