<?xml version="1.0" encoding="UTF-8"?>
<svg width="62px" height="68px" viewBox="0 0 62 68" version="1.1" xmlns="http://www.w3.org/2000/svg" xmlns:xlink="http://www.w3.org/1999/xlink">
    <title>shape-white</title>
    <defs>
        <path d="M30.4808432,1.986 C30.4158432,3.198 32.2418432,4.277 34.5548432,4.396 L34.5548432,4.396 C36.3008432,4.486 37.8248432,4.005 38.4988432,3.244 L38.4988432,3.244 C38.5338432,3.204 38.5878432,3.184 38.6408432,3.193 L38.6408432,3.193 L44.2878432,4.182 C44.3688432,4.196 44.4228432,4.273 44.4098432,4.353 L44.4098432,4.353 C44.2298432,5.33 44.5648432,6.495 45.3448432,7.508 L45.3448432,7.508 C45.3688432,7.54 45.3788432,7.58 45.3728432,7.619 L45.3728432,7.619 C45.3668432,7.659 45.3458432,7.694 45.3128432,7.717 L45.3128432,7.717 L41.3998432,10.534 C41.3418432,10.576 41.2628432,10.571 41.2108432,10.523 L41.2108432,10.523 L41.1768432,10.493 C39.7248432,9.199 37.5018432,9.294 36.2168432,10.715 L36.2168432,10.715 C34.9318432,12.137 35.0648432,14.333 36.5168432,15.627 L36.5168432,15.627 C37.9678432,16.921 40.1888432,16.822 41.4768432,15.404 L41.4768432,15.404 C42.4128432,14.366 42.6288432,12.873 42.0238432,11.617 L42.0238432,11.617 C41.9908432,11.552 42.0108432,11.474 42.0698432,11.431 L42.0698432,11.431 L46.1458432,8.497 C46.2008432,8.458 46.2748432,8.46 46.3268432,8.503 L46.3268432,8.503 C46.8758432,8.945 47.5068432,9.276 48.1828432,9.476 L48.1828432,9.476 C48.2478432,9.494 48.2928432,9.552 48.2928432,9.619 L48.2928432,9.619 L48.2928432,14.201 C48.2928432,14.268 48.2458432,14.327 48.1808432,14.344 L48.1808432,14.344 C47.9588432,14.402 47.7418432,14.479 47.5338432,14.572 L47.5338432,14.572 C45.3738432,15.525 44.3908432,18.006 45.3378432,20.115 L45.3378432,20.115 C45.4698432,20.408 45.6358432,20.685 45.8328432,20.941 L45.8328432,20.941 C45.8578432,20.973 45.8678432,21.015 45.8608432,21.054 L45.8608432,21.054 C45.8538432,21.095 45.8308432,21.13 45.7968432,21.152 L45.7968432,21.152 L41.4718432,24.042 C41.4128432,24.082 41.3358432,24.075 41.2848432,24.026 L41.2848432,24.026 C40.1448432,22.975 38.4068432,22.875 37.2308432,23.851 L37.2308432,23.851 C37.1998432,23.878 37.1668432,23.906 37.1368432,23.934 L37.1368432,23.934 C37.0858432,23.982 37.0098432,23.989 36.9508432,23.951 L36.9508432,23.951 L35.3768432,22.939 C35.3228432,22.903 35.2988432,22.836 35.3178432,22.774 L35.3178432,22.774 C35.6538432,21.622 35.3068432,20.379 34.4188432,19.564 L34.4188432,19.564 C33.1278432,18.371 31.1208432,18.425 29.9358432,19.686 L29.9358432,19.686 C28.7498432,20.946 28.8348432,22.934 30.1248432,24.127 L30.1248432,24.127 C31.4148432,25.318 33.4218432,25.266 34.6078432,24.004 L34.6078432,24.004 C34.6248432,23.986 34.6408432,23.968 34.6568432,23.95 L34.6568432,23.95 C34.7058432,23.897 34.7858432,23.886 34.8458432,23.926 L34.8458432,23.926 L36.3178432,24.873 C36.3758432,24.912 36.3998432,24.984 36.3748432,25.048 L36.3748432,25.048 C35.9838432,26.112 36.2008432,27.301 36.9408432,28.161 L36.9408432,28.161 C38.0588432,29.482 40.0008432,29.691 41.2748432,28.63 L41.2748432,28.63 C42.3068432,27.772 42.5888432,26.347 42.0688432,25.135 L42.0688432,25.135 C42.0388432,25.069 42.0618432,24.991 42.1218432,24.951 L42.1218432,24.951 L46.7018432,21.893 C46.7518432,21.86 46.8178432,21.86 46.8678432,21.893 L46.8678432,21.893 C48.0918432,22.681 49.6368432,22.801 50.9688432,22.208 L50.9688432,22.208 C53.1278432,21.255 54.1118432,18.774 53.1638432,16.665 L53.1638432,16.665 C52.5078432,15.217 51.0798432,14.263 49.4788432,14.203 L49.4788432,14.203 C49.3958432,14.203 49.3298432,14.137 49.3298432,14.055 L49.3298432,14.055 L49.3298432,9.787 C49.3288432,9.709 49.3908432,9.643 49.4698432,9.639 L49.4698432,9.639 C50.2148432,9.607 50.8778432,9.34 51.3438432,8.827 L51.3438432,8.827 L51.3768432,8.789 C51.6288432,8.496 51.8068432,8.148 51.8918432,7.773 L51.8918432,7.773 C51.9028432,7.727 51.9358432,7.688 51.9798432,7.669 L51.9798432,7.669 C52.0248432,7.651 52.0758432,7.655 52.1168432,7.68 L52.1168432,7.68 L55.3568432,9.752 L55.3508432,9.758 C54.5908432,10.532 55.1718432,12.383 56.6698432,13.916 L56.6698432,13.916 C58.1798432,15.466 60.0478432,16.107 60.8428432,15.346 L60.8428432,15.346 C61.6368432,14.586 61.0558432,12.714 59.5458432,11.164 L59.5458432,11.164 C58.5448432,10.136 57.3858432,9.509 56.4858432,9.424 L56.4858432,9.424 C56.4388432,9.421 56.3928432,9.406 56.3538432,9.38 L56.3538432,9.38 L52.0228432,6.609 C51.9558432,6.567 51.9088432,6.5 51.8918432,6.424 L51.8918432,6.424 C51.7048432,5.482 51.1408432,4.496 50.2488432,3.7 L50.2488432,3.7 C48.4968432,2.136 46.1408432,1.897 44.9878432,3.165 L44.9878432,3.165 C44.9148432,3.246 44.8458432,3.333 44.7848432,3.424 L44.7848432,3.424 C44.7528432,3.474 44.6928432,3.5 44.6348432,3.49 L44.6348432,3.49 L38.8578432,2.478 C38.8618432,2.46 38.8618432,2.44 38.8618432,2.421 L38.8618432,2.421 C38.9268432,1.21 37.1028432,0.131 34.7878432,0.011 L34.7878432,0.011 C34.6458432,0.004 34.5058432,0 34.3668432,0 L34.3668432,0 C32.2438432,0 30.5408432,0.85 30.4808432,1.986 M20.5888432,3.272 L20.5878432,3.272 C17.7668432,4.861 17.2618432,5.673 17.5218432,6.483 L17.5218432,6.483 C17.5698432,6.623 17.5298432,6.777 17.4198432,6.876 L17.4198432,6.876 L14.0998432,9.847 C14.0398432,9.901 13.9468432,9.897 13.8908432,9.838 L13.8908432,9.838 C13.8118432,9.754 13.7248432,9.678 13.6308432,9.611 L13.6308432,9.611 C12.3128432,8.662 9.96384318,9.643 8.38384318,11.802 L8.38384318,11.802 C6.80584318,13.96 6.59984318,16.473 7.91684318,17.421 L7.91684318,17.421 C9.23484318,18.369 11.5838432,17.388 13.1628432,15.229 L13.1628432,15.229 C13.2298432,15.139 13.3518432,15.104 13.4568432,15.148 L13.4568432,15.148 L17.4388432,16.825 C17.5498432,16.871 17.6148432,16.984 17.5978432,17.1 L17.5978432,17.1 C17.2578432,19.482 18.8378432,21.716 21.2118432,22.211 L21.2118432,22.211 C23.5858432,22.706 25.9418432,21.292 26.5978432,18.977 L26.5978432,18.977 C27.2538432,16.662 25.9868432,14.239 23.6988432,13.437 L23.6988432,13.437 L24.1028432,11.546 C24.1158432,11.485 24.1648432,11.439 24.2268432,11.43 L24.2268432,11.43 C24.3428432,11.412 24.4608432,11.389 24.5798432,11.361 L24.5798432,11.361 C25.9808432,11.038 27.0138432,10.186 27.1128432,9.34 L27.1128432,9.34 C27.1208432,9.282 27.1628432,9.234 27.2198432,9.216 L27.2198432,9.216 L31.8738432,7.89 C31.9178432,7.877 31.9648432,7.885 32.0018432,7.911 L32.0018432,7.911 C32.4568432,8.227 33.0788432,8.46 33.7798432,8.544 L33.7798432,8.544 C35.3008432,8.731 36.6228432,8.146 36.7338432,7.246 L36.7338432,7.246 C36.8428432,6.345 35.6998432,5.471 34.1808432,5.283 L34.1808432,5.283 C32.6608432,5.096 31.3388432,5.68 31.2278432,6.581 L31.2278432,6.581 C31.2078432,6.761 31.2328432,6.944 31.3028432,7.111 L31.3028432,7.111 C31.3178432,7.15 31.3158432,7.193 31.2978432,7.23 L31.2978432,7.23 C31.2788432,7.268 31.2458432,7.296 31.2058432,7.308 L31.2058432,7.308 L26.9888432,8.51 C26.9348432,8.524 26.8768432,8.508 26.8388432,8.467 L26.8388432,8.467 C26.3028432,7.851 25.0778432,7.6 23.7708432,7.897 L23.7708432,7.897 C22.1538432,8.269 21.0298432,9.343 21.2548432,10.299 L21.2548432,10.299 C21.3998432,10.915 22.0718432,11.331 22.9638432,11.449 L22.9638432,11.449 C23.0038432,11.455 23.0408432,11.477 23.0648432,11.511 L23.0648432,11.511 C23.0888432,11.545 23.0978432,11.586 23.0898432,11.627 L23.0898432,11.627 L22.7808432,13.076 C22.7638432,13.15 22.6928432,13.201 22.6168432,13.192 L22.6168432,13.192 C20.7198432,13.006 18.9028432,13.998 18.0458432,15.687 L18.0458432,15.687 C18.0118432,15.758 17.9268432,15.791 17.8528432,15.76 L17.8528432,15.76 L17.7828432,15.732 L14.1108432,14.215 C14.0438432,14.187 13.9898432,14.133 13.9638432,14.066 L13.9638432,14.066 C13.9368432,13.998 13.9388432,13.923 13.9688432,13.857 L13.9688432,13.857 C14.5008432,12.678 14.6378432,11.511 14.3578432,10.642 L14.3578432,10.642 C14.3378432,10.586 14.3538432,10.524 14.3978432,10.485 L14.3978432,10.485 L18.0248432,7.242 C18.0678432,7.205 18.1268432,7.194 18.1788432,7.214 L18.1788432,7.214 C19.0288432,7.562 20.6108432,7.335 22.2118432,6.559 L22.2118432,6.559 C24.2938432,5.551 25.6178432,3.997 25.1698432,3.089 L25.1698432,3.089 C24.9268432,2.596 24.5148432,2.174 23.6888432,2.174 L23.6888432,2.174 C22.9958432,2.174 22.0108432,2.471 20.5888432,3.272 M3.78784318,21.942 C3.01284318,24.172 3.17484318,26.249 4.14984318,26.585 L4.14984318,26.585 C4.98484318,26.866 6.14484318,25.777 6.94784318,24.059 L6.94784318,24.059 C6.98184318,23.986 7.06884318,23.954 7.14284318,23.986 L7.14284318,23.986 L11.4878432,25.993 C11.5508432,26.025 11.5838432,26.095 11.5658432,26.163 L11.5658432,26.163 C11.2788432,27.286 11.4618432,28.477 12.0768432,29.461 L12.0768432,29.461 C12.6908432,30.447 13.6828432,31.143 14.8238432,31.391 L14.8238432,31.391 C14.8978432,31.407 14.9478432,31.475 14.9398432,31.55 L14.9398432,31.55 L14.6488432,33.898 C14.6388432,33.972 14.5748432,34.026 14.4998432,34.025 L14.4998432,34.025 C13.1358432,34.026 11.8438432,34.624 10.9678432,35.659 L10.9678432,35.659 C9.31584318,37.606 9.59784318,40.533 11.5948432,42.193 L11.5948432,42.193 C11.6558432,42.247 11.6638432,42.339 11.6108432,42.401 L11.6108432,42.401 L8.36484318,45.973 C8.33684318,46.002 8.29884318,46.019 8.25784318,46.02 L8.25784318,46.02 C8.21884318,46.021 8.17984318,46.006 8.15084318,45.978 L8.15084318,45.978 C6.70484318,44.549 4.96384318,43.897 3.74684318,44.35 L3.74684318,44.35 C3.70684318,44.364 3.66184318,44.361 3.62384318,44.342 L3.62384318,44.342 C3.58684318,44.322 3.55884318,44.287 3.54884318,44.245 L3.54884318,44.245 L2.84884318,40.681 L2.85884318,40.681 C3.99184318,40.497 4.62384318,38.095 4.27484318,35.272 L4.27484318,35.272 C3.92184318,32.419 2.69684318,30.223 1.54684318,30.364 L1.54684318,30.364 C0.39584318,30.505 -0.25715682,32.928 0.0958431801,35.777 L0.0958431801,35.777 C0.36484318,37.946 1.13484318,39.728 1.99484318,40.403 L1.99484318,40.403 C2.02284318,40.425 2.04284318,40.456 2.04884318,40.49 L2.04884318,40.49 L2.90184318,44.859 C2.90884318,44.901 2.89884318,44.944 2.87184318,44.977 L2.87184318,44.977 C1.91284318,46.197 2.29184318,48.598 3.86184318,50.662 L3.86184318,50.662 C5.60784318,52.955 8.15684318,53.966 9.55784318,52.921 L9.55784318,52.921 C10.9248432,51.899 10.6918432,49.295 9.05784318,47.039 L9.05784318,47.039 C9.01884318,46.983 9.02284318,46.908 9.06784318,46.857 L9.06784318,46.857 L12.6198432,42.953 C12.6618432,42.908 12.7288432,42.895 12.7858432,42.919 L12.7858432,42.919 C14.6398432,43.705 16.8518432,43.255 18.1998432,41.667 L18.1998432,41.667 C19.8508432,39.719 19.5698432,36.792 17.5728432,35.132 L17.5728432,35.132 C17.0718432,34.714 16.4898432,34.403 15.8628432,34.218 L15.8628432,34.218 C15.7938432,34.198 15.7508432,34.131 15.7578432,34.061 L15.7578432,34.061 L16.0638432,31.587 C16.0738432,31.521 16.1278432,31.469 16.1948432,31.461 L16.1948432,31.461 C17.1878432,31.356 18.1098432,30.898 18.7908432,30.174 L18.7908432,30.174 C20.3758432,28.489 20.2598432,25.831 18.5358432,24.238 L18.5358432,24.238 C16.8128432,22.643 14.1258432,22.716 12.5418432,24.4 L12.5418432,24.4 C12.3888432,24.562 12.2478432,24.736 12.1228432,24.921 L12.1228432,24.921 C12.0828432,24.98 12.0048432,25.002 11.9388432,24.973 L11.9388432,24.973 L7.51784318,22.931 C7.45484318,22.898 7.42284318,22.826 7.44284318,22.758 L7.44284318,22.758 C8.06984318,20.68 7.87284318,18.82 6.95584318,18.506 L6.95584318,18.506 C6.86684318,18.476 6.77484318,18.461 6.67884318,18.461 L6.67884318,18.461 C5.72684318,18.462 4.49184318,19.917 3.78784318,21.942 M26.1388432,29.516 C24.3548432,30.997 24.1438432,33.649 25.6628432,35.437 L25.6628432,35.437 C26.1568432,36.023 26.8008432,36.467 27.5268432,36.721 L27.5268432,36.721 C27.6878432,36.779 27.7808432,36.944 27.7478432,37.109 L27.7478432,37.109 L25.9498432,46.264 C25.9138432,46.443 25.7418432,46.564 25.5588432,46.538 L25.5588432,46.538 C23.8088432,46.298 22.0478432,46.883 20.7978432,48.12 L20.7978432,48.12 C19.1298432,49.776 18.7338432,52.216 19.5918432,54.277 L19.5918432,54.277 C19.6618432,54.443 19.5918432,54.635 19.4308432,54.718 L19.4308432,54.718 L17.1318432,55.878 C16.9968432,55.945 16.8348432,55.92 16.7288432,55.815 L16.7288432,55.815 C14.6788432,53.785 11.8848432,53.268 10.4818432,54.655 L10.4818432,54.655 C9.07984318,56.041 9.60484318,58.813 11.6528432,60.843 L11.6528432,60.843 C12.7758432,61.956 14.1228432,62.614 15.3418432,62.754 L15.3418432,62.754 C15.3888432,62.759 15.4338432,62.774 15.4748432,62.797 L15.4748432,62.797 L20.6978432,65.785 C20.7578432,65.819 20.8058432,65.872 20.8358432,65.934 L20.8358432,65.934 C20.9938432,66.267 21.3138432,66.602 21.7498432,66.899 L21.7498432,66.899 L21.8118432,66.941 C22.3608432,67.293 22.9628432,67.558 23.5938432,67.728 L23.5938432,67.728 L23.6848432,67.753 L23.7758432,67.777 L23.8218432,67.788 C24.3988432,67.931 24.9598432,67.999 25.4688432,68 L25.4688432,68 L25.4978432,68 C26.6748432,67.996 27.5678432,67.631 27.7288432,66.997 L27.7288432,66.997 C27.9598432,66.083 26.5828432,64.956 24.6558432,64.48 L24.6558432,64.48 C24.5458432,64.452 24.4368432,64.428 24.3288432,64.406 L24.3288432,64.406 L24.2358432,64.387 L24.1888432,64.379 L24.0978432,64.363 L24.0518432,64.356 L23.9598432,64.342 C23.8688432,64.328 23.7788432,64.316 23.6888432,64.306 L23.6888432,64.306 L23.5998432,64.297 C22.6418432,64.206 21.8038432,64.331 21.2828432,64.634 L21.2828432,64.634 C21.1758432,64.696 21.0438432,64.696 20.9358432,64.634 L20.9358432,64.634 L17.7048432,62.785 C17.6038432,62.728 17.5378432,62.625 17.5288432,62.511 L17.5288432,62.511 C17.5198432,62.397 17.5698432,62.285 17.6608432,62.213 L17.6608432,62.213 C17.7448432,62.148 17.8258432,62.078 17.9018432,62.003 L17.9018432,62.003 C19.0058432,60.91 18.9148432,58.96 17.8268432,57.188 L17.8268432,57.188 C17.7768432,57.107 17.7618432,57.01 17.7878432,56.919 L17.7878432,56.919 C17.8138432,56.827 17.8758432,56.751 17.9608432,56.708 L17.9608432,56.708 L20.0588432,55.649 C20.2038432,55.576 20.3808432,55.613 20.4838432,55.738 L20.4838432,55.738 C20.5998432,55.879 20.7248432,56.016 20.8588432,56.149 L20.8588432,56.149 C23.1128432,58.382 26.7378432,58.408 28.9578432,56.208 L28.9578432,56.208 C31.1788432,54.009 31.1518432,50.415 28.8978432,48.182 L28.8978432,48.182 C28.3778432,47.665 27.7618432,47.25 27.0848432,46.959 L27.0848432,46.959 C26.9348432,46.896 26.8498432,46.738 26.8808432,46.579 L26.8808432,46.579 L28.7138432,37.242 C28.7448432,37.083 28.8848432,36.968 29.0488432,36.965 L29.0488432,36.965 C29.5028432,36.955 29.9518432,36.872 30.3798432,36.719 L30.3798432,36.719 C30.5028432,36.674 30.6408432,36.702 30.7368432,36.792 L30.7368432,36.792 L34.2358432,40.142 C34.3558432,40.258 34.3738432,40.442 34.2798432,40.579 L34.2798432,40.579 C33.3578432,41.979 33.4728432,43.813 34.5628432,45.089 L34.5628432,45.089 C35.9198432,46.692 38.3118432,46.916 39.9038432,45.592 L39.9038432,45.592 C41.4968432,44.268 41.6888432,41.895 40.3318432,40.293 L40.3318432,40.293 C39.1108432,38.851 37.0518432,38.524 35.4918432,39.438 L35.4918432,39.438 C35.3568432,39.519 35.1858432,39.5 35.0708432,39.393 L35.0708432,39.393 L31.5738432,36.046 L31.6298432,36.001 C33.4108432,34.521 33.6248432,31.869 32.1078432,30.078 L32.1078432,30.078 C31.2558432,29.072 30.0378432,28.552 28.8188432,28.552 L28.8188432,28.552 C27.8698432,28.552 26.9178432,28.868 26.1388432,29.516 M46.5818432,47.544 C45.5488432,48.954 46.3798432,51.3 48.4388432,52.784 L48.4388432,52.784 C50.1798432,54.038 52.2448432,54.273 53.4648432,53.461 L53.4648432,53.461 C53.6478432,53.337 53.8908432,53.346 54.0638432,53.484 L54.0638432,53.484 L55.9298432,54.982 C56.1418432,55.151 56.1778432,55.458 56.0108432,55.671 L56.0108432,55.671 C55.3278432,56.531 54.9948432,57.496 55.0858432,58.313 L55.0858432,58.313 C55.1108432,58.515 55.0098432,58.711 54.8298432,58.808 L54.8298432,58.808 L50.0048432,61.351 C49.7708432,61.474 49.4798432,61.396 49.3418432,61.172 L49.3418432,61.172 C48.2848432,59.456 45.8408432,58.67 43.4298432,59.4 L43.4298432,59.4 L43.3408432,59.427 C43.0968432,59.505 42.8338432,59.388 42.7288432,59.156 L42.7288432,59.156 L41.3808432,56.159 C41.2818432,55.942 41.3538432,55.685 41.5518432,55.549 L41.5518432,55.549 C41.8008432,55.381 42.0278432,55.181 42.2258432,54.955 L42.2258432,54.955 C43.5098432,53.491 43.3358432,51.258 41.8368432,49.967 L41.8368432,49.967 C40.3368432,48.674 38.0818432,48.813 36.7968432,50.277 L36.7968432,50.277 C35.5118432,51.742 35.6878432,53.975 37.1858432,55.266 L37.1858432,55.266 C37.9038432,55.887 38.8378432,56.203 39.7868432,56.144 L39.7868432,56.144 C39.9978432,56.13 40.1948432,56.247 40.2798432,56.438 L40.2798432,56.438 L41.7478432,59.705 C41.8448432,59.917 41.7778432,60.168 41.5878432,60.306 L41.5878432,60.306 C40.3338432,61.216 39.5618432,62.535 39.5278432,63.882 L39.5278432,63.882 C39.5198432,64.137 39.3178432,64.344 39.0618432,64.361 L39.0618432,64.361 L37.8578432,64.445 C37.6058432,64.461 37.3818432,64.289 37.3338432,64.044 L37.3338432,64.044 C37.0658432,62.64 35.8958432,61.207 34.1518432,60.364 L34.1518432,60.364 C31.6238432,59.141 28.8508432,59.625 27.9518432,61.443 L27.9518432,61.443 C27.0518432,63.262 28.3778432,65.725 30.9058432,66.948 L30.9058432,66.948 C33.4338432,68.171 36.2118432,67.688 37.1058432,65.869 L37.1058432,65.869 C37.1838432,65.708 37.3418432,65.599 37.5218432,65.585 L37.5218432,65.585 L39.4888432,65.449 C39.6838432,65.435 39.8688432,65.535 39.9628432,65.705 L39.9628432,65.705 C40.9618432,67.533 43.4838432,68.393 45.9688432,67.64 L45.9688432,67.64 L46.0518432,67.614 C48.4938432,66.839 50.0628432,64.748 49.8558432,62.7 L49.8558432,62.7 C49.8358432,62.499 49.9398432,62.307 50.1188432,62.213 L50.1188432,62.213 L55.5228432,59.366 L55.5498432,59.396 C56.5068432,60.473 58.5948432,60.247 60.2438432,58.876 L60.2438432,58.876 C61.9078432,57.492 62.4918432,55.465 61.5478432,54.351 L61.5478432,54.351 C60.6688432,53.313 58.7778432,53.429 57.1778432,54.565 L57.1778432,54.565 C56.9958432,54.691 56.7508432,54.683 56.5788432,54.544 L56.5788432,54.544 L54.5038432,52.88 C54.3398432,52.749 54.2758432,52.53 54.3448432,52.332 L54.3448432,52.332 C54.8418432,50.919 53.9818432,48.969 52.1828432,47.675 L52.1828432,47.675 C51.1188432,46.91 49.9358432,46.524 48.8978432,46.524 L48.8978432,46.524 C47.9268432,46.524 47.0818432,46.862 46.5818432,47.544" id="path-1"></path>
        <radialGradient cx="50.0001994%" cy="50%" fx="50.0001994%" fy="50%" r="54.8392242%" gradientTransform="translate(0.500002,0.500000),scale(1.000000,0.911756),rotate(90.000000),scale(1.000000,1.000000),translate(-0.500002,-0.500000)" id="radialGradient-3">
            <stop stop-color="#FFFFFF" offset="0%"></stop>
            <stop stop-color="#FFFFFF" offset="100%"></stop>
        </radialGradient>
    </defs>
    <g id="Design-system" stroke="none" stroke-width="1" fill="none" fill-rule="evenodd">
        <g id="Logo" transform="translate(-481.000000, -429.000000)">
            <g id="shape-white" transform="translate(481.000000, 429.000000)">
                <mask id="mask-2" fill="white">
                    <use xlink:href="#path-1"></use>
                </mask>
                <g id="Clip-10"></g>
                <path d="M30.4808432,1.986 C30.4158432,3.198 32.2418432,4.277 34.5548432,4.396 L34.5548432,4.396 C36.3008432,4.486 37.8248432,4.005 38.4988432,3.244 L38.4988432,3.244 C38.5338432,3.204 38.5878432,3.184 38.6408432,3.193 L38.6408432,3.193 L44.2878432,4.182 C44.3688432,4.196 44.4228432,4.273 44.4098432,4.353 L44.4098432,4.353 C44.2298432,5.33 44.5648432,6.495 45.3448432,7.508 L45.3448432,7.508 C45.3688432,7.54 45.3788432,7.58 45.3728432,7.619 L45.3728432,7.619 C45.3668432,7.659 45.3458432,7.694 45.3128432,7.717 L45.3128432,7.717 L41.3998432,10.534 C41.3418432,10.576 41.2628432,10.571 41.2108432,10.523 L41.2108432,10.523 L41.1768432,10.493 C39.7248432,9.199 37.5018432,9.294 36.2168432,10.715 L36.2168432,10.715 C34.9318432,12.137 35.0648432,14.333 36.5168432,15.627 L36.5168432,15.627 C37.9678432,16.921 40.1888432,16.822 41.4768432,15.404 L41.4768432,15.404 C42.4128432,14.366 42.6288432,12.873 42.0238432,11.617 L42.0238432,11.617 C41.9908432,11.552 42.0108432,11.474 42.0698432,11.431 L42.0698432,11.431 L46.1458432,8.497 C46.2008432,8.458 46.2748432,8.46 46.3268432,8.503 L46.3268432,8.503 C46.8758432,8.945 47.5068432,9.276 48.1828432,9.476 L48.1828432,9.476 C48.2478432,9.494 48.2928432,9.552 48.2928432,9.619 L48.2928432,9.619 L48.2928432,14.201 C48.2928432,14.268 48.2458432,14.327 48.1808432,14.344 L48.1808432,14.344 C47.9588432,14.402 47.7418432,14.479 47.5338432,14.572 L47.5338432,14.572 C45.3738432,15.525 44.3908432,18.006 45.3378432,20.115 L45.3378432,20.115 C45.4698432,20.408 45.6358432,20.685 45.8328432,20.941 L45.8328432,20.941 C45.8578432,20.973 45.8678432,21.015 45.8608432,21.054 L45.8608432,21.054 C45.8538432,21.095 45.8308432,21.13 45.7968432,21.152 L45.7968432,21.152 L41.4718432,24.042 C41.4128432,24.082 41.3358432,24.075 41.2848432,24.026 L41.2848432,24.026 C40.1448432,22.975 38.4068432,22.875 37.2308432,23.851 L37.2308432,23.851 C37.1998432,23.878 37.1668432,23.906 37.1368432,23.934 L37.1368432,23.934 C37.0858432,23.982 37.0098432,23.989 36.9508432,23.951 L36.9508432,23.951 L35.3768432,22.939 C35.3228432,22.903 35.2988432,22.836 35.3178432,22.774 L35.3178432,22.774 C35.6538432,21.622 35.3068432,20.379 34.4188432,19.564 L34.4188432,19.564 C33.1278432,18.371 31.1208432,18.425 29.9358432,19.686 L29.9358432,19.686 C28.7498432,20.946 28.8348432,22.934 30.1248432,24.127 L30.1248432,24.127 C31.4148432,25.318 33.4218432,25.266 34.6078432,24.004 L34.6078432,24.004 C34.6248432,23.986 34.6408432,23.968 34.6568432,23.95 L34.6568432,23.95 C34.7058432,23.897 34.7858432,23.886 34.8458432,23.926 L34.8458432,23.926 L36.3178432,24.873 C36.3758432,24.912 36.3998432,24.984 36.3748432,25.048 L36.3748432,25.048 C35.9838432,26.112 36.2008432,27.301 36.9408432,28.161 L36.9408432,28.161 C38.0588432,29.482 40.0008432,29.691 41.2748432,28.63 L41.2748432,28.63 C42.3068432,27.772 42.5888432,26.347 42.0688432,25.135 L42.0688432,25.135 C42.0388432,25.069 42.0618432,24.991 42.1218432,24.951 L42.1218432,24.951 L46.7018432,21.893 C46.7518432,21.86 46.8178432,21.86 46.8678432,21.893 L46.8678432,21.893 C48.0918432,22.681 49.6368432,22.801 50.9688432,22.208 L50.9688432,22.208 C53.1278432,21.255 54.1118432,18.774 53.1638432,16.665 L53.1638432,16.665 C52.5078432,15.217 51.0798432,14.263 49.4788432,14.203 L49.4788432,14.203 C49.3958432,14.203 49.3298432,14.137 49.3298432,14.055 L49.3298432,14.055 L49.3298432,9.787 C49.3288432,9.709 49.3908432,9.643 49.4698432,9.639 L49.4698432,9.639 C50.2148432,9.607 50.8778432,9.34 51.3438432,8.827 L51.3438432,8.827 L51.3768432,8.789 C51.6288432,8.496 51.8068432,8.148 51.8918432,7.773 L51.8918432,7.773 C51.9028432,7.727 51.9358432,7.688 51.9798432,7.669 L51.9798432,7.669 C52.0248432,7.651 52.0758432,7.655 52.1168432,7.68 L52.1168432,7.68 L55.3568432,9.752 L55.3508432,9.758 C54.5908432,10.532 55.1718432,12.383 56.6698432,13.916 L56.6698432,13.916 C58.1798432,15.466 60.0478432,16.107 60.8428432,15.346 L60.8428432,15.346 C61.6368432,14.586 61.0558432,12.714 59.5458432,11.164 L59.5458432,11.164 C58.5448432,10.136 57.3858432,9.509 56.4858432,9.424 L56.4858432,9.424 C56.4388432,9.421 56.3928432,9.406 56.3538432,9.38 L56.3538432,9.38 L52.0228432,6.609 C51.9558432,6.567 51.9088432,6.5 51.8918432,6.424 L51.8918432,6.424 C51.7048432,5.482 51.1408432,4.496 50.2488432,3.7 L50.2488432,3.7 C48.4968432,2.136 46.1408432,1.897 44.9878432,3.165 L44.9878432,3.165 C44.9148432,3.246 44.8458432,3.333 44.7848432,3.424 L44.7848432,3.424 C44.7528432,3.474 44.6928432,3.5 44.6348432,3.49 L44.6348432,3.49 L38.8578432,2.478 C38.8618432,2.46 38.8618432,2.44 38.8618432,2.421 L38.8618432,2.421 C38.9268432,1.21 37.1028432,0.131 34.7878432,0.011 L34.7878432,0.011 C34.6458432,0.004 34.5058432,0 34.3668432,0 L34.3668432,0 C32.2438432,0 30.5408432,0.85 30.4808432,1.986 M20.5888432,3.272 L20.5878432,3.272 C17.7668432,4.861 17.2618432,5.673 17.5218432,6.483 L17.5218432,6.483 C17.5698432,6.623 17.5298432,6.777 17.4198432,6.876 L17.4198432,6.876 L14.0998432,9.847 C14.0398432,9.901 13.9468432,9.897 13.8908432,9.838 L13.8908432,9.838 C13.8118432,9.754 13.7248432,9.678 13.6308432,9.611 L13.6308432,9.611 C12.3128432,8.662 9.96384318,9.643 8.38384318,11.802 L8.38384318,11.802 C6.80584318,13.96 6.59984318,16.473 7.91684318,17.421 L7.91684318,17.421 C9.23484318,18.369 11.5838432,17.388 13.1628432,15.229 L13.1628432,15.229 C13.2298432,15.139 13.3518432,15.104 13.4568432,15.148 L13.4568432,15.148 L17.4388432,16.825 C17.5498432,16.871 17.6148432,16.984 17.5978432,17.1 L17.5978432,17.1 C17.2578432,19.482 18.8378432,21.716 21.2118432,22.211 L21.2118432,22.211 C23.5858432,22.706 25.9418432,21.292 26.5978432,18.977 L26.5978432,18.977 C27.2538432,16.662 25.9868432,14.239 23.6988432,13.437 L23.6988432,13.437 L24.1028432,11.546 C24.1158432,11.485 24.1648432,11.439 24.2268432,11.43 L24.2268432,11.43 C24.3428432,11.412 24.4608432,11.389 24.5798432,11.361 L24.5798432,11.361 C25.9808432,11.038 27.0138432,10.186 27.1128432,9.34 L27.1128432,9.34 C27.1208432,9.282 27.1628432,9.234 27.2198432,9.216 L27.2198432,9.216 L31.8738432,7.89 C31.9178432,7.877 31.9648432,7.885 32.0018432,7.911 L32.0018432,7.911 C32.4568432,8.227 33.0788432,8.46 33.7798432,8.544 L33.7798432,8.544 C35.3008432,8.731 36.6228432,8.146 36.7338432,7.246 L36.7338432,7.246 C36.8428432,6.345 35.6998432,5.471 34.1808432,5.283 L34.1808432,5.283 C32.6608432,5.096 31.3388432,5.68 31.2278432,6.581 L31.2278432,6.581 C31.2078432,6.761 31.2328432,6.944 31.3028432,7.111 L31.3028432,7.111 C31.3178432,7.15 31.3158432,7.193 31.2978432,7.23 L31.2978432,7.23 C31.2788432,7.268 31.2458432,7.296 31.2058432,7.308 L31.2058432,7.308 L26.9888432,8.51 C26.9348432,8.524 26.8768432,8.508 26.8388432,8.467 L26.8388432,8.467 C26.3028432,7.851 25.0778432,7.6 23.7708432,7.897 L23.7708432,7.897 C22.1538432,8.269 21.0298432,9.343 21.2548432,10.299 L21.2548432,10.299 C21.3998432,10.915 22.0718432,11.331 22.9638432,11.449 L22.9638432,11.449 C23.0038432,11.455 23.0408432,11.477 23.0648432,11.511 L23.0648432,11.511 C23.0888432,11.545 23.0978432,11.586 23.0898432,11.627 L23.0898432,11.627 L22.7808432,13.076 C22.7638432,13.15 22.6928432,13.201 22.6168432,13.192 L22.6168432,13.192 C20.7198432,13.006 18.9028432,13.998 18.0458432,15.687 L18.0458432,15.687 C18.0118432,15.758 17.9268432,15.791 17.8528432,15.76 L17.8528432,15.76 L17.7828432,15.732 L14.1108432,14.215 C14.0438432,14.187 13.9898432,14.133 13.9638432,14.066 L13.9638432,14.066 C13.9368432,13.998 13.9388432,13.923 13.9688432,13.857 L13.9688432,13.857 C14.5008432,12.678 14.6378432,11.511 14.3578432,10.642 L14.3578432,10.642 C14.3378432,10.586 14.3538432,10.524 14.3978432,10.485 L14.3978432,10.485 L18.0248432,7.242 C18.0678432,7.205 18.1268432,7.194 18.1788432,7.214 L18.1788432,7.214 C19.0288432,7.562 20.6108432,7.335 22.2118432,6.559 L22.2118432,6.559 C24.2938432,5.551 25.6178432,3.997 25.1698432,3.089 L25.1698432,3.089 C24.9268432,2.596 24.5148432,2.174 23.6888432,2.174 L23.6888432,2.174 C22.9958432,2.174 22.0108432,2.471 20.5888432,3.272 M3.78784318,21.942 C3.01284318,24.172 3.17484318,26.249 4.14984318,26.585 L4.14984318,26.585 C4.98484318,26.866 6.14484318,25.777 6.94784318,24.059 L6.94784318,24.059 C6.98184318,23.986 7.06884318,23.954 7.14284318,23.986 L7.14284318,23.986 L11.4878432,25.993 C11.5508432,26.025 11.5838432,26.095 11.5658432,26.163 L11.5658432,26.163 C11.2788432,27.286 11.4618432,28.477 12.0768432,29.461 L12.0768432,29.461 C12.6908432,30.447 13.6828432,31.143 14.8238432,31.391 L14.8238432,31.391 C14.8978432,31.407 14.9478432,31.475 14.9398432,31.55 L14.9398432,31.55 L14.6488432,33.898 C14.6388432,33.972 14.5748432,34.026 14.4998432,34.025 L14.4998432,34.025 C13.1358432,34.026 11.8438432,34.624 10.9678432,35.659 L10.9678432,35.659 C9.31584318,37.606 9.59784318,40.533 11.5948432,42.193 L11.5948432,42.193 C11.6558432,42.247 11.6638432,42.339 11.6108432,42.401 L11.6108432,42.401 L8.36484318,45.973 C8.33684318,46.002 8.29884318,46.019 8.25784318,46.02 L8.25784318,46.02 C8.21884318,46.021 8.17984318,46.006 8.15084318,45.978 L8.15084318,45.978 C6.70484318,44.549 4.96384318,43.897 3.74684318,44.35 L3.74684318,44.35 C3.70684318,44.364 3.66184318,44.361 3.62384318,44.342 L3.62384318,44.342 C3.58684318,44.322 3.55884318,44.287 3.54884318,44.245 L3.54884318,44.245 L2.84884318,40.681 L2.85884318,40.681 C3.99184318,40.497 4.62384318,38.095 4.27484318,35.272 L4.27484318,35.272 C3.92184318,32.419 2.69684318,30.223 1.54684318,30.364 L1.54684318,30.364 C0.39584318,30.505 -0.25715682,32.928 0.0958431801,35.777 L0.0958431801,35.777 C0.36484318,37.946 1.13484318,39.728 1.99484318,40.403 L1.99484318,40.403 C2.02284318,40.425 2.04284318,40.456 2.04884318,40.49 L2.04884318,40.49 L2.90184318,44.859 C2.90884318,44.901 2.89884318,44.944 2.87184318,44.977 L2.87184318,44.977 C1.91284318,46.197 2.29184318,48.598 3.86184318,50.662 L3.86184318,50.662 C5.60784318,52.955 8.15684318,53.966 9.55784318,52.921 L9.55784318,52.921 C10.9248432,51.899 10.6918432,49.295 9.05784318,47.039 L9.05784318,47.039 C9.01884318,46.983 9.02284318,46.908 9.06784318,46.857 L9.06784318,46.857 L12.6198432,42.953 C12.6618432,42.908 12.7288432,42.895 12.7858432,42.919 L12.7858432,42.919 C14.6398432,43.705 16.8518432,43.255 18.1998432,41.667 L18.1998432,41.667 C19.8508432,39.719 19.5698432,36.792 17.5728432,35.132 L17.5728432,35.132 C17.0718432,34.714 16.4898432,34.403 15.8628432,34.218 L15.8628432,34.218 C15.7938432,34.198 15.7508432,34.131 15.7578432,34.061 L15.7578432,34.061 L16.0638432,31.587 C16.0738432,31.521 16.1278432,31.469 16.1948432,31.461 L16.1948432,31.461 C17.1878432,31.356 18.1098432,30.898 18.7908432,30.174 L18.7908432,30.174 C20.3758432,28.489 20.2598432,25.831 18.5358432,24.238 L18.5358432,24.238 C16.8128432,22.643 14.1258432,22.716 12.5418432,24.4 L12.5418432,24.4 C12.3888432,24.562 12.2478432,24.736 12.1228432,24.921 L12.1228432,24.921 C12.0828432,24.98 12.0048432,25.002 11.9388432,24.973 L11.9388432,24.973 L7.51784318,22.931 C7.45484318,22.898 7.42284318,22.826 7.44284318,22.758 L7.44284318,22.758 C8.06984318,20.68 7.87284318,18.82 6.95584318,18.506 L6.95584318,18.506 C6.86684318,18.476 6.77484318,18.461 6.67884318,18.461 L6.67884318,18.461 C5.72684318,18.462 4.49184318,19.917 3.78784318,21.942 M26.1388432,29.516 C24.3548432,30.997 24.1438432,33.649 25.6628432,35.437 L25.6628432,35.437 C26.1568432,36.023 26.8008432,36.467 27.5268432,36.721 L27.5268432,36.721 C27.6878432,36.779 27.7808432,36.944 27.7478432,37.109 L27.7478432,37.109 L25.9498432,46.264 C25.9138432,46.443 25.7418432,46.564 25.5588432,46.538 L25.5588432,46.538 C23.8088432,46.298 22.0478432,46.883 20.7978432,48.12 L20.7978432,48.12 C19.1298432,49.776 18.7338432,52.216 19.5918432,54.277 L19.5918432,54.277 C19.6618432,54.443 19.5918432,54.635 19.4308432,54.718 L19.4308432,54.718 L17.1318432,55.878 C16.9968432,55.945 16.8348432,55.92 16.7288432,55.815 L16.7288432,55.815 C14.6788432,53.785 11.8848432,53.268 10.4818432,54.655 L10.4818432,54.655 C9.07984318,56.041 9.60484318,58.813 11.6528432,60.843 L11.6528432,60.843 C12.7758432,61.956 14.1228432,62.614 15.3418432,62.754 L15.3418432,62.754 C15.3888432,62.759 15.4338432,62.774 15.4748432,62.797 L15.4748432,62.797 L20.6978432,65.785 C20.7578432,65.819 20.8058432,65.872 20.8358432,65.934 L20.8358432,65.934 C20.9938432,66.267 21.3138432,66.602 21.7498432,66.899 L21.7498432,66.899 L21.8118432,66.941 C22.3608432,67.293 22.9628432,67.558 23.5938432,67.728 L23.5938432,67.728 L23.6848432,67.753 L23.7758432,67.777 L23.8218432,67.788 C24.3988432,67.931 24.9598432,67.999 25.4688432,68 L25.4688432,68 L25.4978432,68 C26.6748432,67.996 27.5678432,67.631 27.7288432,66.997 L27.7288432,66.997 C27.9598432,66.083 26.5828432,64.956 24.6558432,64.48 L24.6558432,64.48 C24.5458432,64.452 24.4368432,64.428 24.3288432,64.406 L24.3288432,64.406 L24.2358432,64.387 L24.1888432,64.379 L24.0978432,64.363 L24.0518432,64.356 L23.9598432,64.342 C23.8688432,64.328 23.7788432,64.316 23.6888432,64.306 L23.6888432,64.306 L23.5998432,64.297 C22.6418432,64.206 21.8038432,64.331 21.2828432,64.634 L21.2828432,64.634 C21.1758432,64.696 21.0438432,64.696 20.9358432,64.634 L20.9358432,64.634 L17.7048432,62.785 C17.6038432,62.728 17.5378432,62.625 17.5288432,62.511 L17.5288432,62.511 C17.5198432,62.397 17.5698432,62.285 17.6608432,62.213 L17.6608432,62.213 C17.7448432,62.148 17.8258432,62.078 17.9018432,62.003 L17.9018432,62.003 C19.0058432,60.91 18.9148432,58.96 17.8268432,57.188 L17.8268432,57.188 C17.7768432,57.107 17.7618432,57.01 17.7878432,56.919 L17.7878432,56.919 C17.8138432,56.827 17.8758432,56.751 17.9608432,56.708 L17.9608432,56.708 L20.0588432,55.649 C20.2038432,55.576 20.3808432,55.613 20.4838432,55.738 L20.4838432,55.738 C20.5998432,55.879 20.7248432,56.016 20.8588432,56.149 L20.8588432,56.149 C23.1128432,58.382 26.7378432,58.408 28.9578432,56.208 L28.9578432,56.208 C31.1788432,54.009 31.1518432,50.415 28.8978432,48.182 L28.8978432,48.182 C28.3778432,47.665 27.7618432,47.25 27.0848432,46.959 L27.0848432,46.959 C26.9348432,46.896 26.8498432,46.738 26.8808432,46.579 L26.8808432,46.579 L28.7138432,37.242 C28.7448432,37.083 28.8848432,36.968 29.0488432,36.965 L29.0488432,36.965 C29.5028432,36.955 29.9518432,36.872 30.3798432,36.719 L30.3798432,36.719 C30.5028432,36.674 30.6408432,36.702 30.7368432,36.792 L30.7368432,36.792 L34.2358432,40.142 C34.3558432,40.258 34.3738432,40.442 34.2798432,40.579 L34.2798432,40.579 C33.3578432,41.979 33.4728432,43.813 34.5628432,45.089 L34.5628432,45.089 C35.9198432,46.692 38.3118432,46.916 39.9038432,45.592 L39.9038432,45.592 C41.4968432,44.268 41.6888432,41.895 40.3318432,40.293 L40.3318432,40.293 C39.1108432,38.851 37.0518432,38.524 35.4918432,39.438 L35.4918432,39.438 C35.3568432,39.519 35.1858432,39.5 35.0708432,39.393 L35.0708432,39.393 L31.5738432,36.046 L31.6298432,36.001 C33.4108432,34.521 33.6248432,31.869 32.1078432,30.078 L32.1078432,30.078 C31.2558432,29.072 30.0378432,28.552 28.8188432,28.552 L28.8188432,28.552 C27.8698432,28.552 26.9178432,28.868 26.1388432,29.516 M46.5818432,47.544 C45.5488432,48.954 46.3798432,51.3 48.4388432,52.784 L48.4388432,52.784 C50.1798432,54.038 52.2448432,54.273 53.4648432,53.461 L53.4648432,53.461 C53.6478432,53.337 53.8908432,53.346 54.0638432,53.484 L54.0638432,53.484 L55.9298432,54.982 C56.1418432,55.151 56.1778432,55.458 56.0108432,55.671 L56.0108432,55.671 C55.3278432,56.531 54.9948432,57.496 55.0858432,58.313 L55.0858432,58.313 C55.1108432,58.515 55.0098432,58.711 54.8298432,58.808 L54.8298432,58.808 L50.0048432,61.351 C49.7708432,61.474 49.4798432,61.396 49.3418432,61.172 L49.3418432,61.172 C48.2848432,59.456 45.8408432,58.67 43.4298432,59.4 L43.4298432,59.4 L43.3408432,59.427 C43.0968432,59.505 42.8338432,59.388 42.7288432,59.156 L42.7288432,59.156 L41.3808432,56.159 C41.2818432,55.942 41.3538432,55.685 41.5518432,55.549 L41.5518432,55.549 C41.8008432,55.381 42.0278432,55.181 42.2258432,54.955 L42.2258432,54.955 C43.5098432,53.491 43.3358432,51.258 41.8368432,49.967 L41.8368432,49.967 C40.3368432,48.674 38.0818432,48.813 36.7968432,50.277 L36.7968432,50.277 C35.5118432,51.742 35.6878432,53.975 37.1858432,55.266 L37.1858432,55.266 C37.9038432,55.887 38.8378432,56.203 39.7868432,56.144 L39.7868432,56.144 C39.9978432,56.13 40.1948432,56.247 40.2798432,56.438 L40.2798432,56.438 L41.7478432,59.705 C41.8448432,59.917 41.7778432,60.168 41.5878432,60.306 L41.5878432,60.306 C40.3338432,61.216 39.5618432,62.535 39.5278432,63.882 L39.5278432,63.882 C39.5198432,64.137 39.3178432,64.344 39.0618432,64.361 L39.0618432,64.361 L37.8578432,64.445 C37.6058432,64.461 37.3818432,64.289 37.3338432,64.044 L37.3338432,64.044 C37.0658432,62.64 35.8958432,61.207 34.1518432,60.364 L34.1518432,60.364 C31.6238432,59.141 28.8508432,59.625 27.9518432,61.443 L27.9518432,61.443 C27.0518432,63.262 28.3778432,65.725 30.9058432,66.948 L30.9058432,66.948 C33.4338432,68.171 36.2118432,67.688 37.1058432,65.869 L37.1058432,65.869 C37.1838432,65.708 37.3418432,65.599 37.5218432,65.585 L37.5218432,65.585 L39.4888432,65.449 C39.6838432,65.435 39.8688432,65.535 39.9628432,65.705 L39.9628432,65.705 C40.9618432,67.533 43.4838432,68.393 45.9688432,67.64 L45.9688432,67.64 L46.0518432,67.614 C48.4938432,66.839 50.0628432,64.748 49.8558432,62.7 L49.8558432,62.7 C49.8358432,62.499 49.9398432,62.307 50.1188432,62.213 L50.1188432,62.213 L55.5228432,59.366 L55.5498432,59.396 C56.5068432,60.473 58.5948432,60.247 60.2438432,58.876 L60.2438432,58.876 C61.9078432,57.492 62.4918432,55.465 61.5478432,54.351 L61.5478432,54.351 C60.6688432,53.313 58.7778432,53.429 57.1778432,54.565 L57.1778432,54.565 C56.9958432,54.691 56.7508432,54.683 56.5788432,54.544 L56.5788432,54.544 L54.5038432,52.88 C54.3398432,52.749 54.2758432,52.53 54.3448432,52.332 L54.3448432,52.332 C54.8418432,50.919 53.9818432,48.969 52.1828432,47.675 L52.1828432,47.675 C51.1188432,46.91 49.9358432,46.524 48.8978432,46.524 L48.8978432,46.524 C47.9268432,46.524 47.0818432,46.862 46.5818432,47.544" id="Fill-9" fill="url(#radialGradient-3)" mask="url(#mask-2)"></path>
            </g>
        </g>
    </g>
</svg>