<?xml version="1.0" encoding="UTF-8"?>
<svg width="201px" height="25px" viewBox="0 0 201 25" version="1.1" xmlns="http://www.w3.org/2000/svg" xmlns:xlink="http://www.w3.org/1999/xlink">
    <title>typo-dark</title>
    <g id="Design-system" stroke="none" stroke-width="1" fill="none" fill-rule="evenodd">
        <g id="Logo" transform="translate(-640.000000, -763.000000)" fill="#272736" fill-rule="nonzero">
            <g id="typo-dark" transform="translate(640.000000, 763.000000)">
                <path d="M117.910416,13.4414306 L110.450865,16.3271613 L110.408415,16.2948229 C110.452171,16.0202631 110.525317,15.7444352 110.629811,15.466705 C111.129422,14.1344879 112.259261,13.0838054 113.649682,12.6500898 C114.73903,12.3102191 115.823153,12.3653846 116.902704,12.8155865 C117.280841,12.9741083 117.619793,13.1649686 117.918253,13.3894354 L117.910416,13.4414306 Z M112.009129,9.5944237 C109.898354,10.411128 108.39495,11.8289469 107.500875,13.8478805 C106.606147,15.866814 106.57937,17.9009657 107.421198,19.9509695 C108.262373,22.0009733 109.722021,23.460642 111.802101,24.3287073 C113.881527,25.1974068 115.976628,25.2227703 118.088056,24.406066 C120.199484,23.5893617 121.702235,22.1715428 122.596963,20.1526092 L122.606759,20.129148 C122.606759,20.129148 123.233069,18.3803356 121.633008,17.8686272 C120.092377,17.3772097 119.375289,18.7639583 119.368758,18.7766401 L119.368105,18.7779082 L119.363533,18.7880536 C118.941639,19.7417207 118.214101,20.5552546 117.259942,21.023845 C115.896951,21.6934411 114.541797,21.7467044 113.195134,21.1849031 C112.398368,20.8513733 111.761609,20.3650284 111.28355,19.7226981 L111.297265,19.6770438 L122.021594,15.5288456 C122.609372,15.3012083 122.920894,14.6550734 122.690354,14.0831268 L122.67664,14.0488861 C121.835465,11.9988823 120.375164,10.5404818 118.295084,9.67178234 C116.215658,8.80308291 114.120557,8.77645125 112.009129,9.5944237 L112.009129,9.5944237 Z M40.6012002,13.4414306 L33.1416492,16.3271613 L33.0991986,16.2948229 C33.1429554,16.0202631 33.216101,15.7444352 33.3205948,15.466705 C33.8202058,14.1344879 34.950045,13.0838054 36.3404656,12.6500898 C37.4298134,12.3102191 38.5139365,12.3653846 39.5934881,12.8155865 C39.971625,12.9741083 40.3105768,13.1649686 40.6090372,13.3894354 L40.6012002,13.4414306 Z M34.6999129,9.5944237 C32.5891382,10.411128 31.0857337,11.8289469 30.1916587,13.8478805 C29.2969305,15.866814 29.270154,17.9009657 30.1119821,19.9509695 C30.9531572,22.0009733 32.4128049,23.460642 34.4928846,24.3287073 C36.5723112,25.1974068 38.6674118,25.2227703 40.7788396,24.406066 C42.8902674,23.5893617 44.3930188,22.1715428 45.287747,20.1526092 L45.2975433,20.129148 C45.2975433,20.129148 45.923853,18.3803356 44.3237917,17.8686272 C42.7831613,17.3772097 42.0660726,18.7639583 42.0595417,18.7766401 L42.0588886,18.7779082 L42.054317,18.7880536 C41.6324233,19.7417207 40.9048853,20.5552546 39.9507263,21.023845 C38.5877353,21.6934411 37.2325814,21.7467044 35.8859175,21.1849031 C35.0891523,20.8513733 34.4523933,20.3650284 33.9743341,19.7226981 L33.9880489,19.6770438 L44.712378,15.5288456 C45.3001556,15.3012083 45.6116777,14.6550734 45.3811383,14.0831268 L45.3674235,14.0488861 C44.5262484,11.9988823 43.0659476,10.5404818 40.9858679,9.67178234 C38.9064414,8.80308291 36.8113407,8.77645125 34.6999129,9.5944237 L34.6999129,9.5944237 Z M195.157925,13.4414306 L187.698374,16.3271613 L187.655923,16.2948229 C187.69968,16.0202631 187.772826,15.7444352 187.87732,15.466705 C188.376931,14.1344879 189.50677,13.0838054 190.89719,12.6500898 C191.986538,12.3102191 193.070661,12.3653846 194.150213,12.8155865 C194.52835,12.9741083 194.867302,13.1649686 195.165762,13.3894354 L195.157925,13.4414306 Z M189.256638,9.5944237 C187.145863,10.411128 185.642459,11.8289469 184.748384,13.8478805 C183.853655,15.866814 183.826879,17.9009657 184.668707,19.9509695 C185.509882,22.0009733 186.96953,23.460642 189.04961,24.3287073 C191.129036,25.1974068 193.224137,25.2227703 195.335565,24.406066 C197.446992,23.5893617 198.949744,22.1715428 199.844472,20.1526092 L199.854268,20.129148 C199.854268,20.129148 200.480578,18.3803356 198.880517,17.8686272 C197.339886,17.3772097 196.622798,18.7639583 196.616267,18.7766401 L196.615614,18.7779082 L196.611042,18.7880536 C196.189148,19.7417207 195.46161,20.5552546 194.507451,21.023845 C193.14446,21.6934411 191.789306,21.7467044 190.442642,21.1849031 C189.645877,20.8513733 189.009118,20.3650284 188.531059,19.7226981 L188.544774,19.6770438 L199.269103,15.5288456 C199.856881,15.3012083 200.168403,14.6550734 199.937863,14.0831268 L199.924148,14.0488861 C199.082973,11.9988823 197.622673,10.5404818 195.542593,9.67178234 C193.463166,8.80308291 191.368066,8.77645125 189.256638,9.5944237 L189.256638,9.5944237 Z M86.3749376,17.5623463 C86.2922371,18.4686888 85.9550736,19.271539 85.3628109,19.9696422 C84.3913982,21.1155853 82.8792516,21.7340308 81.3696496,21.6004315 C80.4516741,21.5195193 79.6386647,21.1870892 78.9306213,20.6050228 C77.7664529,19.6466205 77.1385653,18.1544483 77.2740669,16.664785 C77.3561312,15.7596969 77.6932947,14.9581013 78.2849213,14.2587435 C79.2569701,13.1121732 80.7697529,12.4937277 82.2793549,12.627327 C83.1979665,12.7088665 84.0109759,13.0406694 84.7196555,13.6246174 C85.8831878,14.5817653 86.5104392,16.0739375 86.3749376,17.5623463 Z M88.1091033,0.0307341061 C87.1625007,0.0307341061 86.3946585,0.787796678 86.3946585,1.72048271 L86.3946585,10.1071303 C86.3946585,10.3216418 86.1573717,10.4546139 85.9722499,10.3417131 C84.7520996,9.59970395 83.3690929,9.22775854 81.8245022,9.22775854 C79.6106738,9.22775854 77.7238303,9.99673842 76.1652442,11.534071 C74.6053857,13.0714035 73.8260926,14.9311305 73.8260926,17.1138793 C73.8260926,19.296628 74.6053857,21.1563551 76.1652442,22.6943148 C77.7238303,24.2316473 79.6106738,25 81.8245022,25 C84.0383307,25 85.924538,24.2316473 87.4837603,22.6943148 C89.0436188,21.1563551 89.8229119,19.296628 89.8229119,17.1138793 L89.8229119,1.72048271 C89.8229119,0.787796678 89.0557058,0.0307341061 88.1091033,0.0307341061 L88.1091033,0.0307341061 Z M67.3435696,13.6704474 C66.5987333,13.0081916 65.636547,12.6124764 64.6375003,12.5589162 C63.1452855,12.4776307 61.9002903,12.989288 60.9012436,14.0926276 C60.2326703,14.8311279 59.8329245,15.7857593 59.7782693,16.7775677 C59.6962865,18.2583491 60.2123335,19.4940139 61.3270459,20.4845621 C62.0718823,21.1468179 63.0340685,21.541903 64.0331152,21.5960933 C65.5259655,21.6773787 66.7722318,21.1657215 67.7712785,20.0611216 C68.4392163,19.3226213 68.838962,18.3679899 68.8936173,17.3768116 C68.9749646,15.8966604 68.4589176,14.6603655 67.3435696,13.6704474 Z M69.3060736,24.4744802 C69.0899948,24.2570888 68.9018791,23.8437303 68.9018791,23.6023945 C67.5818918,24.5343415 66.0598073,25 64.3356255,25 C62.1239954,25 60.2390256,24.2274732 58.6819871,22.6830498 C57.1243132,21.1386263 56.3451584,19.2703214 56.3451584,17.0775047 C56.3451584,14.8846881 57.1243132,13.0163831 58.6819871,11.4713296 C60.2390256,9.92690611 62.1239954,9.15500945 64.3356255,9.15500945 C66.5472557,9.15500945 68.4322255,9.92690611 69.9892639,11.4713296 C71.5475734,13.0163831 72.3260926,14.8846881 72.3260926,17.0775047 L72.3260926,23.6023945 C72.3260926,23.8342785 72.1748375,24.2583491 71.9632074,24.4505356 C71.2228197,25.1222432 69.8526258,25.0252048 69.3060736,24.4744802 L69.3060736,24.4744802 Z M20.1600748,9 C17.9901122,9 16.1406556,9.77887632 14.6123285,11.3359936 C14.3903438,11.5615247 14.1864422,11.7927735 13.9993764,12.0310105 C13.8129343,11.7927735 13.6090326,11.5615247 13.3870479,11.3359936 C11.8587208,9.77887632 10.0098878,9 7.83992517,9 C5.66996259,9 3.82050597,9.77887632 2.29280242,11.3359936 C0.763851773,12.893111 0,14.7767719 0,16.9876117 L0,23.252293 C0,24.2046059 0.756992696,24.9752233 1.69107429,24.9752233 C2.61268484,24.9752233 3.35970069,24.2135001 3.35970069,23.2745285 L3.35970069,17.0632122 C3.35970069,15.9184038 3.74256191,14.7901132 4.50017816,13.9438952 C5.36379833,12.9801469 6.41199002,12.4744491 7.64662391,12.4268017 C8.99848566,12.3747072 10.3204169,12.9560056 11.2177089,13.9883661 C11.9528772,14.8339488 12.3195261,15.8332738 12.3195261,16.9876117 L12.3195261,23.2516577 C12.3195261,24.2039706 13.0771423,24.9752233 14.0118475,24.9752233 C14.9328345,24.9752233 15.6798503,24.2141354 15.6798503,23.2764344 L15.6798503,16.9876117 C15.6798503,15.8332738 16.0471228,14.8333135 16.7822911,13.9883661 C17.6795831,12.9560056 19.0015143,12.3747072 20.3533761,12.4268017 C21.5886335,12.4744491 22.6374488,12.9807822 23.5004454,13.9458011 C24.2574381,14.7920191 24.6396758,15.9196744 24.6396758,17.0644828 L24.6396758,23.1957514 C24.6396758,24.1785587 25.4216105,24.9752233 26.3868698,24.9752233 C27.2779262,24.9752233 28,24.2389121 28,23.3317054 L28,16.9876117 C28,14.7767719 27.2355247,12.893111 25.7071976,11.3359936 C24.1788705,9.77887632 22.3300374,9 20.1600748,9 M50.4762751,12.677018 L53.0710053,12.677018 C54.0509301,12.677018 54.8451584,11.8760115 54.8451584,10.8891362 C54.8451584,9.99519523 54.1262124,9.27005361 53.2385085,9.27005361 L50.4762751,9.27005361 C50.3997381,9.27005361 50.3382575,9.2074651 50.3382575,9.13033583 L50.3382575,1.85616023 C50.3382575,0.83072021 49.5132889,0 48.4963504,0 C47.6462877,0 46.9574545,0.694163463 46.9574545,1.55080417 L46.9574545,17.218162 C46.9574545,19.4188752 47.7259614,21.2940016 49.2642299,22.8429092 C50.3144181,23.9024884 51.5164257,24.5991807 52.8683705,24.9342505 C53.8727619,25.1833401 54.8451584,24.4196338 54.8451584,23.3777564 C54.8451584,22.5508295 54.3150455,21.8105149 53.5283454,21.5753338 C52.8809175,21.3818784 52.2949702,21.0373255 51.7717582,20.5410429 C50.8257105,19.6439409 50.3382575,18.3605604 50.3382575,17.0518916 L50.3382575,12.8154714 C50.3382575,12.7389743 50.3997381,12.677018 50.4762751,12.677018 M145.277224,12.677018 L147.871954,12.677018 C148.851879,12.677018 149.646107,11.8760115 149.646107,10.8891362 C149.646107,9.99519523 148.927161,9.27005361 148.039457,9.27005361 L145.277224,9.27005361 C145.200687,9.27005361 145.139206,9.2074651 145.139206,9.13033583 L145.139206,1.85616023 C145.139206,0.83072021 144.314238,0 143.297299,0 C142.447236,0 141.758403,0.694163463 141.758403,1.55080417 L141.758403,17.218162 C141.758403,19.4188752 142.52691,21.2940016 144.065179,22.8429092 C145.115367,23.9024884 146.317374,24.5991807 147.669319,24.9342505 C148.673711,25.1833401 149.646107,24.4196338 149.646107,23.3777564 C149.646107,22.5508295 149.115994,21.8105149 148.329294,21.5753338 C147.681866,21.3818784 147.095919,21.0373255 146.572707,20.5410429 C145.626659,19.6439409 145.139206,18.3605604 145.139206,17.0518916 L145.139206,12.8154714 C145.139206,12.7389743 145.200687,12.677018 145.277224,12.677018 M132.262537,9 C130.049412,9 128.163805,9.77733307 126.604442,11.3307311 C125.046352,12.8853973 124.266671,14.7653259 124.266671,16.9711512 L124.266671,23.2906281 C124.266671,24.2036457 125.008831,24.9435704 125.924606,24.9435704 C126.901434,24.9435704 127.693834,24.1535566 127.693834,23.1790371 L127.693834,16.9711512 C127.693834,15.5927482 128.23058,14.434357 129.304073,13.4978799 C130.006803,12.8841292 130.897777,12.5049733 131.828815,12.4333267 C133.473396,12.3065187 134.823529,12.8885675 135.879851,14.1788389 C136.517078,14.9574401 136.831876,15.9497127 136.831876,16.9540321 L136.831876,22.9977016 C136.831876,24.0723994 137.705043,24.9435704 138.782987,24.9435704 C139.598282,24.9435704 140.258403,24.2848029 140.258403,23.4719635 L140.258403,16.9711512 C140.258403,14.7653259 139.479358,12.8853973 137.920631,11.3307311 C136.361905,9.77733307 134.475661,9 132.262537,9 M181.889545,11.3567963 L181.872226,11.3389804 C180.35557,9.78008431 178.521603,9 176.369708,9 C174.216576,9 172.38199,9.78008431 170.866571,11.3389804 C169.349915,12.899149 168.592205,14.7857313 168.592205,16.9993637 L168.592205,23.3469339 C168.592205,24.2593653 169.311565,25 170.19855,25 C171.152336,25 171.925509,24.2046449 171.925509,23.2241311 L171.925509,17.0273602 C171.925509,15.8826851 172.325085,14.7660065 173.08032,13.9248389 C174.085445,12.8056152 175.342934,12.3144039 176.852787,12.4505687 C177.861004,12.5415573 178.795616,13.0314961 179.511265,13.7676768 L179.528584,13.786129 C179.528584,13.786129 180.844215,15.0497892 182.012016,13.8993876 C183.30538,12.6255468 181.889545,11.3567963 181.889545,11.3567963 M103.476642,9.01525383 L103.476642,9.01525383 C102.780899,9.01525383 102.145234,9.40295543 101.836445,10.0162866 L98.5709113,17.9673473 C98.4985592,18.2006038 98.2582469,18.2501788 98.1393828,17.9883213 L94.8473626,10.0251847 C94.5405122,9.40676889 93.9022634,9.01525383 93.2032905,9.01525383 L93.1554865,9.01525383 C91.7950088,9.01525383 90.9099876,10.4243267 91.5185204,11.6217526 L96.6794209,24.0046874 C97.3538458,25.3317709 99.2782822,25.3317709 99.9533531,24.0046874 L105.113608,11.6217526 C105.72214,10.4243267 104.837119,9.01525383 103.476642,9.01525383 M165.522073,9.09990515 L165.43583,9.09990515 C164.463693,9.09990515 163.675456,9.88586785 163.675456,10.8552008 L163.675456,16.9367689 C163.675456,18.1868479 163.208094,19.408473 162.315224,20.2867531 C161.558695,21.0316156 160.668996,21.4577932 159.647395,21.5652861 C158.041117,21.7347455 156.429766,21.0379387 155.45319,19.7543471 C154.860268,18.9747076 154.563491,18.0730319 154.563491,17.0493203 L154.563491,10.762251 C154.563491,9.84413531 153.817107,9.09990515 152.895701,9.09990515 C151.929271,9.09990515 151.146107,9.88080936 151.146107,10.8444515 L151.146107,17.0493203 C151.146107,19.2503952 151.923563,21.1258299 153.477208,22.6749921 C155.03212,24.2247866 156.912981,25 159.119156,25 C161.325965,25 163.206826,24.2247866 164.761105,22.6749921 C166.314749,21.1258299 167.092205,19.2503952 167.092205,17.0493203 L167.092205,10.6655074 C167.092205,9.80050585 166.389577,9.09990515 165.522073,9.09990515" id="Combined-Shape"></path>
            </g>
        </g>
    </g>
</svg>