<?xml version="1.0" encoding="UTF-8"?>
<svg width="201px" height="25px" viewBox="0 0 201 25" version="1.1" xmlns="http://www.w3.org/2000/svg" xmlns:xlink="http://www.w3.org/1999/xlink">
    <title>typo-white</title>
    <g id="Design-system" stroke="none" stroke-width="1" fill="none" fill-rule="evenodd">
        <g id="Logo" transform="translate(-638.000000, -437.000000)" fill="#FFFFFF">
            <g id="typo-white" transform="translate(638.000000, 437.000000)">
                <path d="M165.522,9.1 L165.436,9.1 C164.464,9.1 163.675,9.886 163.675,10.855 L163.675,16.937 C163.675,18.187 163.208,19.409 162.315,20.287 C161.559,21.032 160.669,21.458 159.647,21.565 C158.041,21.735 156.43,21.038 155.453,19.754 C154.86,18.975 154.563,18.073 154.563,17.049 L154.563,10.762 C154.563,9.844 153.817,9.1 152.896,9.1 C151.929,9.1 151.146,9.881 151.146,10.845 L151.146,17.049 C151.146,19.25 151.923,21.126 153.477,22.675 C155.032,24.225 156.913,25 159.119,25 C161.326,25 163.207,24.225 164.761,22.675 C166.315,21.126 167.092,19.25 167.092,17.049 L167.092,10.666 C167.092,9.801 166.389,9.1 165.522,9.1 L165.522,9.1 Z M103.477,9.015 L103.477,9.015 C102.781,9.015 102.145,9.403 101.836,10.016 L98.571,17.967 C98.498,18.201 98.258,18.25 98.139,17.988 L94.847,10.025 C94.54,9.407 93.902,9.015 93.203,9.015 L93.155,9.015 C91.795,9.015 90.91,10.424 91.518,11.622 L96.679,24.005 C97.354,25.332 99.278,25.332 99.953,24.005 L105.114,11.622 C105.722,10.424 104.837,9.015 103.477,9.015 L103.477,9.015 Z M181.889,11.357 L181.872,11.339 C180.355,9.78 178.522,9 176.37,9 C174.217,9 172.382,9.78 170.866,11.339 C169.35,12.899 168.592,14.786 168.592,16.999 L168.592,23.347 C168.592,24.259 169.311,25 170.198,25 C171.152,25 171.925,24.205 171.925,23.224 L171.925,17.027 C171.925,15.883 172.325,14.766 173.08,13.925 C174.085,12.806 175.343,12.315 176.853,12.451 C177.861,12.542 178.796,13.032 179.511,13.768 L179.529,13.786 C179.529,13.786 180.844,15.05 182.012,13.899 C183.305,12.626 181.889,11.357 181.889,11.357 L181.889,11.357 Z M132.262,9 C130.049,9 128.164,9.777 126.604,11.331 C125.046,12.885 124.267,14.765 124.267,16.971 L124.267,23.291 C124.267,24.204 125.009,24.944 125.925,24.944 C126.901,24.944 127.694,24.154 127.694,23.179 L127.694,16.971 C127.694,15.593 128.23,14.434 129.304,13.498 C130.007,12.884 130.898,12.505 131.829,12.433 C133.473,12.307 134.823,12.889 135.88,14.179 C136.517,14.958 136.832,15.95 136.832,16.954 L136.832,22.998 C136.832,24.073 137.705,24.944 138.783,24.944 C139.598,24.944 140.258,24.285 140.258,23.472 L140.258,16.971 C140.258,14.765 139.479,12.885 137.921,11.331 C136.362,9.777 134.476,9 132.262,9 L132.262,9 Z M145.277,12.677 L147.872,12.677 C148.852,12.677 149.646,11.876 149.646,10.889 C149.646,9.995 148.927,9.27 148.039,9.27 L145.277,9.27 C145.201,9.27 145.139,9.208 145.139,9.13 L145.139,1.856 C145.139,0.831 144.314,0 143.297,0 C142.447,0 141.758,0.694 141.758,1.551 L141.758,17.218 C141.758,19.419 142.527,21.294 144.065,22.843 C145.115,23.903 146.317,24.599 147.669,24.934 C148.674,25.183 149.646,24.42 149.646,23.378 C149.646,22.551 149.116,21.811 148.329,21.575 C147.682,21.382 147.096,21.037 146.573,20.541 C145.627,19.644 145.139,18.361 145.139,17.052 L145.139,12.816 C145.139,12.739 145.201,12.677 145.277,12.677 L145.277,12.677 Z M50.476,12.677 L53.071,12.677 C54.051,12.677 54.845,11.876 54.845,10.889 C54.845,9.995 54.126,9.27 53.238,9.27 L50.476,9.27 C50.4,9.27 50.338,9.208 50.338,9.13 L50.338,1.856 C50.338,0.831 49.513,0 48.496,0 C47.646,0 46.957,0.694 46.957,1.551 L46.957,17.218 C46.957,19.419 47.726,21.294 49.264,22.843 C50.314,23.903 51.516,24.599 52.868,24.934 C53.873,25.183 54.845,24.42 54.845,23.378 C54.845,22.551 54.315,21.811 53.528,21.575 C52.881,21.382 52.295,21.037 51.772,20.541 C50.826,19.644 50.338,18.361 50.338,17.052 L50.338,12.816 C50.338,12.739 50.4,12.677 50.476,12.677 L50.476,12.677 Z M20.16,9 C17.99,9 16.141,9.779 14.612,11.336 C14.39,11.562 14.186,11.793 13.999,12.031 C13.813,11.793 13.609,11.562 13.387,11.336 C11.859,9.779 10.01,9 7.84,9 C5.67,9 3.82,9.779 2.293,11.336 C0.764,12.893 1.13686838e-13,14.777 1.13686838e-13,16.988 L1.13686838e-13,23.252 C1.13686838e-13,24.205 0.757,24.975 1.691,24.975 C2.613,24.975 3.36,24.214 3.36,23.275 L3.36,17.063 C3.36,15.918 3.742,14.79 4.5,13.944 C5.364,12.98 6.412,12.475 7.647,12.427 C8.998,12.375 10.32,12.956 11.218,13.988 C11.953,14.834 12.319,15.833 12.319,16.988 L12.319,23.252 C12.319,24.204 13.077,24.975 14.012,24.975 C14.933,24.975 15.68,24.214 15.68,23.277 L15.68,16.988 C15.68,15.833 16.047,14.833 16.782,13.988 C17.68,12.956 19.001,12.375 20.353,12.427 C21.589,12.475 22.637,12.981 23.5,13.946 C24.257,14.792 24.64,15.92 24.64,17.065 L24.64,23.196 C24.64,24.179 25.422,24.975 26.387,24.975 C27.278,24.975 28,24.239 28,23.332 L28,16.988 C28,14.777 27.235,12.893 25.707,11.336 C24.179,9.779 22.33,9 20.16,9 L20.16,9 Z M69.306,24.475 C69.09,24.257 68.902,23.844 68.902,23.602 C67.582,24.534 66.06,25 64.336,25 C62.124,25 60.239,24.228 58.682,22.683 C57.124,21.139 56.345,19.27 56.345,17.078 C56.345,14.885 57.124,13.016 58.682,11.471 C60.239,9.927 62.124,9.155 64.336,9.155 C66.547,9.155 68.432,9.927 69.989,11.471 C71.547,13.016 72.326,14.885 72.326,17.078 L72.326,23.602 C72.326,23.834 72.175,24.258 71.963,24.451 C71.223,25.122 69.853,25.025 69.306,24.475 L69.306,24.475 Z M67.343,13.671 C66.599,13.008 65.636,12.613 64.637,12.559 C63.145,12.478 61.9,12.989 60.901,14.093 C60.233,14.831 59.833,15.786 59.778,16.778 C59.696,18.258 60.212,19.494 61.327,20.485 C62.072,21.147 63.034,21.542 64.033,21.596 C65.526,21.677 66.772,21.166 67.771,20.061 C68.439,19.323 68.839,18.368 68.894,17.377 C68.975,15.897 68.459,14.66 67.343,13.671 L67.343,13.671 Z M88.109,0.031 C87.162,0.031 86.395,0.788 86.395,1.721 L86.395,10.107 C86.395,10.322 86.157,10.455 85.972,10.342 C84.752,9.6 83.369,9.228 81.824,9.228 C79.611,9.228 77.724,9.997 76.165,11.534 C74.605,13.071 73.826,14.931 73.826,17.114 C73.826,19.297 74.605,21.156 76.165,22.694 C77.724,24.232 79.611,25 81.824,25 C84.038,25 85.924,24.232 87.484,22.694 C89.044,21.156 89.823,19.297 89.823,17.114 L89.823,1.721 C89.823,0.788 89.056,0.031 88.109,0.031 L88.109,0.031 Z M86.375,17.562 C86.292,18.469 85.955,19.272 85.363,19.97 C84.391,21.116 82.879,21.734 81.37,21.601 C80.452,21.52 79.639,21.187 78.931,20.605 C77.766,19.647 77.138,18.155 77.274,16.665 C77.356,15.76 77.693,14.958 78.285,14.259 C79.257,13.112 80.77,12.494 82.279,12.627 C83.198,12.709 84.011,13.041 84.72,13.625 C85.883,14.582 86.51,16.074 86.375,17.562 L86.375,17.562 Z M189.257,9.595 C187.146,10.411 185.642,11.829 184.748,13.848 C183.854,15.867 183.827,17.901 184.669,19.951 C185.51,22.001 186.969,23.461 189.05,24.329 C191.129,25.198 193.224,25.223 195.335,24.406 C197.447,23.589 198.95,22.172 199.844,20.153 L199.854,20.129 C199.854,20.129 200.48,18.38 198.88,17.869 C197.34,17.377 196.623,18.764 196.616,18.777 L196.616,18.778 L196.611,18.788 C196.189,19.742 195.462,20.555 194.507,21.024 C193.144,21.694 191.789,21.747 190.443,21.185 C189.646,20.851 189.009,20.365 188.531,19.723 L188.545,19.677 L199.269,15.529 C199.857,15.301 200.168,14.655 199.938,14.083 L199.924,14.049 C199.083,11.999 197.623,10.541 195.543,9.672 C193.463,8.803 191.368,8.777 189.257,9.595 L189.257,9.595 Z M195.158,13.442 L187.698,16.327 L187.656,16.295 C187.7,16.02 187.773,15.745 187.877,15.467 C188.377,14.135 189.507,13.084 190.897,12.65 C191.986,12.31 193.071,12.365 194.15,12.816 C194.528,12.974 194.867,13.165 195.166,13.39 L195.158,13.442 Z M34.7,9.595 C32.589,10.411 31.086,11.829 30.192,13.848 C29.297,15.867 29.27,17.901 30.112,19.951 C30.953,22.001 32.413,23.461 34.493,24.329 C36.572,25.198 38.667,25.223 40.779,24.406 C42.89,23.589 44.393,22.172 45.288,20.153 L45.297,20.129 C45.297,20.129 45.924,18.38 44.324,17.869 C42.783,17.377 42.066,18.764 42.059,18.777 L42.059,18.778 L42.054,18.788 C41.632,19.742 40.905,20.555 39.951,21.024 C38.588,21.694 37.233,21.747 35.886,21.185 C35.089,20.851 34.452,20.365 33.974,19.723 L33.988,19.677 L44.712,15.529 C45.3,15.301 45.612,14.655 45.381,14.083 L45.367,14.049 C44.526,11.999 43.066,10.541 40.986,9.672 C38.906,8.803 36.811,8.777 34.7,9.595 L34.7,9.595 Z M40.601,13.442 L33.142,16.327 L33.099,16.295 C33.143,16.02 33.216,15.745 33.321,15.467 C33.82,14.135 34.95,13.084 36.34,12.65 C37.43,12.31 38.514,12.365 39.593,12.816 C39.972,12.974 40.31,13.165 40.609,13.39 L40.601,13.442 Z M112.009,9.595 C109.898,10.411 108.395,11.829 107.501,13.848 C106.606,15.867 106.579,17.901 107.421,19.951 C108.262,22.001 109.722,23.461 111.802,24.329 C113.881,25.198 115.977,25.223 118.088,24.406 C120.199,23.589 121.702,22.172 122.597,20.153 L122.607,20.129 C122.607,20.129 123.233,18.38 121.633,17.869 C120.092,17.377 119.375,18.764 119.369,18.777 L119.368,18.778 L119.363,18.788 C118.942,19.742 118.214,20.555 117.26,21.024 C115.897,21.694 114.542,21.747 113.195,21.185 C112.398,20.851 111.762,20.365 111.283,19.723 L111.297,19.677 L122.022,15.529 C122.609,15.301 122.921,14.655 122.69,14.083 L122.677,14.049 C121.835,11.999 120.375,10.541 118.295,9.672 C116.216,8.803 114.12,8.777 112.009,9.595 L112.009,9.595 Z M117.91,13.442 L110.451,16.327 L110.408,16.295 C110.452,16.02 110.525,15.745 110.63,15.467 C111.129,14.135 112.259,13.084 113.65,12.65 C114.739,12.31 115.823,12.365 116.903,12.816 C117.281,12.974 117.62,13.165 117.918,13.39 L117.91,13.442 Z" id="Fill-3"></path>
            </g>
        </g>
    </g>
</svg>