<?xml version="1.0" encoding="UTF-8"?>
<svg width="24px" height="24px" viewBox="0 0 24 24" version="1.1" xmlns="http://www.w3.org/2000/svg" xmlns:xlink="http://www.w3.org/1999/xlink">
    <title>floor</title>
    <g id="Design-system" stroke="none" stroke-width="1" fill="none" fill-rule="evenodd">
        <g id="Navigation" transform="translate(-148.000000, -445.000000)" fill="#FFFFFF" fill-rule="nonzero">
            <g id="Group-2" transform="translate(128.000000, 203.000000)">
                <g id="floor" transform="translate(20.000000, 242.000000)">
                    <path d="M0,0 L0,24 L24,24 L24,0 L0,0 Z M21.5660156,1.42579688 L19.5247031,3.4670625 L17.4834375,1.42579688 L21.5660156,1.42579688 Z M22.5742031,2.43398437 L22.5742031,7.94235938 L15.762375,14.7541406 L13.0081875,11.9999531 L22.5742031,2.43398437 Z M18.5165625,4.47525 L4.47525,18.5165156 L1.7210625,15.7623281 L15.762375,1.72110937 L18.5165625,4.47525 Z M14.0412656,1.42579687 L8.237625,7.2294375 L5.4834375,4.47525 L8.53289063,1.42579687 L14.0412656,1.42579687 Z M1.42579688,1.42579688 L6.5165625,1.42579688 L1.42579688,6.5165625 L1.42579688,1.42579688 Z M1.42579687,8.5329375 L4.47525,5.48348437 L7.2294375,8.23767188 L1.42579687,14.0412187 L1.42579687,8.5329375 Z M1.42579688,17.4833906 L3.4670625,19.5246562 L1.42579688,21.5659219 L1.42579688,17.4833906 Z M2.43398438,22.5742031 L12,13.0081875 L14.7541875,15.762375 L7.94235938,22.5742031 L2.43398438,22.5742031 Z M9.95873438,22.5742031 L22.5742031,9.95878125 L22.5742031,15.4670625 L15.4670625,22.5742031 L9.95873438,22.5742031 Z M19.5247031,20.5329375 L21.5659687,22.5742031 L17.4834844,22.5742031 L19.5247031,20.5329375 Z M20.5329375,19.52475 L22.5742031,17.4834844 L22.5742031,21.5660156 L20.5329375,19.52475 Z" id="Shape"></path>
                </g>
            </g>
        </g>
    </g>
</svg>