<?xml version="1.0" encoding="UTF-8"?>
<svg width="24px" height="24px" viewBox="0 0 24 24" version="1.1" xmlns="http://www.w3.org/2000/svg" xmlns:xlink="http://www.w3.org/1999/xlink">
    <title>interactions</title>
    <g id="Design-system" stroke="none" stroke-width="1" fill="none" fill-rule="evenodd">
        <g id="Navigation" transform="translate(-148.000000, -484.000000)" fill="#FFFFFF">
            <g id="Group-2" transform="translate(128.000000, 203.000000)">
                <g id="interactions" transform="translate(20.000000, 281.000000)">
                    <path d="M1.67444553,12.000193 C1.67444553,6.29744453 6.29744453,1.67444553 12.000193,1.67444553 C17.6737726,1.67444553 22.2787211,6.25040377 22.3256055,11.9128986 C22.3294009,12.3752688 22.7073791,12.7469957 23.1697493,12.7430886 C23.6321196,12.7392932 24.0038465,12.3614267 23.99997,11.8990565 C23.9455758,5.31798319 18.5939362,0 12.000193,0 C5.37267058,0 0,5.37267058 0,12.000193 C0,18.5939362 5.31798319,23.9455758 11.8990565,23.99997 C12.3614267,24.0038465 12.7392932,23.6321196 12.7430886,23.1697493 C12.7469957,22.7073791 12.3752688,22.3294009 11.9128986,22.3256055 C6.25040377,22.2787211 1.67444553,17.6737726 1.67444553,12.000193 Z M12.000193,7.25593064 C9.38000945,7.25593064 7.25593064,9.38000945 7.25593064,12.000193 C7.25593064,13.9911087 8.48254013,15.697592 10.2243877,16.401194 C10.6531574,16.5743317 10.8603421,17.0622651 10.6870928,17.4910348 C10.5139551,17.9198045 10.0260217,18.1268775 9.59724085,17.9537399 C7.24420952,17.003213 5.58148511,14.6968317 5.58148511,12.000193 C5.58148511,8.45523551 8.45523551,5.58148511 12.000193,5.58148511 C14.6968317,5.58148511 17.003213,7.24420952 17.9537399,9.59724085 C18.1268775,10.0260217 17.9198045,10.5139551 17.4910348,10.6870928 C17.0622651,10.8603421 16.5743317,10.6531574 16.401194,10.2243877 C15.697592,8.48254013 13.9911087,7.25593064 12.000193,7.25593064 L12.000193,7.25593064 Z M14.9805944,22.3386662 L12.0641568,13.5892418 C11.7499192,12.6467522 12.6467522,11.7499192 13.5892418,12.0641568 L22.3386662,14.9805944 C23.4379955,15.3470747 23.4379955,16.9019648 22.3386662,17.2683335 L19.1078794,18.3453369 C18.7478736,18.4653388 18.4653388,18.7478736 18.3453369,19.1078794 L17.2683335,22.3386662 C16.9019648,23.4379955 15.3470747,23.4379955 14.9805944,22.3386662 Z" id="Shape"></path>
                </g>
            </g>
        </g>
    </g>
</svg>