<?xml version="1.0" encoding="UTF-8"?>
<svg width="24px" height="24px" viewBox="0 0 24 24" version="1.1" xmlns="http://www.w3.org/2000/svg" xmlns:xlink="http://www.w3.org/1999/xlink">
    <title>left</title>
    <g id="Design-system" stroke="none" stroke-width="1" fill="none" fill-rule="evenodd">
        <g id="Navigation" transform="translate(-148.000000, -538.000000)" fill="#FFFFFF">
            <g id="Group-2" transform="translate(128.000000, 203.000000)">
                <g id="left" transform="translate(20.000000, 335.000000)">
                    <path d="M12,0 C16.21212,0 19.30668,0.690612 21.30804,2.691948 C23.3094,4.693284 24,7.78788 24,11.999988 C24,16.212108 23.3094,19.306668 21.30804,21.308028 C19.30668,23.309388 16.21212,23.999988 12,23.999988 C7.78788,23.999988 4.693284,23.309388 2.69196,21.308028 C0.690624,19.306668 0,16.212108 0,11.999988 C0,7.78788 0.690624,4.693284 2.69196,2.691948 C4.693284,0.690612 7.78788,0 12,0 Z M12,1.8 C7.88772,1.8 5.432316,2.497176 3.964752,3.96474 C2.497176,5.432304 1.8,7.887708 1.8,11.999988 C1.8,16.112268 2.497176,18.567708 3.964752,20.035308 C5.432316,21.502788 7.88772,22.199988 12,22.199988 C16.11228,22.199988 18.56772,21.502788 20.0352,20.035308 C21.5028,18.567708 22.2,16.112268 22.2,11.999988 C22.2,7.887708 21.5028,5.432304 20.0352,3.96474 C18.56772,2.497176 16.11228,1.8 12,1.8 Z M13.22124,16.906668 L13.20672,16.896708 L13.16916,16.870548 C13.13664,16.847988 13.08972,16.815108 13.03056,16.773228 C12.91212,16.689348 12.74388,16.568868 12.54252,16.420428 C12.14088,16.124268 11.60172,15.713028 11.05956,15.257268 C10.5222,14.805708 9.95844,14.290908 9.521388,13.788228 C9.303204,13.537188 9.098052,13.268268 8.943156,12.994068 C8.796012,12.733668 8.646984,12.386868 8.646984,12.000348 C8.646984,11.613828 8.795988,11.267028 8.943096,11.006628 C9.097956,10.732428 9.303084,10.463388 9.521244,10.212348 C9.95832,9.709308 10.52196,9.194304 11.05932,8.742384 C11.60148,8.286348 12.14052,7.874832 12.54228,7.57848 C12.74364,7.429896 12.91176,7.309284 13.0302,7.225392 C13.08948,7.183428 13.1364,7.150596 13.1688,7.127988 L13.20648,7.101864 L13.21668,7.094796 C13.63068,6.810768 14.19108,6.914892 14.47224,7.32474 C14.7318831,7.703028 14.6630017,8.20942317 14.3286438,8.50630719 L14.23956,8.575968 L14.22996,8.582592 L14.19756,8.60502 C14.16876,8.625096 14.1258,8.655204 14.0706,8.694252 C13.96032,8.772396 13.80168,8.886156 13.61088,9.026916 C13.2282,9.309276 12.72144,9.696348 12.21792,10.119948 C11.70936,10.547628 11.22732,10.993188 10.88004,11.392908 C10.70592,11.593188 10.58424,11.760948 10.51032,11.891868 C10.48224,11.941548 10.46604,11.977308 10.4568,12.000348 C10.46604,12.023268 10.48224,12.059028 10.51032,12.108708 C10.58424,12.239388 10.7058,12.407148 10.8798,12.607308 C11.22708,13.006788 11.70924,13.451988 12.21768,13.879428 C12.7212,14.302668 13.22796,14.689428 13.61064,14.971548 C13.80144,15.112188 13.96008,15.225828 14.07036,15.303948 C14.12544,15.342948 14.16852,15.373068 14.19732,15.393108 L14.2296,15.415548 L14.23896,15.421908 L14.3281012,15.4915504 C14.6626963,15.7883752 14.7319015,16.2948803 14.47248,16.673268 C14.19144,17.083188 13.63128,17.187708 13.22124,16.906668 Z" id="Combined-Shape"></path>
                </g>
            </g>
        </g>
    </g>
</svg>