<?xml version="1.0" encoding="UTF-8"?>
<svg width="24px" height="24px" viewBox="0 0 24 24" version="1.1" xmlns="http://www.w3.org/2000/svg" xmlns:xlink="http://www.w3.org/1999/xlink">
    <title>move</title>
    <g id="Design-system" stroke="none" stroke-width="1" fill="none" fill-rule="evenodd">
        <g id="Navigation" transform="translate(-148.000000, -223.000000)" fill="#FFFFFF" fill-rule="nonzero">
            <g id="Group-2" transform="translate(128.000000, 203.000000)">
                <g id="move" transform="translate(20.000000, 20.000000)">
                    <path d="M23.7502201,12.6053668 L20.3212509,16.0341447 C19.9860692,16.3693077 19.4442921,16.3693077 19.1091103,16.0341447 C18.7739286,15.6989816 18.7739286,15.1572347 19.1091103,14.8220717 L21.0747669,12.8565248 L12.8572423,12.8565248 L12.8572423,21.0735909 L14.8228989,19.108044 C15.1580806,18.772881 15.6998577,18.772881 16.0350395,19.108044 C16.3702212,19.443207 16.3702212,19.9849539 16.0350395,20.3201169 L12.6060703,23.7488948 C12.2820327,24.0737715 11.7376839,24.0934869 11.3930725,23.7488948 L7.96410329,20.3201169 C7.62892155,19.9849539 7.62892155,19.443207 7.96410329,19.108044 C8.29928503,18.772881 8.84106215,18.772881 9.17624389,19.108044 L11.1427577,21.0735909 L11.1427577,12.8565248 L2.9252331,12.8565248 L4.89088967,14.8220717 C5.22607141,15.1572347 5.22607141,15.6989816 4.89088967,16.0341447 C4.55570794,16.3693077 4.01393081,16.3693077 3.67874907,16.0341447 L0.249779904,12.6053668 C-0.0819728633,12.2736326 -0.0845445902,11.7267425 0.249779904,11.3924367 L3.67874907,7.96365887 C4.01393081,7.62849584 4.55570794,7.62849584 4.89088967,7.96365887 C5.22607141,8.2988219 5.22607141,8.8405688 4.89088967,9.17573183 L2.9252331,11.1421359 L11.1427577,11.1421359 L11.1427577,2.92506986 L9.17710113,4.89061675 C8.8419194,5.22577978 8.30014227,5.22577978 7.96496053,4.89061675 C7.6297788,4.55545371 7.6297788,4.01370682 7.96496053,3.67854379 L11.3939297,0.249765965 C11.7256825,-0.081968289 12.272603,-0.0845398723 12.6069275,0.249765965 L16.0358967,3.67854379 C16.3710784,4.01370682 16.3710784,4.55545371 16.0358967,4.89061675 C15.8678772,5.05776967 15.6484232,5.14177472 15.4289692,5.14177472 C15.2095151,5.14177472 14.9900611,5.05776967 14.8228989,4.89061675 L12.8572423,2.92506986 L12.8572423,11.1421359 L21.0747669,11.1421359 L19.1091103,9.17658902 C18.7739286,8.84142599 18.7739286,8.2996791 19.1091103,7.96451606 C19.4442921,7.62935303 19.9860692,7.62935303 20.3212509,7.96451606 L23.7502201,11.3932939 C24.0845446,11.7267425 24.0819729,12.2744898 23.7502201,12.6053668 L23.7502201,12.6053668 Z" id="Path"></path>
                </g>
            </g>
        </g>
    </g>
</svg>