<?xml version="1.0" encoding="UTF-8"?>
<svg width="23px" height="26px" viewBox="0 0 23 26" version="1.1" xmlns="http://www.w3.org/2000/svg" xmlns:xlink="http://www.w3.org/1999/xlink">
    <title>objects</title>
    <g id="Design-system" stroke="none" stroke-width="1" fill="none" fill-rule="evenodd">
        <g id="Navigation" transform="translate(-149.000000, -404.000000)" fill="#FFFFFF" fill-rule="nonzero">
            <g id="Group-2" transform="translate(128.000000, 203.000000)">
                <g id="objects" transform="translate(21.000000, 201.000000)">
                    <path d="M20.4995889,0.700560195 C19.14978,0.24878901 17.3762687,0 15.5059609,0 C13.6356532,0 11.8621964,0.24878901 10.512333,0.700560195 C8.44565271,1.39223325 8.01186733,2.33071476 8.01186733,2.99623425 L8.01186733,7.70920916 C8.01186733,7.70920916 0.438036583,11.4073748 0.438036583,11.4073748 C0.172009886,11.5372793 0,11.8021667 0,12.0820861 L0,21.3290236 C0,21.61199 0.168358219,21.8716467 0.437164543,22.0032779 C0.437164543,22.0032779 8.41709341,25.9114338 8.42178062,25.9137191 C8.62714604,26.0143214 8.88047365,26.0281346 9.09848365,25.9489121 C9.12617092,25.938857 9.15347667,25.9276338 9.18012839,25.914684 C9.18089142,25.9143285 9.18170896,25.9140746 9.182472,25.9137191 L17.1670881,22.0032779 C17.4359489,21.8716467 17.6042526,21.61199 17.6042526,21.3290236 L17.6042526,20.6047475 C18.931879,20.4657019 20.1020476,20.1983261 21.015455,19.8229335 C22.6557077,19.1488823 23,18.3050615 23,17.7159206 L23,2.99623425 C23,2.33071476 22.5662691,1.39223325 20.4995889,0.700560195 Z M11.0650973,2.13438524 C12.225074,1.74614438 13.8436892,1.52350894 15.5059609,1.52350894 C17.1682326,1.52350894 18.7868478,1.74614438 19.9468245,2.13438524 C21.112633,2.5245051 21.3649795,2.91939862 21.3649795,2.99623425 C21.3649795,3.07306989 21.112633,3.4679634 19.9468245,3.85808326 C18.7868478,4.24632412 17.1682326,4.46895956 15.5059609,4.46895956 C13.8436892,4.46895956 12.225074,4.24632412 11.0650973,3.85808326 C9.89928886,3.46791262 9.64694229,3.07306989 9.64694229,2.99623425 C9.64694229,2.91939862 9.89928886,2.5245051 11.0650973,2.13438524 Z M8.80215356,9.04334594 L15.0254669,12.0820353 L8.80215356,15.1208262 L2.57884023,12.0820861 L8.80215356,9.04334594 Z M1.63507496,13.3412662 L7.98461608,16.4416577 L7.98461608,23.9785072 L1.63507496,20.8688731 L1.63507496,13.3412662 Z M9.61969104,23.9785072 L9.61969104,16.4416577 L15.9692322,13.3412662 L15.9692322,20.8688223 L9.61969104,23.9785072 Z M20.3557023,18.4290243 C19.6428096,18.7219951 18.6837291,18.9441227 17.6043071,19.0702185 C17.6043071,19.0702185 17.6043071,12.0868598 17.6043071,12.0820861 C17.6043071,11.8238513 17.4149654,11.5287984 17.1662705,11.4073748 L9.64694229,7.73581978 L9.64694229,4.94586864 C9.89754478,5.06602272 10.1841734,5.1821141 10.512333,5.29190831 C11.8621964,5.74367949 13.6356532,5.9924685 15.5059609,5.9924685 C17.3762687,5.9924685 19.1497255,5.74367949 20.4995889,5.29190831 C20.8277484,5.1821141 21.114377,5.06602272 21.3649795,4.94586864 L21.3649795,17.7159714 C21.3649795,17.7789431 21.1936782,18.0846098 20.3557023,18.4290243 L20.3557023,18.4290243 Z" id="Shape"></path>
                </g>
            </g>
        </g>
    </g>
</svg>