<?xml version="1.0" encoding="UTF-8"?>
<svg width="24px" height="24px" viewBox="0 0 24 24" version="1.1" xmlns="http://www.w3.org/2000/svg" xmlns:xlink="http://www.w3.org/1999/xlink">
    <title>select</title>
    <g id="Design-system" stroke="none" stroke-width="1" fill="none" fill-rule="evenodd">
        <g id="Navigation" transform="translate(-148.000000, -262.000000)" fill="#FFFFFF" fill-rule="nonzero">
            <g id="Group-2" transform="translate(128.000000, 203.000000)">
                <g id="select" transform="translate(20.000000, 59.000000)">
                    <path d="M1.08936788,5.44683941 C0.488036812,5.44683941 0,4.9588026 0,4.35747153 L0,3.26810365 C0,1.46628917 1.46628917,0 3.26810365,0 L4.35747153,0 C4.9588026,0 5.44683941,0.488036812 5.44683941,1.08936788 C5.44683941,1.69069895 4.9588026,2.17873577 4.35747153,2.17873577 L3.26810365,2.17873577 C2.66786195,2.17873577 2.17873577,2.66786195 2.17873577,3.26810365 L2.17873577,4.35747153 C2.17873577,4.9588026 1.69069895,5.44683941 1.08936788,5.44683941 Z M20.6979898,5.44683941 C20.0966587,5.44683941 19.6086219,4.9588026 19.6086219,4.35747153 L19.6086219,3.26810365 C19.6086219,2.66786195 19.1194957,2.17873577 18.519254,2.17873577 L17.4298861,2.17873577 C16.8285551,2.17873577 16.3405182,1.69069895 16.3405182,1.08936788 C16.3405182,0.488036812 16.8285551,0 17.4298861,0 L18.519254,0 C20.3210685,0 21.7873577,1.46628917 21.7873577,3.26810365 L21.7873577,4.35747153 C21.7873577,4.9588026 21.2993208,5.44683941 20.6979898,5.44683941 Z M13.0724146,2.17873577 L8.71494306,2.17873577 C8.11361199,2.17873577 7.62557518,1.69069895 7.62557518,1.08936788 C7.62557518,0.488036812 8.11361199,0 8.71494306,0 L13.0724146,0 C13.6737457,0 14.1617825,0.488036812 14.1617825,1.08936788 C14.1617825,1.69069895 13.6737457,2.17873577 13.0724146,2.17873577 Z M13.2607361,11.5500169 L23.0751448,14.8214448 C24.3082851,15.2325333 24.3082851,16.9766854 23.0751448,17.3876487 L19.451105,18.5957454 C19.0472791,18.7303541 18.7303541,19.0472791 18.5957454,19.451105 L17.3876487,23.0751448 C16.9766854,24.3082851 15.2325333,24.3082851 14.8214448,23.0751448 L11.5500169,13.2607361 C11.1975302,12.2035262 12.2035262,11.1975302 13.2607361,11.5500169 Z M10.8936788,19.6086219 C11.4950099,19.6086219 11.9830467,20.0966587 11.9830467,20.6979898 C11.9830467,21.2993208 11.4950099,21.7873577 10.8936788,21.7873577 L8.71494306,21.7873577 C8.11361199,21.7873577 7.62557518,21.2993208 7.62557518,20.6979898 C7.62557518,20.0966587 8.11361199,19.6086219 8.71494306,19.6086219 L10.8936788,19.6086219 Z M20.6979898,7.62557518 C21.2993208,7.62557518 21.7873577,8.11361199 21.7873577,8.71494306 L21.7873577,10.8936788 C21.7873577,11.4950099 21.2993208,11.9830467 20.6979898,11.9830467 C20.0966587,11.9830467 19.6086219,11.4950099 19.6086219,10.8936788 L19.6086219,8.71494306 C19.6086219,8.11361199 20.0966587,7.62557518 20.6979898,7.62557518 Z M4.35747153,21.7873577 L3.26810365,21.7873577 C1.46628917,21.7873577 0,20.3210685 0,18.519254 L0,17.4298861 C0,16.8285551 0.488036812,16.3405182 1.08936788,16.3405182 C1.69069895,16.3405182 2.17873577,16.8285551 2.17873577,17.4298861 L2.17873577,18.519254 C2.17873577,19.1194957 2.66786195,19.6086219 3.26810365,19.6086219 L4.35747153,19.6086219 C4.9588026,19.6086219 5.44683941,20.0966587 5.44683941,20.6979898 C5.44683941,21.2993208 4.9588026,21.7873577 4.35747153,21.7873577 Z M1.08936788,14.1617825 C0.488036812,14.1617825 0,13.6737457 0,13.0724146 L0,8.71494306 C0,8.11361199 0.488036812,7.62557518 1.08936788,7.62557518 C1.69069895,7.62557518 2.17873577,8.11361199 2.17873577,8.71494306 L2.17873577,13.0724146 C2.17873577,13.6737457 1.69069895,14.1617825 1.08936788,14.1617825 Z" id="Combined-Shape"></path>
                </g>
            </g>
        </g>
    </g>
</svg>