<?xml version="1.0" encoding="UTF-8"?>
<svg width="24px" height="24px" viewBox="0 0 24 24" version="1.1" xmlns="http://www.w3.org/2000/svg" xmlns:xlink="http://www.w3.org/1999/xlink">
    <title>setting</title>
    <g id="Design-system" stroke="none" stroke-width="1" fill="none" fill-rule="evenodd">
        <g id="Navigation" transform="translate(-148.000000, -631.000000)" fill="#FFFFFF" fill-rule="nonzero">
            <g id="Group-2" transform="translate(128.000000, 203.000000)">
                <g id="setting" transform="translate(20.000000, 428.000000)">
                    <path d="M12.8544,0 C14.1492908,0.001322893 15.1986771,1.05070925 15.2,2.3456 L15.2,2.4488 C15.2052852,2.75305453 15.3904398,3.02522896 15.6714914,3.14188536 C15.9525431,3.25854177 16.2760132,3.19748271 16.4952,2.9864 L16.568,2.9136 C17.4845178,1.99916174 18.9682822,1.99916174 19.8848,2.9136 L21.0936,4.1216 C22.0072514,5.03875521 22.0072514,6.52204479 21.0936,7.4392 L21.0208,7.512 C20.8084462,7.72391195 20.7452302,8.0431527 20.8608,8.32 C20.9706336,8.60686554 21.244839,8.79728594 21.552,8.8 L21.6544,8.8 C22.9492908,8.80132289 23.9986771,9.85070925 24,11.1456 L24,12.8544 C23.9986771,14.1492908 22.9492908,15.1986771 21.6544,15.2 L21.552,15.2 C21.2510444,15.2011663 20.9808426,15.3846757 20.8688,15.664 C20.7435835,15.9442248 20.8022615,16.2725044 21.0168,16.492 L21.0896,16.5648 C22.0032514,17.4819552 22.0032514,18.9652448 21.0896,19.8824 L19.8808,21.0896 C18.9642822,22.0040383 17.4805178,22.0040383 16.564,21.0896 L16.4912,21.0168 C16.2721544,20.8087741 15.9511837,20.7491747 15.6720599,20.864698 C15.3929361,20.9802214 15.2079648,21.2492194 15.2,21.5512 L15.2,21.6544 C15.1986771,22.9492908 14.1492908,23.9986771 12.8544,24 L11.1456,24 C10.5223172,24.0004249 9.92444034,23.7530149 9.48371273,23.3122873 C9.04298512,22.8715597 8.79557513,22.2736828 8.796,21.6504 L8.796,21.5472 C8.79507866,21.2465978 8.61182862,20.9766284 8.3328,20.8648 C8.05254699,20.7398149 7.72440227,20.7984688 7.5048,21.0128 L7.432,21.0856 C6.51557248,22.0010112 5.03082752,22.0010112 4.1144,21.0856 L2.9064,19.8784 C1.99274863,18.9612448 1.99274863,17.4779552 2.9064,16.5608 L2.9792,16.488 C3.19155377,16.2760881 3.25476976,15.9568473 3.1392,15.68 C3.0293664,15.3931345 2.75516102,15.2027141 2.448,15.2 L2.3456,15.2 C1.05070925,15.1986771 0.001322893,14.1492908 0,12.8544 L0,11.1456 C0.001322893,9.85070925 1.05070925,8.80132289 2.3456,8.8 L2.448,8.8 C2.74875872,8.79896544 3.01890484,8.61581017 3.1312,8.3368 C3.25641653,8.05657525 3.19773852,7.72829559 2.9832,7.5088 L2.9104,7.436 C1.99674863,6.51884479 1.99674863,5.03555521 2.9104,4.1184 L4.1232,2.9104 C5.03971775,1.99596174 6.52348225,1.99596174 7.44,2.9104 L7.5088,2.9832 C7.72784555,3.19122587 8.04881633,3.2508253 8.32794009,3.13530196 C8.60706385,3.01977862 8.79203519,2.75078059 8.8,2.4488 L8.8,2.3456 C8.80132289,1.05070925 9.85070925,0.001322893 11.1456,0 Z M12.8544,1.6 L11.1456,1.6 C10.7339993,1.60044092 10.4004409,1.93399926 10.4,2.3456 L10.4,2.4488 C10.391164,3.39769986 9.81615155,4.24948485 8.93937782,4.61246813 C8.06260409,4.97545141 7.05377779,4.77937376 6.3768,4.1144 L6.3048,4.0416 C6.01362939,3.75045018 5.54157061,3.75045018 5.2504,4.0416 L4.0424,5.2504 C3.75169114,5.54175311 3.75169114,6.01344689 4.0424,6.3048 L4.1144,6.3776 C4.77970584,7.05447933 4.97587262,8.06354263 4.61261668,8.94037934 C4.24936074,9.81721606 3.39706916,10.391924 2.448,10.4 L2.3456,10.4 C1.93399926,10.4004409 1.60044092,10.7339993 1.6,11.1456 L1.6,12.8544 C1.60044092,13.2660007 1.93399926,13.5995591 2.3456,13.6 L2.448,13.6 C3.39756111,13.6074481 4.25057127,14.182166 4.61410073,15.0594164 C4.97763019,15.9366667 4.78116315,16.9462843 4.1152,17.6232 L4.0424,17.696 C3.75159908,17.9876273 3.75159908,18.4595727 4.0424,18.7512 L5.2504,19.9584 C5.54193468,20.2486695 6.01326532,20.2486695 6.3048,19.9584 L6.3776,19.8856 C7.05300725,19.2163889 8.06395536,19.0176598 8.9424201,19.3814154 C9.82088483,19.7451711 10.3954037,20.6004122 10.4,21.5512 L10.4,21.6544 C10.4004409,22.0660007 10.7339993,22.3995591 11.1456,22.4 L12.8544,22.4 C13.2660007,22.3995591 13.5995591,22.0660007 13.6,21.6544 L13.6,21.5512 C13.6088284,20.6025012 14.1835969,19.7508515 15.0600977,19.3877347 C15.9365984,19.024618 16.9452507,19.2202881 17.6224,19.8848 L17.6944,19.9576 C17.9855706,20.2487498 18.4576294,20.2487498 18.7488,19.9576 L19.9576,18.7504 C20.2484009,18.4587727 20.2484009,17.9868273 19.9576,17.6952 L19.8856,17.6224 C19.2202942,16.9455207 19.0241274,15.9364574 19.3873833,15.0596207 C19.7506393,14.1827839 20.6029308,13.608076 21.552,13.6 L21.6544,13.6 C22.0660007,13.5995591 22.3995591,13.2660007 22.4,12.8544 L22.4,11.1456 C22.3995591,10.7339993 22.0660007,10.4004409 21.6544,10.4 L21.552,10.4 C20.6027856,10.3922413 19.7502028,9.81765028 19.3867435,8.94074355 C19.0232841,8.06383682 19.2193969,7.05458361 19.8848,6.3776 L19.9576,6.3048 C20.2483089,6.01344689 20.2483089,5.54175311 19.9576,5.2504 L18.7496,4.0416 C18.4584294,3.75045018 17.9863706,3.75045018 17.6952,4.0416 L17.6224,4.1144 C16.945625,4.77960876 15.9367514,4.97582965 15.0599847,4.61277706 C14.1832179,4.24972448 13.6083931,3.39772397 13.6,2.4488 L13.6,2.3456 C13.5995591,1.93399926 13.2660007,1.60044092 12.8544,1.6 Z M12,6.4 C15.0913325,6.40352691 17.5964731,8.90866747 17.6,12 C17.6,15.0927946 15.0927946,17.6 12,17.6 C8.9072054,17.6 6.4,15.0927946 6.4,12 C6.4,8.9072054 8.9072054,6.4 12,6.4 Z M12,8 C9.790861,8 8,9.790861 8,12 C8,14.209139 9.790861,16 12,16 C14.2080425,15.9973551 15.9973551,14.2080425 16,12 C16,9.790861 14.209139,8 12,8 Z" id="Combined-Shape"></path>
                </g>
            </g>
        </g>
    </g>
</svg>