<?xml version="1.0" encoding="UTF-8"?>
<svg width="20px" height="20px" viewBox="0 0 20 20" version="1.1" xmlns="http://www.w3.org/2000/svg" xmlns:xlink="http://www.w3.org/1999/xlink">
    <title>zoom-in</title>
    <g id="Design-system" stroke="none" stroke-width="1" fill="none" fill-rule="evenodd">
        <g id="Navigation" transform="translate(-150.000000, -316.000000)" fill="#FFFFFF" fill-rule="nonzero">
            <g id="Group-2" transform="translate(128.000000, 203.000000)">
                <g id="zoom-in" transform="translate(22.000000, 113.000000)">
                    <path d="M2.6577105,2.6577105 C6.07593989,-0.760518879 11.5738159,-0.898790263 15.1595518,2.34328964 C18.7452878,5.58536955 19.1597523,11.0693443 16.1020194,14.8135203 L19.7315944,18.4430953 C19.9033756,18.6134736 20,18.8453996 20,19.0873449 C20,19.3292901 19.9033756,19.5612162 19.7315944,19.7315944 C19.5612162,19.9033756 19.3292901,20 19.0873449,20 C18.8453996,20 18.6134736,19.9033756 18.4430953,19.7315944 L14.8135203,16.1020194 C11.0693443,19.1597523 5.58536955,18.7452878 2.34328964,15.1595518 C-0.898790263,11.5738159 -0.760518879,6.07593989 2.6577105,2.6577105 Z M9.10601356,1.84686351 C5.09689569,1.84686351 1.84686351,5.09689569 1.84686351,9.10601356 C1.84686351,13.1151314 5.09689569,16.3651636 9.10601356,16.3651636 C11.0312599,16.3651636 12.8776531,15.6003625 14.2390078,14.2390078 C15.6003625,12.8776531 16.3651636,11.0312599 16.3651636,9.10601356 C16.3651636,5.09689569 13.1151314,1.84686351 9.10601356,1.84686351 Z M9,5 C9.55228475,5 10,5.44771525 10,6 L10,8 L12,8 C12.5522847,8 13,8.44771525 13,9 C13,9.55228475 12.5522847,10 12,10 L10,10 L10,12 C10,12.5522847 9.55228475,13 9,13 C8.44771525,13 8,12.5522847 8,12 L8,10 L6,10 C5.44771525,10 5,9.55228475 5,9 C5,8.44771525 5.44771525,8 6,8 L8,8 L8,6 C8,5.44771525 8.44771525,5 9,5 Z" id="Combined-Shape"></path>
                </g>
            </g>
        </g>
    </g>
</svg>